SplineFontDB: 3.0
FontName: SimpleRad
FullName: Simple Rad
FamilyName: Simple Rad
Weight: Normal
Copyright: Copyright (c) 2008 by Terrence Curran - GrilledCheese.com. All rights reserved.
Version: 2015-02-25
ItalicAngle: 0
UnderlinePosition: -123
UnderlineWidth: 20
Ascent: 800
Descent: 200
InvalidEm: 0
sfntRevision: 0x00010000
LayerCount: 2
Layer: 0 0 "Back" 1
Layer: 1 0 "Fore" 0
PreferredKerning: 4
XUID: [1021 270 -1463357204 14024407]
FSType: 0
OS2Version: 2
OS2_WeightWidthSlopeOnly: 0
OS2_UseTypoMetrics: 1
CreationTime: 1218390095
ModificationTime: 1424891665
PfmFamily: 81
TTFWeight: 400
TTFWidth: 5
LineGap: 0
VLineGap: 0
Panose: 0 0 4 0 0 0 0 0 0 0
OS2TypoAscent: 855
OS2TypoAOffset: 0
OS2TypoDescent: -256
OS2TypoDOffset: 0
OS2TypoLinegap: 0
OS2WinAscent: 855
OS2WinAOffset: 0
OS2WinDescent: 256
OS2WinDOffset: 0
HheadAscent: 855
HheadAOffset: 0
HheadDescent: -256
HheadDOffset: 0
OS2SubXSize: 700
OS2SubYSize: 650
OS2SubXOff: 0
OS2SubYOff: 143
OS2SupXSize: 700
OS2SupYSize: 650
OS2SupXOff: 0
OS2SupYOff: 453
OS2StrikeYSize: 50
OS2StrikeYPos: 259
OS2CapHeight: 0
OS2XHeight: 0
OS2Vendor: 'Pyrs'
OS2CodePages: 20000111.40000000
OS2UnicodeRanges: 800000af.4000204a.00000000.00000000
Lookup: 258 0 0 "'kern' Horizontal Kerning in Latin lookup 0" { "'kern' Horizontal Kerning in Latin lookup 0 subtable"  } ['kern' ('latn' <'dflt' > ) ]
MarkAttachClasses: 1
DEI: 91125
LangName: 1033 "" "" "Regular" "grilledcheese.com - Simple Rad" "SimpleRad" "2015-02-25" "" "" "Terrence Curran - GrilledCheese.com" "Terrence Curran" "Copyright (c) 2008 by Terrence Curran - GrilledCheese.com. All rights reserved." "http://www.grilledcheese.com" "http://www.grilledcheese.com" "" "" "" "Simple Rad" "Regular"
Encoding: UnicodeBmp
UnicodeInterp: none
NameList: AGL For New Fonts
DisplaySize: -48
AntiAlias: 1
FitToEm: 1
WinInfo: 63 21 10
BeginPrivate: 2
BlueValues 23 [-25 0 566 566 633 665]
OtherBlues 11 [-230 -203]
EndPrivate
BeginChars: 65542 250

StartChar: .notdef
Encoding: 65536 -1 0
GlifName: _notdef
Width: 500
Flags: MW
HStem: 0 63<125 375 125 438 63 375> 738 62<125 125 125 375>
VStem: 63 62<63 738 63 800> 375 63<63 738 738 738>
LayerCount: 2
Back
Fore
SplineSet
438 0 m 1
 63 0 l 1
 63 800 l 1
 438 800 l 1
 438 0 l 1
125 738 m 1
 125 63 l 1
 375 63 l 1
 375 738 l 1
 125 738 l 1
EndSplineSet
EndChar

StartChar: exclam
Encoding: 33 33 4
GlifName: exclam
Width: 244
Flags: MW
HStem: 1 109<100.5 131.5> 619 20G<109 134>
VStem: 60 112<40.5 70.5> 83 75<188 600 600 603>
LayerCount: 2
Back
Fore
SplineSet
83 188 m 2xd0
 83 600 l 2
 83 626 96 639 122 639 c 0
 146 639 158 627 158 603 c 2
 158 188 l 2
 158 163 145 151 120 151 c 0
 95 151 83 163 83 188 c 2xd0
60 55 m 0xe0
 60 86 85 110 116 110 c 0
 147 110 172 86 172 55 c 0
 172 26 147 1 116 1 c 0
 85 1 60 26 60 55 c 0xe0
EndSplineSet
EndChar

StartChar: quotedbl
Encoding: 34 34 5
GlifName: quotedbl
Width: 500
Flags: MW
HStem: 479 21G<125.5 150.5 347.5 372.5> 745 20G<125.5 150.5 347.5 372.5>
VStem: 100 75<517 727> 322 75<517 727>
LayerCount: 2
Back
Fore
SplineSet
175 727 m 2
 175 517 l 2
 175 492 163 479 138 479 c 0
 113 479 100 492 100 517 c 2
 100 727 l 2
 100 752 113 765 138 765 c 0
 163 765 175 752 175 727 c 2
397 727 m 2
 397 517 l 2
 397 492 385 479 360 479 c 0
 335 479 322 492 322 517 c 2
 322 727 l 2
 322 752 335 765 360 765 c 0
 385 765 397 752 397 727 c 2
EndSplineSet
EndChar

StartChar: numbersign
Encoding: 35 35 6
GlifName: numbersign
Width: 653
Flags: MW
HStem: -35 250<48 220.5> 139 76<48 171 246 419 48 246> 412 75<35.5 171 48 171 596 608.5> 412 220<35.5 222 48 222>
VStem: 11 235<-10.5 189.5> 171 75<2 139 215 412 412 412 487 593 593 596> 419 75<2 139 215 413 487 593 593 596> 419 221<2 189.5 139 189.5 164.5 413>
LayerCount: 2
Back
Fore
SplineSet
171 215 m 1x66
 171 412 l 1xa6
 48 412 l 2
 23 412 11 425 11 450 c 0xaa
 11 475 23 487 48 487 c 2
 171 487 l 1xa6
 171 593 l 2
 171 619 184 632 210 632 c 0x96
 234 632 246 620 246 596 c 2
 246 487 l 1
 419 487 l 1xaa
 419 593 l 2
 419 619 432 632 458 632 c 0x9a
 482 632 494 620 494 596 c 2
 494 487 l 1
 596 487 l 2
 621 487 634 474 634 449 c 0
 634 424 621 412 596 412 c 2
 494 413 l 1
 494 215 l 1xaa
 602 215 l 2
 627 215 640 202 640 177 c 0xa9
 640 152 627 140 602 140 c 2
 494 139 l 1x6a
 494 2 l 2
 494 -23 482 -35 457 -35 c 0xaa
 432 -35 419 -23 419 2 c 2
 419 139 l 1
 246 139 l 1x6a
 246 2 l 2
 246 -23 233 -35 208 -35 c 0xaa
 183 -35 171 -23 171 2 c 2
 171 139 l 1x66
 48 140 l 2
 23 140 11 152 11 177 c 0x6a
 11 202 23 215 48 215 c 2
 171 215 l 1x66
419 413 m 1
 246 413 l 1
 246 215 l 1
 419 215 l 1
 419 413 l 1
EndSplineSet
EndChar

StartChar: dollar
Encoding: 36 36 7
GlifName: dollar
Width: 424
Flags: MW
HStem: -126 21G<162.5 187.5> -32 229<162.5 213> 693 20G<168.5 193.5>
VStem: 5 76<450.5 483 437 499> 30 183<149 159> 138 75<-89 -32 -101.5 -13 88 159> 321 75<114 132.5>
LayerCount: 2
Back
Fore
SplineSet
242 36 m 0xea
 283 42 308 62 317 95 c 0
 320 102 321 110 321 118 c 0
 321 147 304 176 269 204 c 0
 249 221 214 243 163 270 c 0
 116 295 87 314 74 326 c 0
 56 344 45 355 42 359 c 0
 31 371 23 384 18 399 c 0
 9 419 5 440 5 461 c 0
 5 537 60 603 144 616 c 1
 143 675 l 2
 143 700 156 713 181 713 c 0
 206 713 218 700 218 675 c 2
 219 615 l 1
 273 606 316 563 349 488 c 0
 351 483 352 477 352 472 c 0
 352 451 333 435 313 435 c 0
 298 435 287 443 280 458 c 0
 260 503 240 530 219 539 c 1
 218 459 l 2
 218 434 206 422 181 422 c 0
 156 422 143 434 143 459 c 2
 144 540 l 1
 102 529 81 503 81 463 c 0
 81 411 122 376 197 337 c 0
 241 314 270 297 285 286 c 0
 359 232 396 175 396 115 c 0
 396 102 394 88 390 75 c 0
 369 7 293 -35 213 -32 c 1
 213 -89 l 2
 213 -114 200 -126 175 -126 c 0
 150 -126 138 -114 138 -89 c 2
 138 -13 l 1xf6
 103 4 76 29 59 64 c 0
 40 105 30 137 30 161 c 0xea
 30 182 48 198 69 198 c 0
 88 198 99 188 104 169 c 0
 113 135 124 108 138 88 c 1
 138 159 l 2xf6
 138 184 150 197 175 197 c 0
 200 197 213 184 213 159 c 2
 213 36 l 1
 220 35 230 35 242 36 c 0xea
EndSplineSet
EndChar

StartChar: percent
Encoding: 37 37 8
GlifName: percent
Width: 630
Flags: MW
HStem: -29 21G<97 113.5> -7 75<444.5 482.5 444.5 484.5> 224 75<444.5 482.5> 320 77<135 168.5 134.5 172.5> 518 62 571 20G<135 172.5>
VStem: 17 73<441.5 474 441.5 474> 214 77<441.5 474> 318 75<125 166.5> 534 75<125 166.5 125 168>
LayerCount: 2
Back
Fore
SplineSet
75 29 m 2xfbc0
 423 562 l 2
 431 574 441 580 454 580 c 0
 474 580 493 563 493 543 c 0
 493 536 491 528 486 521 c 2
 137 -12 l 2
 130 -23 120 -29 107 -29 c 0
 87 -29 68 -12 68 8 c 0
 68 15 70 22 75 29 c 2xfbc0
154 591 m 0xf7c0
 191 591 223 578 250 551 c 0
 277 525 291 493 291 455 c 0
 291 418 277 386 250 359 c 0
 223 333 191 320 154 320 c 0
 116 320 84 333 57 359 c 0
 30 386 17 418 17 455 c 0
 17 493 30 525 57 551 c 0
 84 578 116 591 154 591 c 0xf7c0
152 518 m 0xfbc0
 117 518 90 490 90 458 c 0
 90 425 117 397 152 397 c 0
 185 397 214 425 214 458 c 0
 214 490 185 518 152 518 c 0xfbc0
464 299 m 0
 505 299 539 284 567 253 c 0
 595 223 609 187 609 146 c 0
 609 104 595 68 567 38 c 0
 539 8 505 -7 464 -7 c 0
 423 -7 388 8 360 38 c 0
 332 68 318 104 318 146 c 0
 318 187 332 223 360 253 c 0
 388 284 423 299 464 299 c 0
464 224 m 0
 425 224 393 190 393 146 c 0
 393 102 425 68 464 68 c 0
 501 68 534 102 534 146 c 0
 534 190 501 224 464 224 c 0
EndSplineSet
EndChar

StartChar: ampersand
Encoding: 38 38 9
GlifName: ampersand
Width: 509
Flags: MW
HStem: -167 21G<427.5 444> -40 73<178.5 219.5> 612 20G<205 257>
VStem: 63 76<445 468.5 445 480.5> 277 68<474.5 479>
LayerCount: 2
Back
Fore
SplineSet
345 74 m 1
 386 120 l 2
 394 129 403 134 414 134 c 0
 434 134 453 116 453 96 c 0
 453 87 450 79 443 72 c 0
 430 56 411 35 387 10 c 1
 402 -14 428 -53 465 -107 c 0
 470 -114 473 -122 473 -130 c 0
 473 -150 454 -167 434 -167 c 0
 421 -167 411 -162 404 -151 c 0
 370 -102 341 -60 317 -24 c 1
 294 -30 l 2
 265 -37 235 -40 204 -40 c 0
 153 -40 112 -31 79 -13 c 0
 39 10 17 44 14 90 c 0
 11 130 20 167 41 200 c 0
 54 221 83 254 127 297 c 1
 91 360 l 2
 72 391 63 424 63 457 c 0
 63 504 80 545 114 580 c 0
 148 615 185 632 225 632 c 0
 289 632 328 590 342 506 c 0
 344 495 345 484 345 474 c 0
 345 439 333 406 309 374 c 0
 296 357 267 327 222 285 c 1
 250 236 291 165 345 74 c 1
88 96 m 0
 92 54 132 33 209 33 c 0
 232 33 255 35 277 40 c 1
 258 70 221 134 165 231 c 1
 133 201 113 179 104 164 c 0
 91 145 86 122 88 96 c 0
241 550 m 0
 236 555 230 558 222 558 c 0
 204 558 186 548 167 527 c 0
 148 506 139 482 139 455 c 0
 139 435 145 416 156 397 c 2
 182 351 l 1
 217 385 239 409 250 422 c 0
 268 445 277 465 277 484 c 0
 277 505 265 527 241 550 c 0
EndSplineSet
EndChar

StartChar: quotesingle
Encoding: 39 39 10
GlifName: quotesingle
Width: 244
Flags: MW
HStem: 407 237<110.5 135.5>
VStem: 86 75<445 606>
LayerCount: 2
Back
Fore
SplineSet
161 606 m 2
 161 445 l 2
 161 420 148 407 123 407 c 0
 98 407 86 420 86 445 c 2
 86 606 l 2
 86 631 98 644 123 644 c 0
 148 644 161 631 161 606 c 2
EndSplineSet
EndChar

StartChar: parenleft
Encoding: 40 40 11
GlifName: parenleft
Width: 342
Flags: MW
HStem: -163 21G<236 251.5> 711 20G<249 265>
VStem: 48 73<220 304.5 220 312>
LayerCount: 2
Back
Fore
SplineSet
287 671 m 0
 230 590 189 521 164 464 c 0
 135 398 121 335 121 274 c 0
 121 166 170 40 269 -105 c 0
 274 -112 277 -120 277 -128 c 0
 277 -148 261 -163 242 -163 c 0
 230 -163 220 -157 213 -146 c 0
 103 13 48 155 48 278 c 0
 48 346 63 416 94 489 c 0
 122 554 166 629 225 714 c 0
 233 725 243 731 255 731 c 0
 275 731 294 713 294 693 c 0
 294 686 292 678 287 671 c 0
EndSplineSet
EndChar

StartChar: parenright
Encoding: 41 41 12
GlifName: parenright
Width: 342
Flags: MW
HStem: -170 21G<88.5 103.5> 704 20G<75 91>
VStem: 219 72<213 297.5>
LayerCount: 2
Back
Fore
SplineSet
53 664 m 0
 48 671 46 679 46 686 c 0
 46 706 65 724 85 724 c 0
 97 724 107 718 115 707 c 0
 174 622 218 547 245 482 c 0
 276 409 291 338 291 271 c 0
 291 148 236 6 127 -153 c 0
 119 -164 109 -170 98 -170 c 0
 79 -170 62 -155 62 -135 c 0
 62 -127 65 -119 70 -112 c 0
 169 33 219 159 219 267 c 0
 219 328 204 391 175 457 c 0
 150 514 109 583 53 664 c 0
EndSplineSet
EndChar

StartChar: asterisk
Encoding: 42 42 13
GlifName: asterisk
Width: 406
Flags: MW
HStem: 282 21G<179.5 204.5> 339 228 614 20G<179.5 204.5>
VStem: 15 214<368 385> 27 202 154 75<320 389 307.5 393 307.5 393 596 608.5> 154 202<320 536.5 393 536.5 519 608.5> 154 214<371 388 371 393 371 393 371 608.5>
LayerCount: 2
Back
Fore
SplineSet
116 461 m 1xf0
 46 500 l 2
 33 507 27 518 27 532 c 0xe8
 27 552 43 571 64 571 c 0
 71 571 77 569 83 566 c 2
 155 525 l 1
 154 596 l 2
 154 621 167 634 192 634 c 0
 217 634 229 622 229 597 c 0xe4
 229 592 230 568 231 523 c 1
 298 562 l 2
 305 565 311 567 317 567 c 0
 338 567 356 547 356 526 c 0xe2
 356 512 350 501 337 494 c 2
 269 457 l 1
 348 413 l 2
 361 406 368 395 368 381 c 0xe1
 368 361 351 342 331 342 c 0
 324 342 318 344 312 347 c 2
 229 389 l 1
 229 320 l 2
 229 295 217 282 192 282 c 0
 167 282 154 295 154 320 c 2
 154 393 l 1xe4
 72 345 l 2
 65 341 59 339 52 339 c 0
 32 339 15 358 15 378 c 0
 15 392 21 403 34 410 c 2
 116 461 l 1xf0
EndSplineSet
EndChar

StartChar: plus
Encoding: 43 43 14
GlifName: plus
Width: 388
Flags: MW
HStem: 214 205<63 204.5> 343 76<63 155> 343 203<155 204.5>
VStem: 25 205<239.5 393.5> 155 75<252 343 343 343 419 508> 155 207<252 393.5 343 393.5 368.5 508 368.5 520.5>
LayerCount: 2
Back
Fore
SplineSet
230 419 m 1x88
 325 419 l 2
 350 419 362 406 362 381 c 0x84
 362 356 350 344 325 344 c 2
 230 344 l 1
 230 252 l 2
 230 227 217 214 192 214 c 0x90
 167 214 155 227 155 252 c 2
 155 343 l 1x48
 63 344 l 2
 38 344 25 356 25 381 c 0x50
 25 406 38 419 63 419 c 2
 155 419 l 1x88
 155 508 l 2
 155 533 167 546 192 546 c 0x28
 217 546 230 533 230 508 c 2
 230 419 l 1x88
EndSplineSet
EndChar

StartChar: comma
Encoding: 44 44 15
GlifName: comma
Width: 276
Flags: MW
HStem: -86 21G<89 105.5> 162 20G<109 160.5>
VStem: 42 185<68.5 111.5 68.5 111.5>
LayerCount: 2
Back
Fore
SplineSet
42 84 m 0
 42 139 83 182 135 182 c 0
 186 182 227 139 227 84 c 0
 227 53 213 18 185 -21 c 0
 154 -64 122 -86 89 -86 c 1
 94 -76 100 -61 106 -41 c 0
 112 -22 115 -8 115 1 c 1
 74 1 42 43 42 84 c 0
EndSplineSet
EndChar

StartChar: hyphen
Encoding: 173 173 16
GlifName: hyphen
Width: 379
Flags: MW
HStem: 159 75<71.5 295 84 295>
LayerCount: 2
Back
Fore
SplineSet
84 234 m 2
 295 234 l 2
 320 234 332 222 332 197 c 0
 332 172 320 159 295 159 c 2
 84 159 l 2
 59 159 47 172 47 197 c 0
 47 222 59 234 84 234 c 2
EndSplineSet
EndChar

StartChar: period
Encoding: 46 46 17
GlifName: period
Width: 230
Flags: MW
HStem: -8 136<97 133>
VStem: 50 130<41.5 78.5>
LayerCount: 2
Back
Fore
SplineSet
50 60 m 0
 50 97 79 128 115 128 c 0
 151 128 180 97 180 60 c 0
 180 23 151 -8 115 -8 c 0
 79 -8 50 23 50 60 c 0
EndSplineSet
EndChar

StartChar: slash
Encoding: 47 47 18
GlifName: slash
Width: 447
Flags: MW
HStem: -31 21G<75 93.5> 734 20G<313.5 332>
LayerCount: 2
Back
Fore
SplineSet
287 728 m 2
 293 745 305 754 322 754 c 0
 342 754 361 738 361 718 c 0
 361 713 360 709 359 704 c 2
 119 -5 l 2
 114 -22 102 -31 85 -31 c 0
 65 -31 46 -15 46 5 c 0
 46 10 47 14 48 19 c 2
 287 728 l 2
EndSplineSet
EndChar

StartChar: zero
Encoding: 48 48 19
GlifName: zero
Width: 489
Flags: MW
HStem: -38 75<224.5 261.5 224.5 276.5> 616 75<224.5 261.5>
VStem: 16 75<283.5 368.5 283.5 374> 394 75<283.5 368.5>
LayerCount: 2
Back
Fore
SplineSet
243 691 m 0
 310 691 366 653 409 577 c 0
 449 506 469 422 469 326 c 0
 469 231 449 147 409 76 c 0
 366 0 310 -38 243 -38 c 0
 176 -38 120 0 77 76 c 0
 36 147 16 231 16 326 c 0
 16 422 36 506 77 577 c 0
 120 653 176 691 243 691 c 0
243 616 m 0
 206 616 172 590 142 539 c 0
 108 482 91 411 91 326 c 0
 91 241 108 171 142 114 c 0
 172 63 206 37 243 37 c 0
 280 37 313 63 344 114 c 0
 377 171 394 241 394 326 c 0
 394 411 377 482 344 539 c 0
 313 590 280 616 243 616 c 0
EndSplineSet
EndChar

StartChar: one
Encoding: 49 49 20
GlifName: one
Width: 509
Flags: MW
HStem: -37 113<126 287.5> 1 75<113.5 239 126 238 314 449 126 313> 617 20G<279 295.5>
VStem: 70 243 89 224<-11.5 50.5> 239 74 239 247<25.5 505>
LayerCount: 2
Back
Fore
SplineSet
239 76 m 1x64
 239 505 l 1xa4
 138 404 l 2
 129 395 120 391 109 391 c 0
 89 391 70 408 70 427 c 0
 70 436 74 445 81 452 c 2
 238 609 l 2
 255 628 271 637 287 637 c 0
 304 637 313 625 313 600 c 2xb0
 314 76 l 1
 449 76 l 2
 474 76 486 63 486 38 c 0xa2
 486 13 474 1 449 1 c 2
 313 1 l 1x70
 313 -24 300 -37 275 -37 c 0xb0
 250 -37 238 -24 238 1 c 1
 126 1 l 2
 101 1 89 13 89 38 c 0x68
 89 63 101 76 126 76 c 2
 239 76 l 1x64
EndSplineSet
EndChar

StartChar: two
Encoding: 50 50 21
GlifName: two
Width: 501
Flags: MW
HStem: -61 21G<35 49.5>
VStem: 68 75<417.5 451 417.5 471.5> 374 75
LayerCount: 2
Back
Fore
SplineSet
135 1 m 1
 69 -52 l 2
 62 -58 54 -61 45 -61 c 0
 25 -61 7 -42 7 -22 c 0
 7 -11 12 -1 22 7 c 0
 71 45 121 83 170 122 c 0
 235 175 283 223 316 266 c 0
 359 324 378 380 374 433 c 0
 371 477 358 511 335 536 c 0
 315 557 290 568 261 568 c 0
 230 568 203 556 180 532 c 0
 155 506 143 472 143 430 c 0
 143 405 131 393 106 393 c 0
 81 393 68 405 68 430 c 0
 68 513 99 574 162 613 c 0
 221 650 281 654 341 625 c 0
 406 592 442 530 449 439 c 0
 450 429 450 419 450 409 c 0
 450 341 430 279 389 224 c 0
 359 183 307 133 233 76 c 1
 443 76 l 2
 468 76 481 63 481 38 c 0
 481 13 468 1 443 1 c 2
 135 1 l 1
EndSplineSet
EndChar

StartChar: three
Encoding: 51 51 22
GlifName: three
Width: 447
Flags: MW
HStem: -33 75<210.5 237.5 189.5 256> 551 76<196.5 236.5>
VStem: 134 233<306.5 486.5> 292 75<445.5 486.5 436.5 493.5> 347 75<142.5 161.5>
LayerCount: 2
Back
Fore
SplineSet
120 530 m 0xd0
 115 527 109 526 104 526 c 0
 84 526 68 545 68 565 c 0
 68 581 76 592 91 599 c 0
 135 618 175 627 212 627 c 0
 262 627 301 610 329 577 c 0
 354 547 367 509 367 464 c 0xe0
 367 409 349 363 314 326 c 1
 347 307 373 282 392 251 c 0
 412 218 422 184 422 148 c 0
 422 137 421 127 419 117 c 0
 411 68 389 31 352 4 c 0
 319 -21 279 -33 233 -33 c 0
 188 -33 147 -22 108 1 c 0
 66 26 36 59 17 102 c 0
 14 107 13 113 13 119 c 0
 13 139 32 155 52 155 c 0
 67 155 78 148 85 133 c 0
 112 72 158 42 221 42 c 0
 254 42 282 51 306 69 c 0
 333 89 347 115 347 146 c 0xc8
 347 177 334 206 309 232 c 0
 284 258 256 273 224 278 c 0
 202 278 185 279 174 280 c 0
 147 282 134 295 134 318 c 0xe0
 134 338 146 350 169 354 c 0
 188 357 203 358 216 358 c 0
 261 371 292 421 292 470 c 0
 292 517 264 551 209 551 c 0
 184 551 154 544 120 530 c 0xd0
EndSplineSet
EndChar

StartChar: four
Encoding: 52 52 23
GlifName: four
Width: 475
Flags: MW
HStem: -37 21G<272.5 297.5> 257 75<411 423.5> 605 20G<281.5 300.5>
VStem: 247 75<1 258 333 480 480 480> 247 202<1 307.5 258 307.5 282.5 480 282.5 480>
LayerCount: 2
Back
Fore
SplineSet
247 480 m 1xf0
 136 332 l 1
 247 333 l 1
 247 480 l 1xf0
322 582 m 2
 322 333 l 1xf0
 411 332 l 2
 436 332 449 320 449 295 c 0xe8
 449 270 436 257 411 257 c 2
 322 258 l 1
 322 1 l 2
 322 -24 310 -37 285 -37 c 0
 260 -37 247 -24 247 1 c 2
 247 258 l 1
 60 257 l 2
 33 257 19 268 19 289 c 0
 19 298 23 308 30 318 c 2
 242 595 l 2
 257 615 273 625 290 625 c 0
 311 625 322 611 322 582 c 2
EndSplineSet
EndChar

StartChar: five
Encoding: 53 53 24
GlifName: five
Width: 509
Flags: MW
HStem: -31 75<225 295> 292 153<140.5 299> 370 75<250 299 249 310.5> 560 75<187 187 187 420>
VStem: 24 75<156 203.5> 112 75<434 560 434 592 434 606.5> 410 75<167.5 238 167.5 255>
LayerCount: 2
Back
Fore
SplineSet
187 560 m 1xde
 187 434 l 1
 208 441 234 445 264 445 c 0
 334 445 389 421 429 374 c 0
 466 330 485 273 485 203 c 0
 485 132 465 76 425 33 c 0
 385 -10 330 -31 260 -31 c 0
 190 -31 134 -12 91 26 c 0
 46 66 24 121 24 191 c 0
 24 216 36 229 61 229 c 0
 86 229 99 216 99 191 c 0
 99 96 157 44 260 44 c 0
 356 44 410 102 410 203 c 0
 410 307 357 370 264 370 c 0xbe
 236 370 218 367 209 362 c 0
 206 360 199 352 190 339 c 1
 186 308 173 292 151 292 c 0
 130 292 112 311 112 335 c 2
 112 592 l 2
 112 621 126 635 154 635 c 2
 420 635 l 2
 445 635 458 623 458 598 c 0
 458 573 445 560 420 560 c 2
 187 560 l 1xde
EndSplineSet
EndChar

StartChar: six
Encoding: 54 54 25
GlifName: six
Width: 489
Flags: MW
HStem: -26 74<244 266.5 244 266.5> 208 132<180 329.5> 613 20G<337.5 350.5>
VStem: 34 75<147 223.5 147 227.5> 377 79<159.5 169.5 137 187.5>
LayerCount: 2
Back
Fore
SplineSet
351 560 m 0
 290 539 235 489 184 410 c 0
 134 332 109 258 109 189 c 0
 109 105 149 59 228 50 c 0
 235 49 241 48 247 48 c 0
 286 48 318 62 343 90 c 0
 366 115 377 143 377 176 c 0
 377 199 371 218 359 234 c 0
 345 251 326 260 301 263 c 0
 265 267 250 259 219 222 c 0
 211 213 201 208 190 208 c 0
 170 208 151 225 151 246 c 0
 151 254 154 262 160 269 c 0
 198 316 243 340 294 340 c 0
 365 340 427 289 451 204 c 0
 454 190 456 176 456 163 c 0
 456 111 433 66 387 29 c 0
 342 -8 293 -26 240 -26 c 0
 113 -26 34 57 34 184 c 0
 34 271 63 360 121 451 c 0
 181 544 249 604 326 631 c 0
 331 632 335 633 340 633 c 0
 361 633 376 615 376 594 c 0
 376 577 368 566 351 560 c 0
EndSplineSet
EndChar

StartChar: seven
Encoding: 55 55 26
GlifName: seven
Width: 569
Flags: MW
HStem: -182 21G<59 75.5> 556 75<130.5 503 143 438>
LayerCount: 2
Back
Fore
SplineSet
143 631 m 2
 503 631 l 2
 530 631 543 620 543 599 c 0
 543 591 541 583 536 575 c 2
 100 -163 l 2
 93 -176 82 -182 69 -182 c 0
 49 -182 30 -166 30 -145 c 0
 30 -138 32 -132 36 -125 c 2
 438 556 l 1
 143 556 l 2
 118 556 106 569 106 594 c 0
 106 619 118 631 143 631 c 2
EndSplineSet
EndChar

StartChar: eight
Encoding: 56 56 27
GlifName: eight
Width: 484
Flags: MW
HStem: -40 75<218.5 257.5 218.5 268.5> 301 75<213 243.5> 560 75<204.5 249.5 204.5 250.5>
VStem: 19 75<170 218.5 170 225.5> 65 75<448.5 490.5> 313 75<451.5 490.5 451.5 494> 383 75<170 209.5 160.5 222.5>
LayerCount: 2
Back
Fore
SplineSet
65 468 m 0xec
 65 513 81 552 112 585 c 0
 143 618 182 635 227 635 c 0
 272 635 310 618 341 585 c 0
 372 552 388 513 388 468 c 0xec
 388 435 380 407 365 382 c 1
 392 359 414 332 431 299 c 0
 449 263 458 227 458 192 c 0
 458 129 437 74 394 28 c 0
 351 -17 299 -40 238 -40 c 0
 177 -40 126 -17 83 28 c 0
 40 74 19 129 19 192 c 0xf2
 19 259 45 318 97 367 c 1
 76 395 65 429 65 468 c 0xec
94 192 m 0xf2
 94 148 108 111 137 80 c 0
 166 50 199 35 238 35 c 0
 277 35 311 50 340 80 c 0
 369 111 383 148 383 192 c 0
 383 253 361 298 318 329 c 1
 291 310 260 301 227 301 c 0
 199 301 173 308 150 321 c 1
 113 288 94 245 94 192 c 0xf2
227 560 m 0
 180 560 140 520 140 468 c 0
 140 416 180 376 227 376 c 0
 274 376 313 416 313 468 c 0xec
 313 520 274 560 227 560 c 0
EndSplineSet
EndChar

StartChar: nine
Encoding: 57 57 28
GlifName: nine
Width: 489
Flags: MW
HStem: -128 21G<95.5 108> 259 132<164.5 314> 605 20G<227.5 285>
VStem: 38 79<429.5 439.5 411.5 462> 372 73<369.5 445.5 362.5 453>
LayerCount: 2
Back
Fore
SplineSet
93 -55 m 0
 158 -33 220 29 281 132 c 0
 342 235 372 328 372 411 c 0
 372 495 337 541 266 549 c 0
 259 550 253 550 247 550 c 0
 208 550 175 536 150 509 c 0
 128 484 117 456 117 423 c 0
 117 400 123 380 135 365 c 0
 149 348 168 338 193 336 c 0
 229 332 244 338 275 377 c 0
 283 386 293 391 304 391 c 0
 324 391 343 373 343 353 c 0
 343 345 340 337 334 329 c 0
 296 282 251 259 200 259 c 0
 129 259 67 310 43 395 c 0
 40 409 38 423 38 436 c 0
 38 488 61 533 108 571 c 0
 153 607 201 625 254 625 c 0
 316 625 364 605 397 564 c 0
 429 527 445 477 445 414 c 0
 445 311 411 203 343 90 c 0
 274 -26 198 -98 117 -126 c 0
 114 -127 110 -128 106 -128 c 0
 85 -128 69 -108 69 -87 c 0
 69 -72 77 -61 93 -55 c 0
EndSplineSet
EndChar

StartChar: colon
Encoding: 58 58 29
GlifName: colon
Width: 276
Flags: MW
HStem: -14 196<109 160.5> 286 196<109 160.5>
VStem: 42 185<57.5 111.5 357.5 411.5>
LayerCount: 2
Back
Fore
SplineSet
42 84 m 0
 42 139 83 182 135 182 c 0
 186 182 227 139 227 84 c 0
 227 31 186 -14 135 -14 c 0
 83 -14 42 31 42 84 c 0
42 384 m 0
 42 439 83 482 135 482 c 0
 186 482 227 439 227 384 c 0
 227 331 186 286 135 286 c 0
 83 286 42 331 42 384 c 0
EndSplineSet
EndChar

StartChar: semicolon
Encoding: 59 59 30
GlifName: semicolon
Width: 276
Flags: MW
HStem: -86 21G<89 105.5> 182 104<109 160.5> 286 196<109 160.5>
VStem: 42 185<68.5 111.5 68.5 111.5 357.5 411.5>
LayerCount: 2
Back
Fore
SplineSet
42 84 m 0xd0
 42 139 83 182 135 182 c 0
 186 182 227 139 227 84 c 0
 227 53 213 18 185 -21 c 0
 154 -64 122 -86 89 -86 c 1
 94 -76 100 -61 106 -41 c 0
 112 -22 115 -8 115 1 c 1
 74 1 42 43 42 84 c 0xd0
42 384 m 0
 42 439 83 482 135 482 c 0xb0
 186 482 227 439 227 384 c 0
 227 331 186 286 135 286 c 0
 83 286 42 331 42 384 c 0
EndSplineSet
EndChar

StartChar: less
Encoding: 60 60 31
GlifName: less
Width: 386
Flags: MW
HStem: 46 21G<291 306> 575 20G<291 306>
LayerCount: 2
Back
Fore
SplineSet
323 531 m 2
 113 321 l 1
 323 111 l 2
 330 103 334 94 334 85 c 0
 334 64 316 46 296 46 c 0
 286 46 277 50 270 58 c 2
 86 232 l 2
 45 271 25 301 25 321 c 0
 25 341 45 371 86 410 c 2
 270 584 l 2
 277 591 286 595 296 595 c 0
 316 595 334 577 334 557 c 0
 334 547 330 538 323 531 c 2
EndSplineSet
EndChar

StartChar: equal
Encoding: 61 61 32
GlifName: equal
Width: 657
Flags: MW
HStem: 257 75<131.5 513 144 513> 459 75<131.5 513 144 513>
LayerCount: 2
Back
Fore
SplineSet
144 534 m 2
 513 534 l 2
 538 534 550 522 550 497 c 0
 550 472 538 459 513 459 c 2
 144 459 l 2
 119 459 106 472 106 497 c 0
 106 522 119 534 144 534 c 2
144 332 m 2
 513 332 l 2
 538 332 550 320 550 295 c 0
 550 270 538 257 513 257 c 2
 144 257 l 2
 119 257 106 270 106 295 c 0
 106 320 119 332 144 332 c 2
EndSplineSet
EndChar

StartChar: greater
Encoding: 62 62 33
GlifName: greater
Width: 391
Flags: MW
HStem: 46 21G<68.5 83.5> 575 20G<68.5 83.5>
LayerCount: 2
Back
Fore
SplineSet
52 531 m 2
 44 538 40 547 40 557 c 0
 40 577 58 595 79 595 c 0
 88 595 97 591 105 584 c 2
 289 410 l 2
 330 371 350 341 350 321 c 0
 350 301 330 271 289 232 c 2
 105 58 l 2
 97 50 88 46 79 46 c 0
 58 46 40 64 40 85 c 0
 40 94 44 103 52 111 c 2
 262 321 l 1
 52 531 l 2
EndSplineSet
EndChar

StartChar: question
Encoding: 63 63 34
GlifName: question
Width: 449
Flags: MW
HStem: -45 121<200 236.5> 430 231<46.5 237.5> 587 74<194 227.5>
VStem: 22 75 152 101<-1.5 142> 178 75<142 267>
LayerCount: 2
Back
Fore
SplineSet
22 470 m 0xd8
 25 533 46 582 84 616 c 0
 117 646 159 661 208 661 c 0
 267 661 318 642 361 604 c 0
 407 562 428 510 423 448 c 0
 419 401 401 360 369 327 c 0
 337 294 298 274 253 267 c 1
 253 142 l 2
 253 117 240 104 215 104 c 0
 190 104 178 117 178 142 c 2
 178 303 l 2
 178 322 192 335 220 342 c 0
 265 353 291 361 299 366 c 0
 328 383 345 412 348 453 c 0
 351 491 338 523 307 550 c 0
 279 575 246 587 209 587 c 0xb4
 179 587 154 578 134 559 c 0
 111 538 99 507 97 466 c 0
 96 442 83 430 60 430 c 0
 33 430 21 443 22 470 c 0xd8
152 15 m 0xd8
 152 48 182 76 218 76 c 0
 255 76 285 48 285 15 c 0
 285 -18 255 -45 218 -45 c 0
 182 -45 152 -18 152 15 c 0xd8
EndSplineSet
EndChar

StartChar: at
Encoding: 64 64 35
GlifName: at
Width: 697
Flags: MW
HStem: 90 57<305.5 380.5 305.5 388.5> 420 128<394.5 490.5> 507 62<297.5 314.5 297.5 316.5> 672 56<305.5 380.5>
VStem: 14 56<373 445.5 373 453.5> 141 61<380.5 399.5 379.5 440.5> 451 60<406 496 496 509> 615 56<373 445.5>
LayerCount: 2
Back
Fore
SplineSet
374 442 m 0xdf
 363 485 337 507 296 507 c 0xbf
 253 507 215 475 204 419 c 0
 203 411 202 403 202 396 c 0
 202 363 215 336 240 317 c 0
 265 298 296 291 331 295 c 0
 411 304 451 341 451 406 c 2
 451 496 l 2
 451 506 451 511 451 510 c 0
 451 508 451 506 450 505 c 2
 450 518 l 2
 451 538 461 548 480 548 c 0xdf
 501 548 511 538 510 517 c 2
 510 504 l 2
 511 505 511 507 511 509 c 0
 511 510 511 505 511 496 c 2
 511 406 l 2
 511 350 491 307 452 276 c 0
 416 248 370 234 313 234 c 0
 261 234 219 252 186 287 c 0
 156 319 141 358 141 403 c 0
 141 478 189 544 281 567 c 0
 287 568 294 569 301 569 c 0xbf
 328 569 357 556 387 529 c 0
 418 502 433 476 433 449 c 0
 433 430 423 420 402 420 c 0
 387 420 378 427 374 442 c 0xdf
343 728 m 0
 434 728 511 697 575 635 c 0
 639 573 671 498 671 409 c 0
 671 321 639 246 575 183 c 0
 511 121 434 90 343 90 c 0
 252 90 175 121 110 183 c 0
 46 246 14 321 14 409 c 0
 14 498 46 573 110 635 c 0
 175 697 252 728 343 728 c 0
343 672 m 0
 268 672 203 646 150 595 c 0
 97 544 70 482 70 409 c 0
 70 337 97 275 150 224 c 0
 203 173 268 147 343 147 c 0
 418 147 482 173 535 224 c 0
 588 275 615 337 615 409 c 0
 615 482 588 544 535 595 c 0
 482 646 418 672 343 672 c 0
EndSplineSet
EndChar

StartChar: A
Encoding: 65 65 36
GlifName: A_
Width: 452
Flags: MW
HStem: -201 21G<372.5 397.5> 241 75<82 82 157 348> 503 75<40.5 82 53 82 157 273> 503 124<40.5 132.5 53 132.5 107.5 273 107.5 157>
VStem: 16 141 39 118 82 75<-2 241 316 503 578 589> 347 75<-175.5 -163>
LayerCount: 2
Back
Fore
SplineSet
82 -2 m 2xe9
 82 241 l 1xe3
 76 240 l 1
 51 240 39 253 39 278 c 0xe5
 39 303 51 315 76 315 c 1
 82 316 l 1
 82 503 l 1xe3
 53 503 l 2
 28 503 16 515 16 540 c 0xe9
 16 565 28 578 53 578 c 2
 82 578 l 1xe3
 82 589 l 2
 83 614 95 627 120 627 c 0xd3
 145 627 158 614 157 589 c 2
 157 578 l 1
 277 578 l 2
 341 578 383 556 404 513 c 0
 417 487 423 440 423 371 c 2
 422 -163 l 2
 422 -188 410 -201 385 -201 c 0
 360 -201 347 -188 347 -163 c 2
 348 241 l 1
 157 241 l 1
 157 -2 l 2
 157 -27 145 -39 120 -39 c 0
 95 -39 82 -27 82 -2 c 2xe9
157 503 m 1
 157 316 l 1
 348 316 l 1
 348 369 l 2
 349 418 346 450 340 467 c 0
 333 487 311 499 273 503 c 1
 157 503 l 1
EndSplineSet
EndChar

StartChar: B
Encoding: 66 66 37
GlifName: B_
Width: 535
Flags: MW
HStem: -195 75<47.5 126.5 47.5 134.5> 214 90 229 75<187 231.5> 521 73<187 187> 521 111<137 187>
VStem: 1 186 37 150 111 76<304 517 517 517> 400 75<425 425> 446 75<24.5 85.5>
LayerCount: 2
Back
Fore
SplineSet
187 521 m 1xb480
 187 304 l 1
 276 304 337 317 369 344 c 0
 389 361 399 388 400 425 c 0
 401 488 330 520 187 521 c 1xb480
112 1 m 2
 112 225 l 1
 103 218 94 214 83 214 c 0
 58 214 37 236 37 263 c 0xd280
 37 291 58 313 83 313 c 0
 94 313 103 310 111 303 c 1
 111 517 l 1xd180
 102 516 78 516 37 517 c 0xd280
 13 517 1 529 1 553 c 0
 1 579 14 592 39 592 c 0
 68 591 93 591 112 592 c 1
 111 619 124 632 150 632 c 0xcc80
 175 632 187 619 187 594 c 1
 280 595 346 588 387 571 c 0
 446 546 476 497 475 424 c 0xd480
 474 359 444 308 383 272 c 1
 475 235 521 163 521 58 c 0
 521 -42 477 -111 388 -150 c 0
 319 -180 209 -195 60 -195 c 0
 35 -195 22 -183 22 -158 c 0
 22 -133 35 -120 60 -120 c 0
 193 -120 289 -108 348 -83 c 0
 413 -56 446 -9 446 58 c 0xd440
 446 113 421 156 370 187 c 0
 323 216 262 230 187 229 c 1
 187 1 l 2
 187 -24 174 -37 149 -37 c 0
 124 -37 112 -24 112 1 c 2
EndSplineSet
EndChar

StartChar: C
Encoding: 67 67 38
GlifName: C_
Width: 485
Flags: MW
HStem: -61 75<201.5 257.5 190 290> -61 165<201.5 431> 474 163<213.5 410> 562 75<227 273>
VStem: 7 75<228.5 321.5 193.5 329.5>
LayerCount: 2
Back
Fore
SplineSet
455 47 m 0x68
 412 -25 340 -61 240 -61 c 0
 163 -61 104 -28 63 38 c 0
 26 98 7 178 7 279 c 0
 7 380 28 463 69 529 c 0
 114 601 175 637 252 637 c 0
 318 637 377 603 430 536 c 0
 436 529 439 521 439 512 c 0
 439 492 420 474 400 474 c 0xa8
 389 474 379 479 371 489 c 0
 334 538 294 562 252 562 c 0
 202 562 161 536 129 484 c 0
 98 433 82 364 82 279 c 0
 82 108 140 14 240 14 c 0x98
 275 14 302 18 321 25 c 0
 350 36 373 56 390 85 c 0
 397 98 408 104 421 104 c 0
 441 104 460 87 460 67 c 0
 460 60 458 54 455 47 c 0x68
EndSplineSet
EndChar

StartChar: D
Encoding: 68 68 39
GlifName: D_
Width: 523
Flags: MW
HStem: -192 75<47.5 142.5> 525 76<27.5 113 113 187> 525 102<27.5 158.5 139.5 187>
VStem: 2 185 112 75<1 525> 432 75<269 269>
LayerCount: 2
Back
Fore
SplineSet
432 269 m 0xd4
 432 430 350 515 187 525 c 1
 187 -3 l 2
 187 -27 175 -39 151 -39 c 0
 125 -39 112 -26 112 1 c 2
 112 526 l 1xcc
 40 525 l 2
 15 525 2 538 2 563 c 0
 2 588 15 600 40 600 c 2
 113 601 l 1xd4
 118 618 130 627 149 627 c 0xb4
 168 627 180 618 185 601 c 1
 299 594 383 557 438 491 c 0
 485 434 508 360 507 269 c 0
 505 118 474 6 413 -67 c 0
 342 -150 225 -192 60 -192 c 0
 35 -192 22 -180 22 -155 c 0
 22 -130 35 -117 60 -117 c 0
 308 -117 432 12 432 269 c 0xd4
EndSplineSet
EndChar

StartChar: E
Encoding: 69 69 40
GlifName: E_
Width: 502
Flags: MW
HStem: -42 117<65 160> 0 75<52.5 111 65 111 186 442> 265 75<186 403.5> 513 75<396 408.5> 513 107
VStem: 29 157 111 75<-6 -4 -4 0 -16.5 0 75 265 341 514>
LayerCount: 2
Back
Fore
SplineSet
186 0 m 1x74
 186 -4 l 2
 186 -29 173 -42 147 -42 c 0xb4
 122 -42 110 -30 111 -6 c 2
 111 0 l 1
 65 0 l 2x72
 40 0 27 13 27 38 c 0
 27 63 40 75 65 75 c 2
 111 75 l 1
 111 514 l 1xb2
 66 514 l 2
 41 514 29 526 29 551 c 0xb4
 29 576 41 589 66 589 c 2
 111 589 l 1
 113 610 125 620 148 620 c 0xaa
 171 620 183 610 186 589 c 1
 396 588 l 2
 421 588 434 576 434 551 c 0
 434 526 421 513 396 513 c 2
 186 514 l 1
 186 341 l 1
 391 340 l 2
 416 340 428 328 428 303 c 0
 428 278 416 265 391 265 c 2
 186 265 l 1
 186 75 l 1
 442 75 l 2
 467 75 480 63 480 38 c 0
 480 13 467 0 442 0 c 2
 186 0 l 1x74
EndSplineSet
EndChar

StartChar: F
Encoding: 70 70 41
GlifName: F_
Width: 443
Flags: MW
HStem: -34 21G<121 146> 273 75<172 377 172 377> 521 75<51 52 52 97 172 383 51 172> 521 108<39.5 146.5 52 146.5 124 383 124 172>
VStem: 14 158 97 75<2 5 5 273 348 521>
LayerCount: 2
Back
Fore
SplineSet
383 521 m 2xe8
 172 521 l 1
 172 348 l 1
 377 348 l 2
 402 348 414 335 414 310 c 0
 414 285 402 273 377 273 c 2
 172 273 l 1
 172 5 l 2
 172 -21 159 -34 133 -34 c 0
 109 -34 97 -22 97 2 c 2
 97 521 l 1xe4
 52 521 l 2
 27 521 14 534 14 559 c 0
 14 584 26 596 51 596 c 2
 99 596 l 1xe8
 101 618 113 629 135 629 c 0xd8
 158 629 170 618 172 596 c 1
 383 596 l 2
 408 596 420 583 420 558 c 0
 420 533 408 521 383 521 c 2xe8
EndSplineSet
EndChar

StartChar: G
Encoding: 71 71 42
GlifName: G_
Width: 549
Flags: MW
HStem: -40 21G<427 452> -32 75<200.5 272.5> 195 75<260 261 261 401 476 495 495 496 476 476> 503 162<212.5 409> 590 75<226 272>
VStem: 6 75<257.5 350.5 222 358.5> 401 75<-2 16 16 16 128 195> 401 132<128 244.5 195 244.5>
LayerCount: 2
Back
Fore
SplineSet
476 195 m 1x76
 476 -4 l 2
 476 -28 464 -40 440 -40 c 0xb6
 414 -40 401 -27 401 -2 c 2
 401 16 l 1
 360 -16 306 -32 239 -32 c 0
 162 -32 103 1 62 67 c 0
 25 127 6 207 6 308 c 0
 6 409 27 492 68 558 c 0
 113 629 174 665 251 665 c 0
 317 665 376 631 429 564 c 0
 435 557 438 549 438 541 c 0
 438 521 419 503 399 503 c 0x76
 388 503 378 508 370 518 c 0
 333 566 293 590 251 590 c 0
 201 590 160 564 128 513 c 0
 97 462 81 393 81 308 c 0
 81 136 139 43 239 43 c 0
 313 43 367 71 401 128 c 1
 401 195 l 1
 261 195 l 2
 236 195 223 208 223 233 c 0
 223 258 235 270 260 270 c 2
 495 270 l 2
 520 270 533 257 533 232 c 0x6d
 533 207 521 195 496 195 c 2
 476 195 l 1x76
EndSplineSet
EndChar

StartChar: H
Encoding: 72 72 43
GlifName: H_
Width: 508
Flags: MW
HStem: -198 21G<331 356> 290 75<123 307 36.5 123 382 457> 613 20G<74 99>
VStem: 11 112 48 75<-7 4 595 596> 307 75<-162 -159 -159 290 365 587> 307 188<-162 339.5 290 339.5 314.5 590>
LayerCount: 2
Back
Fore
SplineSet
307 365 m 1xf4
 307 590 l 2
 307 614 319 626 343 626 c 0
 369 626 382 613 382 587 c 2
 382 365 l 1xf4
 457 365 l 2
 482 365 495 352 495 327 c 0xf2
 495 302 482 290 457 290 c 2
 382 290 l 1
 382 -159 l 2
 382 -185 369 -198 343 -198 c 0
 319 -198 307 -186 307 -162 c 2
 307 290 l 1
 123 290 l 1
 123 6 l 2
 123 -20 110 -33 84 -33 c 0
 60 -33 48 -21 48 4 c 2xec
 49 289 l 1
 24 289 11 302 11 327 c 0xf4
 11 352 24 365 49 365 c 1
 48 595 l 2xec
 48 620 61 633 87 633 c 0
 111 633 123 621 123 596 c 2
 123 365 l 1
 307 365 l 1xf4
EndSplineSet
EndChar

StartChar: I
Encoding: 73 73 44
GlifName: I_
Width: 379
Flags: MW
HStem: 1 75<41.5 142 54 142 217 325> 554 75<38.5 322 51 142 217 322 217 217>
VStem: 13 204<76 604.5> 142 217<76 604.5 554 604.5>
LayerCount: 2
Back
Fore
SplineSet
217 554 m 1xe0
 217 76 l 1
 325 76 l 2
 350 76 362 63 362 38 c 0
 362 13 350 1 325 1 c 2
 54 1 l 2
 29 1 16 13 16 38 c 0
 16 63 29 76 54 76 c 2
 142 76 l 1
 142 554 l 1
 51 554 l 2
 26 554 13 567 13 592 c 0xe0
 13 617 26 629 51 629 c 2
 322 629 l 2
 347 629 359 617 359 592 c 0xd0
 359 567 347 554 322 554 c 2
 217 554 l 1xe0
EndSplineSet
EndChar

StartChar: J
Encoding: 74 74 45
GlifName: J_
Width: 475
Flags: MW
HStem: -51 75<181 220.5> 528 75<113.5 126 423 435.5> 528 113<335.5 435.5>
VStem: 5 75<133 158 133 173.5> 5 98<123.5 236> 311 75<123 529 116 529> 311 150<123 578.5 529 578.5 553.5 604>
LayerCount: 2
Back
Fore
SplineSet
311 123 m 1xd4
 311 529 l 1
 126 528 l 2
 101 528 89 541 89 566 c 0
 89 591 101 603 126 603 c 2xd4
 311 604 l 1
 310 629 323 641 348 641 c 0
 373 641 386 629 386 604 c 1xb4
 423 603 l 2
 448 603 461 591 461 566 c 0xd2
 461 541 448 528 423 528 c 2
 386 529 l 1
 386 116 l 1
 377 69 355 29 320 -3 c 0
 285 -35 244 -51 197 -51 c 0
 143 -51 97 -31 60 8 c 0
 23 48 5 96 5 151 c 0
 5 196 12 228 25 249 c 0
 34 263 46 270 60 270 c 0
 83 270 103 248 103 224 c 0xcc
 103 217 101 210 97 203 c 0
 86 182 80 165 80 151 c 0
 80 115 91 85 114 60 c 0
 137 36 165 24 197 24 c 0
 250 24 299 66 311 123 c 1xd4
EndSplineSet
EndChar

StartChar: K
Encoding: 75 75 46
GlifName: K_
Width: 440
Flags: MW
HStem: -207 21G<254.5 279.5> 612 20G<55.5 80.5>
VStem: 31 75<4 6 6 224 327 595> 230 75<-169 348 348 348>
LayerCount: 2
Back
Fore
SplineSet
414 534 m 2
 305 424 l 1
 305 -169 l 2
 305 -194 292 -207 267 -207 c 0
 242 -207 230 -194 230 -169 c 2
 230 348 l 1
 106 224 l 1
 106 6 l 2
 106 -19 93 -32 67 -32 c 0
 43 -32 31 -20 31 4 c 2
 31 595 l 2
 31 620 43 632 68 632 c 0
 93 632 106 620 106 595 c 2
 106 327 l 1
 360 582 l 2
 369 590 378 594 389 594 c 0
 408 594 426 578 426 559 c 0
 426 550 422 542 414 534 c 2
EndSplineSet
EndChar

StartChar: L
Encoding: 76 76 47
GlifName: L_
Width: 385
Flags: MW
HStem: -1 75<34.5 66 47 66 141 324> 557 75<26.5 174 174 186.5>
VStem: 1 140<74 606.5> 66 146<74 607.5 558 607.5>
LayerCount: 2
Back
Fore
SplineSet
141 558 m 1xe0
 141 74 l 1
 324 74 l 2
 349 74 362 62 362 37 c 0
 362 12 349 -1 324 -1 c 2
 47 -1 l 2
 22 -1 10 12 10 37 c 0
 10 62 22 75 47 74 c 2
 66 74 l 1
 66 558 l 1
 39 557 l 2
 14 557 1 569 1 594 c 0xe0
 1 619 14 632 39 632 c 2
 174 632 l 2
 199 632 212 620 212 595 c 0xd0
 212 570 199 557 174 557 c 2
 141 558 l 1xe0
EndSplineSet
EndChar

StartChar: M
Encoding: 77 77 48
GlifName: M_
Width: 455
Flags: MW
HStem: -192 21G<372 397> 612 20G<47.5 63> 613 20G<375.5 399.5>
VStem: 14 75<3 397> 348 75<-166 -156>
LayerCount: 2
Back
Fore
SplineSet
198 334 m 1xd8
 349 600 l 1
 352 622 364 633 387 633 c 0xb8
 412 633 424 621 424 597 c 2
 423 -153 l 2
 423 -179 410 -192 384 -192 c 0
 360 -192 348 -180 348 -156 c 2
 349 450 l 1
 236 249 l 1
 276 159 l 2
 279 154 280 148 280 143 c 0
 280 122 261 106 240 106 c 0
 225 106 214 114 207 129 c 2
 89 397 l 1
 89 3 l 2
 89 -22 76 -35 51 -35 c 0
 26 -35 14 -22 14 3 c 2
 14 564 l 1
 9 576 l 2
 6 581 5 587 5 593 c 0
 5 612 15 624 35 629 c 0
 40 631 45 632 50 632 c 0
 76 632 89 619 89 594 c 2
 89 576 l 1
 198 334 l 1xd8
EndSplineSet
EndChar

StartChar: N
Encoding: 78 78 49
GlifName: N_
Width: 395
Flags: MW
HStem: -200 21G<55 80> 611 20G<312.5 337.5>
VStem: 31 75<-164 -161 -161 372 527 588> 287 75<-7 3>
LayerCount: 2
Back
Fore
SplineSet
288 45 m 1
 106 372 l 1
 106 -161 l 2
 106 -187 93 -200 67 -200 c 0
 43 -200 31 -188 31 -164 c 2
 31 588 l 2
 31 613 43 626 68 626 c 0
 93 626 106 613 106 588 c 2
 106 527 l 1
 288 200 l 1
 287 594 l 2
 287 619 300 631 325 631 c 0
 350 631 362 619 362 594 c 2
 362 6 l 2
 362 -20 349 -33 323 -33 c 0
 299 -33 287 -21 287 3 c 2
 288 45 l 1
EndSplineSet
EndChar

StartChar: O
Encoding: 79 79 50
GlifName: O_
Width: 403
Flags: MW
HStem: -20 75<173.5 241.5 167.5 266.5> 560 75<186.5 219.5>
VStem: 16 75<238.5 328 208.5 334> 312 75<218.5 343.5>
LayerCount: 2
Back
Fore
SplineSet
203 635 m 0
 267 635 315 601 347 534 c 0
 374 477 387 399 387 300 c 0
 387 87 327 -20 206 -20 c 0
 141 -20 92 9 59 67 c 0
 30 119 16 192 16 285 c 0
 16 383 30 463 58 526 c 0
 91 599 140 635 203 635 c 0
203 560 m 0
 170 560 144 536 123 489 c 0
 102 439 91 371 91 285 c 0
 91 132 129 55 206 55 c 0
 277 55 312 137 312 300 c 0
 312 387 302 452 281 497 c 0
 262 539 236 560 203 560 c 0
EndSplineSet
EndChar

StartChar: P
Encoding: 80 80 51
GlifName: P_
Width: 509
Flags: MW
HStem: -31 21G<165 189.5> 199 97<100.5 117.5> 212 84 592 74 647 20G<33.5 46> 648 20G<200 200>
VStem: 9 207 68 148<212 260.5> 141 75<6 212 211 212 287 593> 415 75<419.5 458.5>
LayerCount: 2
Back
Fore
SplineSet
46 667 m 2xca40
 200 668 l 1xc640
 256 666 l 2
 321 662 376 638 421 595 c 0
 467 552 490 501 490 440 c 0
 490 375 464 320 412 277 c 0
 361 234 295 213 216 212 c 1
 215 8 l 2
 215 -18 202 -31 177 -31 c 0
 153 -31 141 -19 141 6 c 2
 141 211 l 1xb0c0
 132 203 122 199 113 199 c 0
 88 199 68 222 68 247 c 0xd140
 68 274 88 296 113 296 c 0
 122 296 132 292 141 283 c 1
 141 593 l 1
 46 592 l 2xd0c0
 21 592 9 605 9 630 c 0
 9 655 21 667 46 667 c 2xca40
415 440 m 0xca40
 415 477 401 510 372 539 c 0
 343 568 307 586 263 591 c 2
 216 593 l 1
 216 287 l 1
 275 287 324 303 362 334 c 0
 397 363 415 399 415 440 c 0xca40
EndSplineSet
EndChar

StartChar: Q
Encoding: 81 81 52
GlifName: Q_
Width: 509
Flags: MW
HStem: -197 21G<425 442> -19 75<165.5 209.5 159.5 217.5> 574 75<177 209.5>
VStem: 8 75<239.5 329.5 209.5 336> 145 235<296 309.5> 305 75<276 344.5>
LayerCount: 2
Back
Fore
SplineSet
198 -19 m 0xf4
 133 -19 85 10 52 68 c 0
 23 120 8 193 8 286 c 0
 8 386 22 468 49 533 c 0
 82 610 130 649 193 649 c 0
 257 649 305 613 338 542 c 0
 366 481 380 400 380 301 c 0
 380 211 368 138 343 82 c 1
 466 -141 l 2
 469 -148 471 -154 471 -160 c 0
 471 -181 452 -197 432 -197 c 0
 418 -197 407 -190 400 -177 c 2
 295 15 l 1
 269 -8 237 -19 198 -19 c 0xf4
305 301 m 0
 305 388 294 456 273 505 c 0
 252 551 226 574 193 574 c 0
 161 574 135 548 114 495 c 0
 93 442 83 373 83 286 c 0
 83 133 121 56 198 56 c 0
 221 56 241 65 257 84 c 1
 150 280 l 2
 147 287 145 293 145 299 c 0xf8
 145 320 164 336 184 336 c 0
 198 336 209 329 216 316 c 2
 294 173 l 1
 301 208 305 251 305 301 c 0
EndSplineSet
EndChar

StartChar: R
Encoding: 82 82 53
GlifName: R_
Width: 509
Flags: MW
HStem: -191 21G<361.5 386.5> 203 85 592 75<33.5 46> 648 20G<205 205>
VStem: 9 207 58 158<213 264.5> 141 75<213 224 288 593> 337 75<-153 232 232 232> 415 75<419.5 458.5>
LayerCount: 2
Back
Fore
SplineSet
216 593 m 1xd980
 216 288 l 1
 238 288 l 2
 288 288 330 303 364 333 c 0
 398 364 415 399 415 440 c 0
 415 477 401 510 373 539 c 0
 345 569 309 587 266 593 c 1
 216 593 l 1xd980
490 440 m 0
 490 375 464 321 412 276 c 1
 412 -153 l 2
 412 -178 399 -191 374 -191 c 0
 349 -191 337 -178 337 -153 c 2
 337 232 l 1
 306 219 273 213 238 213 c 2
 216 213 l 1
 215 8 l 2
 215 -18 202 -31 176 -31 c 0
 152 -31 140 -19 140 5 c 2
 141 224 l 1xe380
 132 210 119 203 104 203 c 0
 79 203 58 224 58 251 c 0xe580
 58 278 79 299 104 299 c 0
 119 299 132 292 141 279 c 1
 141 593 l 1xe380
 46 592 l 2
 21 592 9 605 9 630 c 0
 9 655 21 667 46 667 c 2xe980
 205 668 l 1
 263 666 l 2
 326 660 380 636 424 593 c 0
 468 550 490 499 490 440 c 0
EndSplineSet
EndChar

StartChar: S
Encoding: 83 83 54
GlifName: S_
Width: 424
Flags: MW
HStem: -32 67<196.5 228.5 196.5 259.5> -32 230<58.5 259.5> 435 184<178 323> 544 75<185.5 207>
VStem: 6 76<449.5 480> 321 75<114 132.5>
LayerCount: 2
Back
Fore
SplineSet
280 458 m 0xac
 255 515 225 544 189 544 c 0
 182 544 173 543 161 542 c 0
 110 537 82 502 82 461 c 0
 82 410 122 376 197 337 c 0
 241 314 270 297 285 286 c 0
 359 232 396 175 396 115 c 0
 396 102 394 88 390 75 c 0
 369 10 298 -32 221 -32 c 0
 144 -32 90 0 59 64 c 0
 40 105 30 137 30 161 c 0
 30 182 48 198 69 198 c 0x5c
 88 198 99 188 104 169 c 0
 126 80 167 35 226 35 c 0
 231 35 237 35 242 36 c 0
 283 42 308 62 317 95 c 0
 320 102 321 110 321 118 c 0
 321 147 304 176 269 204 c 0
 249 221 214 243 163 270 c 0
 116 295 87 314 74 326 c 0
 56 344 45 355 42 359 c 0
 31 371 23 384 18 399 c 0
 10 419 6 439 6 460 c 0
 6 500 19 535 46 564 c 0
 73 594 109 612 152 617 c 0
 163 618 173 619 183 619 c 0
 256 619 311 575 349 488 c 0
 351 483 352 477 352 472 c 0
 352 451 333 435 313 435 c 0
 298 435 287 443 280 458 c 0xac
EndSplineSet
EndChar

StartChar: T
Encoding: 84 84 55
GlifName: T_
Width: 478
Flags: MW
HStem: -31 21G<226 251> 536 76 614 20G<230.5 247.5>
VStem: 202 75<5 8 8 537>
LayerCount: 2
Back
Fore
SplineSet
48 611 m 2
 205 612 l 1
 210 627 222 634 239 634 c 0
 256 634 268 627 274 612 c 1
 430 612 l 2
 455 612 467 599 467 574 c 0
 467 549 455 537 430 537 c 2
 277 537 l 1
 277 8 l 2
 277 -18 264 -31 238 -31 c 0
 214 -31 202 -19 202 5 c 2
 202 537 l 1
 48 536 l 2
 23 536 10 549 10 574 c 0
 10 599 23 611 48 611 c 2
EndSplineSet
EndChar

StartChar: U
Encoding: 85 85 56
GlifName: U_
Width: 447
Flags: MW
HStem: -40 75<204 249.5> 622 20G<350.5 375.5>
VStem: 56 75<118 536 536 537 117 548.5> 326 75<126 604 126 616.5>
LayerCount: 2
Back
Fore
SplineSet
226 -40 m 0
 182 -40 144 -25 112 6 c 0
 80 37 61 74 56 118 c 1
 56 536 l 2
 56 561 68 574 93 574 c 0
 118 574 131 562 131 537 c 2
 131 117 l 1
 142 69 178 35 226 35 c 0
 278 35 321 75 326 126 c 1
 326 604 l 2
 326 629 338 642 363 642 c 0
 388 642 401 629 401 604 c 2
 401 126 l 2
 398 79 380 40 346 8 c 0
 313 -24 273 -40 226 -40 c 0
EndSplineSet
EndChar

StartChar: V
Encoding: 86 86 57
GlifName: V_
Width: 319
Flags: MW
HStem: -25 21G<144.5 165.5> 615 20G<43.5 65.5>
LayerCount: 2
Back
Fore
SplineSet
115 38 m 1
 17 591 l 2
 13 616 32 635 55 635 c 0
 76 635 88 625 91 604 c 2
 157 227 l 1
 224 600 l 2
 227 621 239 632 260 632 c 0
 283 632 302 614 298 587 c 2
 198 25 l 2
 192 -8 177 -25 154 -25 c 0
 135 -25 123 -14 120 9 c 2
 115 38 l 1
EndSplineSet
EndChar

StartChar: W
Encoding: 87 87 58
GlifName: W_
Width: 509
Flags: MW
HStem: -28 21G<147.5 168.5> -21 21G<349 370.5> 615 20G<43.5 65> 616 20G<453 475> 617 20G<250.5 271.5>
LayerCount: 2
Back
Fore
SplineSet
260 372 m 1x50
 196 9 l 2
 191 -16 179 -28 158 -28 c 0
 137 -28 124 -16 120 9 c 2
 17 591 l 2
 13 616 32 635 55 635 c 0xa0
 75 635 87 625 91 604 c 2
 159 229 l 1
 224 600 l 2
 228 625 240 637 261 637 c 0x48
 282 637 294 625 298 600 c 2
 301 576 l 1
 361 234 l 1
 427 605 l 2
 431 626 443 636 463 636 c 0
 487 636 506 619 501 592 c 2
 400 19 l 2
 395 -8 382 -21 359 -21 c 0
 339 -21 327 -10 323 13 c 2
 260 372 l 1x50
EndSplineSet
EndChar

StartChar: X
Encoding: 88 88 59
GlifName: X_
Width: 474
Flags: MW
HStem: -169 21G 617 20G<30 47.5 383 400>
LayerCount: 2
Back
Fore
SplineSet
369 -148 m 2
 205 183 l 1
 93 -21 l 2
 86 -34 75 -41 61 -41 c 0
 41 -41 22 -24 22 -4 c 0
 22 3 24 9 27 15 c 2
 164 265 l 1
 5 583 l 2
 2 589 1 595 1 601 c 0
 1 621 20 637 40 637 c 0
 55 637 65 630 72 616 c 2
 207 343 l 1
 358 618 l 2
 365 631 376 637 390 637 c 0
 410 637 429 621 429 600 c 0
 429 594 427 588 424 581 c 2
 249 263 l 1
 436 -114 l 2
 439 -120 440 -126 440 -132 c 0
 440 -152 421 -169 401 -169 c 0
 386 -169 376 -162 369 -148 c 2
EndSplineSet
EndChar

StartChar: Y
Encoding: 89 89 60
GlifName: Y_
Width: 485
Flags: MW
HStem: -34 21G<239 264> 635 20G<41.5 57.5 421.5 438>
VStem: 215 75<2 5 5 324 324 324>
LayerCount: 2
Back
Fore
SplineSet
215 2 m 2
 215 324 l 1
 201 337 177 369 143 419 c 0
 92 494 51 553 20 595 c 0
 15 602 12 610 12 617 c 0
 12 638 31 655 52 655 c 0
 63 655 73 650 81 639 c 2
 250 410 l 1
 398 638 l 2
 405 649 415 655 428 655 c 0
 448 655 467 638 467 618 c 0
 467 611 465 604 460 597 c 0
 434 556 398 497 353 422 c 0
 323 371 302 339 290 326 c 1
 290 5 l 2
 290 -21 277 -34 251 -34 c 0
 227 -34 215 -22 215 2 c 2
EndSplineSet
EndChar

StartChar: Z
Encoding: 90 90 61
GlifName: Z_
Width: 561
Flags: MW
HStem: -5 75<77.5 498 164 498 164 498> 534 75<32.5 472 45 400>
LayerCount: 2
Back
Fore
SplineSet
45 609 m 2
 472 609 l 2
 499 609 513 598 513 577 c 0
 513 568 510 559 503 550 c 2
 164 70 l 1
 498 70 l 2
 523 70 535 57 535 32 c 0
 535 7 523 -5 498 -5 c 2
 91 -5 l 2
 64 -5 51 6 51 27 c 0
 51 36 54 45 61 54 c 2
 400 534 l 1
 45 534 l 2
 20 534 8 547 8 572 c 0
 8 597 20 609 45 609 c 2
EndSplineSet
EndChar

StartChar: bracketleft
Encoding: 91 91 62
GlifName: bracketleft
Width: 447
Flags: MW
HStem: -100 75<143 282 191 282 191 282> 670 75<191 282 191 191>
VStem: 116 75<-25 670 -25 707 -25 717> 116 203<-63 -50.5 694.5 707 707 717>
LayerCount: 2
Back
Fore
SplineSet
282 -100 m 2xd0
 153 -100 l 2
 133 -100 116 -83 116 -63 c 2
 116 707 l 2
 116 727 133 745 153 745 c 2
 282 745 l 2
 307 745 319 732 319 707 c 0xd0
 319 682 307 670 282 670 c 2
 191 670 l 1
 191 -25 l 1xe0
 282 -25 l 2
 307 -25 319 -38 319 -63 c 0
 319 -88 307 -100 282 -100 c 2xd0
EndSplineSet
EndChar

StartChar: backslash
Encoding: 92 92 63
GlifName: backslash
Width: 447
Flags: MW
HStem: -31 21G<313.5 332> 734 20G<75 93.5>
LayerCount: 2
Back
Fore
SplineSet
119 728 m 2
 359 19 l 2
 360 14 361 10 361 5 c 0
 361 -15 342 -31 322 -31 c 0
 305 -31 293 -22 287 -5 c 2
 48 704 l 2
 47 709 46 713 46 718 c 0
 46 738 65 754 85 754 c 0
 102 754 114 745 119 728 c 2
EndSplineSet
EndChar

StartChar: bracketright
Encoding: 93 93 64
GlifName: bracketright
Width: 429
Flags: MW
HStem: -100 75<103.5 207 116 207 116 244> 670 75<103.5 244 116 206>
VStem: 78 203<707 717 707 719.5> 206 75<670 717>
LayerCount: 2
Back
Fore
SplineSet
116 -100 m 2xe0
 91 -100 78 -88 78 -63 c 0xe0
 78 -38 91 -25 116 -25 c 2
 207 -25 l 1
 206 670 l 1xd0
 116 670 l 2
 91 670 78 682 78 707 c 0
 78 732 91 745 116 745 c 2
 244 745 l 2
 264 745 281 727 281 707 c 2
 282 -63 l 2
 282 -83 264 -100 244 -100 c 2
 116 -100 l 2xe0
EndSplineSet
EndChar

StartChar: asciicircum
Encoding: 94 94 65
GlifName: asciicircum
Width: 667
Flags: MW
HStem: 217 21G<103 120> 700 20G<321 334.5>
LayerCount: 2
Back
Fore
SplineSet
78 271 m 2
 294 695 l 2
 303 712 314 720 328 720 c 0
 341 720 352 712 361 695 c 2
 577 274 l 2
 580 268 582 262 582 256 c 0
 582 236 563 219 543 219 c 0
 528 219 518 226 511 240 c 2
 328 596 l 1
 145 237 l 2
 138 224 127 217 113 217 c 0
 93 217 74 233 74 253 c 0
 74 259 75 265 78 271 c 2
EndSplineSet
EndChar

StartChar: underscore
Encoding: 95 95 66
GlifName: underscore
Width: 533
Flags: MW
HStem: -74 75<29.5 489 42 489>
LayerCount: 2
Back
Fore
SplineSet
42 1 m 2
 489 1 l 2
 514 1 527 -12 527 -37 c 0
 527 -62 514 -74 489 -74 c 2
 42 -74 l 2
 17 -74 5 -62 5 -37 c 0
 5 -12 17 1 42 1 c 2
EndSplineSet
EndChar

StartChar: grave
Encoding: 96 96 67
GlifName: grave
Width: 591
Flags: MW
HStem: 646 21G<348.5 357.5> 828 20G<254.5 262>
LayerCount: 2
Back
Fore
SplineSet
365 686 m 2
 369 681 371 675 371 669 c 0
 371 654 364 646 351 646 c 0
 346 646 341 648 336 652 c 2
 200 770 l 2
 197 773 196 776 196 781 c 0
 196 792 204 806 220 823 c 0
 236 840 249 848 260 848 c 0
 264 848 267 846 269 843 c 2
 365 686 l 2
EndSplineSet
EndChar

StartChar: a
Encoding: 97 97 68
GlifName: a
Width: 498
Flags: MW
HStem: -25 75<181 245.5 181 254.5> 207 204<321.5 441.5> 317 77<199.5 221.5 199.5 223.5>
VStem: 370 22<232.5 260> 392 75<190 303>
LayerCount: 2
Back
Fore
SplineSet
296 235 m 0xd0
 281 290 249 317 198 317 c 0xb0
 171 317 148 308 127 289 c 0
 104 269 90 242 83 207 c 0
 82 197 81 187 81 178 c 0
 81 101 141 50 221 50 c 0
 270 50 310 61 340 82 c 0
 375 107 392 143 392 190 c 2
 392 303 l 1
 392 338 l 2
 391 347 391 359 391 374 c 0
 392 399 404 411 429 411 c 0xd0
 454 411 467 398 466 373 c 2
 466 338 l 2
 467 328 467 316 467 303 c 2
 467 190 l 2
 467 121 442 67 393 28 c 0
 348 -7 290 -25 219 -25 c 0
 140 -25 80 6 39 69 c 0
 1 128 -6 190 17 255 c 0
 42 326 96 371 179 391 c 0
 187 393 195 394 204 394 c 0xa8
 239 394 275 377 313 344 c 0
 351 311 370 277 370 243 c 0
 370 222 351 207 331 207 c 0
 312 207 301 216 296 235 c 0xd0
EndSplineSet
EndChar

StartChar: b
Encoding: 98 98 69
GlifName: b
Width: 507
Flags: MW
HStem: -24 75 317 76<281.5 290.5 268.5 306.5> 610 20G<50.5 74>
VStem: 20 77 97 23<231.5 259 231.5 302>
LayerCount: 2
Back
Fore
SplineSet
194 234 m 0xf0
 189 215 178 206 159 206 c 0
 138 206 120 221 120 242 c 0xe8
 120 276 139 310 177 343 c 0
 215 376 251 393 286 393 c 0
 295 393 303 392 311 390 c 0
 398 369 453 323 476 251 c 0
 497 184 486 122 442 64 c 0
 395 2 328 -27 240 -24 c 0
 178 -21 128 -4 90 28 c 0
 45 65 22 119 22 189 c 2
 22 302 l 2
 22 407 21 503 20 589 c 0
 19 614 39 630 62 630 c 0
 86 630 98 618 98 595 c 0
 99 578 99 529 98 448 c 0
 97 353 97 305 97 302 c 2
 97 189 l 2
 97 157 111 127 138 98 c 0
 169 67 205 51 248 51 c 0
 292 50 329 61 359 83 c 0
 392 107 408 140 408 181 c 0
 408 190 407 199 406 208 c 0
 400 243 386 270 363 290 c 0
 343 308 320 317 293 317 c 0
 270 317 250 310 233 296 c 0
 214 281 201 261 194 234 c 0xf0
EndSplineSet
EndChar

StartChar: c
Encoding: 99 99 70
GlifName: c
Width: 368
Flags: MW
HStem: -14 59<181.5 213 181.5 213.5> 259 140<198.5 320.5> 328 71<198.5 211>
VStem: 10 71<163 185.5 163 215>
LayerCount: 2
Back
Fore
SplineSet
319 18 m 0xb0
 274 -3 233 -14 194 -14 c 0
 137 -14 92 7 57 50 c 0
 26 89 10 135 10 190 c 0
 10 240 23 283 50 320 c 0
 80 361 122 387 176 397 c 0
 185 398 194 399 203 399 c 0
 261 399 306 367 339 303 c 0
 342 298 344 292 344 287 c 0
 344 268 332 259 309 259 c 0xd0
 290 259 276 267 267 284 c 0
 251 313 227 328 195 328 c 0
 170 328 147 318 127 299 c 0
 105 277 90 246 83 207 c 0
 82 198 81 190 81 181 c 0
 81 145 92 113 114 86 c 0
 137 59 165 45 198 45 c 0
 228 45 259 57 290 81 c 0
 299 85 307 87 314 87 c 0
 338 87 350 77 350 56 c 0
 350 40 340 27 319 18 c 0xb0
EndSplineSet
EndChar

StartChar: d
Encoding: 100 100 71
GlifName: d
Width: 509
Flags: MW
HStem: -25 75<185 249.5 185 258.5> 316 77<203.5 225.5 203.5 227.5> 612 20G<420.5 445.5>
VStem: 374 22<232.5 259.5> 396 75<189 594>
LayerCount: 2
Back
Fore
SplineSet
300 235 m 0xf0
 285 289 253 316 202 316 c 0
 175 316 152 307 131 289 c 0
 108 268 94 241 87 206 c 0
 86 196 85 186 85 177 c 0
 85 100 145 50 225 50 c 0
 274 50 314 60 344 81 c 0
 379 106 396 142 396 189 c 2
 396 595 l 2
 396 620 408 632 433 632 c 0
 458 632 471 619 471 594 c 2
 471 189 l 2xe8
 471 120 446 66 397 27 c 0
 352 -8 294 -25 223 -25 c 0
 144 -25 84 6 43 68 c 0
 5 127 -2 190 21 255 c 0
 46 326 100 371 183 390 c 0
 191 392 199 393 208 393 c 0
 243 393 279 376 317 343 c 0
 355 310 374 276 374 243 c 0
 374 222 355 207 335 207 c 0
 316 207 305 216 300 235 c 0xf0
EndSplineSet
EndChar

StartChar: e
Encoding: 101 101 72
GlifName: e
Width: 458
Flags: MW
HStem: -22 75<216.5 262.5 216.5 275> -22 152<206.5 397> 202 75<151.5 164 151.5 414> 347 75<216.5 266 207.5 266.5>
VStem: 14 75<179.5 220 179.5 230.5>
LayerCount: 2
Back
Fore
SplineSet
164 277 m 2x78
 363 278 l 1
 338 324 296 347 237 347 c 0
 196 347 161 332 132 303 c 0
 103 274 89 240 89 200 c 0
 89 159 103 125 132 96 c 0
 161 67 196 53 237 53 c 0xb8
 288 53 328 73 358 114 c 0
 365 125 375 130 387 130 c 0
 407 130 426 112 426 92 c 0
 426 85 423 77 418 70 c 0
 373 9 313 -22 237 -22 c 0
 176 -22 123 0 79 43 c 0
 36 86 14 139 14 200 c 0
 14 261 36 314 80 357 c 0
 124 400 177 422 238 422 c 0
 294 422 341 406 380 373 c 0
 419 341 442 299 451 246 c 0
 455 222 439 202 414 202 c 2
 164 202 l 2
 139 202 126 215 126 240 c 0
 126 265 139 277 164 277 c 2x78
EndSplineSet
EndChar

StartChar: f
Encoding: 102 102 73
GlifName: f
Width: 429
Flags: MW
HStem: -89 21G<139.5 164.5> 321 75<32.5 115 45 115 190 267> 499 197<235 377.5> 621 75<241 264.5>
VStem: 8 182 115 75<-51 321> 115 190<-51 370.5 321 370.5 345.5 576> 328 75<537 574 524.5 579.5>
LayerCount: 2
Back
Fore
SplineSet
189 579 m 1xd9
 190 396 l 1xe9
 267 396 l 2
 292 396 305 383 305 358 c 0xe3
 305 333 292 321 267 321 c 2
 190 321 l 1
 190 -51 l 2
 190 -76 177 -89 152 -89 c 0
 127 -89 115 -76 115 -51 c 2
 115 321 l 1xe5
 45 321 l 2
 20 321 8 333 8 358 c 0xe9
 8 383 20 396 45 396 c 2
 115 396 l 1
 115 576 l 2
 115 605 129 633 157 658 c 0
 185 683 217 696 253 696 c 0
 290 696 324 686 353 665 c 0
 386 642 403 612 403 574 c 2
 403 537 l 2
 403 512 390 499 365 499 c 0xe5
 340 499 328 512 328 537 c 2
 328 574 l 2
 328 585 322 595 310 604 c 0
 295 615 276 621 253 621 c 0
 229 621 196 602 189 579 c 1xd9
EndSplineSet
EndChar

StartChar: g
Encoding: 103 103 74
GlifName: g
Width: 492
Flags: MW
HStem: -230 75<251.5 281 251.5 288> -82 74<170.5 196.5> 10 75<194.5 239.5 180.5 247> 10 104<194.5 333> 326 75<209.5 262.5>
VStem: 14 75<181.5 247> 391 75<-86 178>
LayerCount: 2
Back
Fore
SplineSet
342 44 m 0xde
 307 21 268 10 226 10 c 0
 163 10 113 27 75 61 c 0
 34 98 14 149 14 214 c 0
 14 280 38 329 86 361 c 0
 126 388 178 401 241 401 c 0
 304 401 357 381 400 340 c 0
 444 297 466 243 466 178 c 2
 466 -86 l 2
 466 -123 445 -157 403 -186 c 0
 361 -215 314 -230 262 -230 c 0
 213 -230 167 -221 126 -204 c 0
 70 -181 42 -149 42 -106 c 0
 42 -71 58 -46 90 -29 c 0
 117 -15 150 -8 191 -8 c 0
 221 -8 247 -11 270 -18 c 0
 287 -23 296 -35 296 -53 c 0
 296 -73 281 -92 260 -92 c 0
 256 -92 252 -91 248 -90 c 0
 231 -85 209 -82 184 -82 c 0
 147 -82 125 -90 117 -106 c 1
 117 -121 139 -133 182 -143 c 0
 215 -151 241 -155 262 -155 c 0
 300 -155 332 -145 359 -125 c 0
 380 -109 391 -96 391 -86 c 2
 391 178 l 2
 391 222 377 258 348 285 c 0
 319 312 284 326 241 326 c 0
 140 326 89 289 89 214 c 0
 89 128 135 85 226 85 c 0xee
 253 85 279 92 302 107 c 0
 309 112 316 114 323 114 c 0
 343 114 360 95 360 75 c 0
 360 62 354 51 342 44 c 0xde
EndSplineSet
EndChar

StartChar: h
Encoding: 104 104 75
GlifName: h
Width: 339
Flags: MW
HStem: -236 21G<272.5 297.5> 266 75<103 171 103 171> 618 20G<52.5 77.5>
VStem: 28 75<4 266 341 600> 247 75<-198 197>
LayerCount: 2
Back
Fore
SplineSet
103 600 m 2
 103 341 l 1
 171 341 l 2
 212 341 248 327 277 299 c 0
 307 271 322 237 322 197 c 2
 322 -198 l 2
 322 -223 310 -236 285 -236 c 0
 260 -236 247 -223 247 -198 c 2
 247 197 l 2
 247 233 214 266 171 266 c 2
 103 266 l 1
 103 4 l 2
 103 -23 91 -37 67 -37 c 0
 47 -37 28 -21 28 4 c 2
 28 600 l 2
 28 625 40 638 65 638 c 0
 90 638 103 625 103 600 c 2
EndSplineSet
EndChar

StartChar: i
Encoding: 105 105 76
GlifName: i
Width: 152
Flags: MW
HStem: -32 21G<61 86> 430 107<63.5 93.5>
VStem: 25 107<468.5 498.5> 37 75<4 370>
LayerCount: 2
Back
Fore
SplineSet
112 370 m 2xd0
 112 4 l 2
 112 -20 99 -32 73 -32 c 0
 49 -32 37 -20 37 4 c 2
 37 370 l 2
 37 395 49 407 74 407 c 0
 99 407 112 395 112 370 c 2xd0
25 484 m 0xe0
 25 513 49 537 78 537 c 0
 109 537 132 513 132 484 c 0
 132 453 109 430 78 430 c 0
 49 430 25 453 25 484 c 0xe0
EndSplineSet
EndChar

StartChar: j
Encoding: 106 106 77
GlifName: j
Width: 322
Flags: MW
HStem: -198 75<124.5 159.5 124.5 160> -198 161<32.5 160> 430 107<228.5 257.5>
VStem: 8 75<-86.5 -61.5 -86.5 -61.5> 189 107<468.5 498.5> 201 75<-74 370>
LayerCount: 2
Back
Fore
SplineSet
201 -74 m 2xb4
 201 370 l 2
 201 395 214 407 239 407 c 0
 264 407 276 395 276 370 c 2
 276 -74 l 2
 276 -109 263 -139 236 -162 c 0
 209 -186 178 -198 142 -198 c 0
 106 -198 75 -186 48 -162 c 0
 21 -139 8 -109 8 -74 c 0
 8 -49 20 -37 45 -37 c 0x74
 70 -37 83 -49 83 -74 c 0
 83 -99 107 -123 142 -123 c 0
 177 -123 201 -99 201 -74 c 2xb4
189 484 m 0xb8
 189 513 214 537 243 537 c 0
 272 537 296 513 296 484 c 0
 296 453 272 430 243 430 c 0
 214 430 189 453 189 484 c 0xb8
EndSplineSet
EndChar

StartChar: k
Encoding: 107 107 78
GlifName: k
Width: 348
Flags: MW
HStem: -224 21G<270.5 292.5> 237 75<103 181 103 173> 618 20G<52.5 77.5>
VStem: 28 75<-2 237 312 600>
LayerCount: 2
Back
Fore
SplineSet
103 237 m 1
 103 -2 l 2
 103 -29 91 -43 67 -43 c 0
 47 -43 28 -27 28 -2 c 2
 28 600 l 2
 28 625 40 638 65 638 c 0
 90 638 103 625 103 600 c 2
 103 312 l 1
 181 312 l 1
 245 408 l 2
 252 419 262 425 275 425 c 0
 295 425 314 408 314 388 c 0
 314 381 312 373 307 366 c 0
 296 345 274 313 243 268 c 1
 319 -180 l 2
 323 -207 304 -224 281 -224 c 0
 260 -224 248 -214 245 -193 c 2
 173 237 l 1
 103 237 l 1
EndSplineSet
EndChar

StartChar: l
Encoding: 108 108 79
GlifName: l
Width: 138
Flags: MW
HStem: -94 21G<52.5 77.5> 618 20G<52.5 77.5>
VStem: 28 75<-57 600>
LayerCount: 2
Back
Fore
SplineSet
103 600 m 2
 103 -57 l 2
 103 -82 90 -94 65 -94 c 0
 40 -94 28 -82 28 -57 c 2
 28 600 l 2
 28 625 40 638 65 638 c 0
 90 638 103 625 103 600 c 2
EndSplineSet
EndChar

StartChar: m
Encoding: 109 109 80
GlifName: m
Width: 648
Flags: MW
HStem: -185 21G<559 584> 331 75<161.5 211.5 419.5 468.5>
VStem: 14 75<4 262> 274 75<4 257> 535 75<-149 -146 -146 258>
LayerCount: 2
Back
Fore
SplineSet
184 406 m 0
 241 406 284 388 315 353 c 1
 349 388 393 406 446 406 c 0
 491 406 529 392 561 364 c 0
 594 336 610 301 610 258 c 2
 610 -146 l 2
 610 -172 597 -185 571 -185 c 0
 547 -185 535 -173 535 -149 c 2
 535 258 l 2
 535 297 499 331 446 331 c 0
 390 331 349 294 349 257 c 2
 349 4 l 2
 349 -21 336 -34 311 -34 c 0
 286 -34 274 -21 274 4 c 2
 274 262 l 2
 274 301 239 331 184 331 c 0
 128 331 89 299 89 262 c 2
 89 4 l 2
 89 -21 77 -34 52 -34 c 0
 27 -34 14 -21 14 4 c 2
 14 262 l 2
 14 305 32 340 67 368 c 0
 100 393 139 406 184 406 c 0
EndSplineSet
EndChar

StartChar: n
Encoding: 110 110 81
GlifName: n
Width: 377
Flags: MW
HStem: -200 21G<298.5 323.5> 334 75<161.5 206.5 161.5 210.5>
VStem: 14 75<2 260> 273 75<-162 260>
LayerCount: 2
Back
Fore
SplineSet
14 2 m 2
 14 260 l 2
 14 303 32 339 67 368 c 0
 100 395 139 409 184 409 c 0
 229 409 267 395 299 367 c 0
 332 339 348 303 348 260 c 2
 348 -162 l 2
 348 -187 336 -200 311 -200 c 0
 286 -200 273 -187 273 -162 c 2
 273 260 l 2
 273 300 237 334 184 334 c 0
 128 334 89 299 89 260 c 2
 89 2 l 2
 89 -23 76 -35 51 -35 c 0
 26 -35 14 -23 14 2 c 2
EndSplineSet
EndChar

StartChar: o
Encoding: 111 111 82
GlifName: o
Width: 481
Flags: MW
HStem: -19 75<220.5 261.5 220.5 272> 355 75<220.5 261.5>
VStem: 16 75<184.5 225.5 184.5 236.5> 391 75<184.5 225.5>
LayerCount: 2
Back
Fore
SplineSet
241 430 m 0
 303 430 356 408 400 364 c 0
 444 321 466 268 466 205 c 0
 466 143 444 90 400 46 c 0
 356 3 303 -19 241 -19 c 0
 179 -19 126 3 82 46 c 0
 38 90 16 143 16 205 c 0
 16 268 38 321 82 364 c 0
 126 408 179 430 241 430 c 0
241 355 m 0
 200 355 164 340 135 311 c 0
 106 282 91 246 91 205 c 0
 91 164 106 128 135 99 c 0
 164 70 200 56 241 56 c 0
 282 56 318 70 347 99 c 0
 376 128 391 164 391 205 c 0
 391 246 376 282 347 311 c 0
 318 340 282 355 241 355 c 0
EndSplineSet
EndChar

StartChar: p
Encoding: 112 112 83
GlifName: p
Width: 509
Flags: MW
HStem: -203 21G<48 73> -22 76<268.5 290.5> 321 75<244 308.5>
VStem: 22 75<-165 181> 97 23<111 138.5 111 181>
LayerCount: 2
Back
Fore
SplineSet
194 136 m 0xe8
 208 81 241 54 292 54 c 0
 345 54 394 94 406 165 c 0
 408 174 409 184 409 193 c 0
 409 272 348 321 269 321 c 0
 219 321 179 310 149 289 c 0
 114 265 97 229 97 181 c 2
 97 -167 l 2
 97 -191 85 -203 61 -203 c 0
 35 -203 22 -190 22 -165 c 2
 22 181 l 2xf0
 22 251 47 305 97 344 c 0
 142 379 199 396 270 396 c 0
 350 396 410 365 450 302 c 0
 489 243 496 181 473 116 c 0
 448 45 394 0 311 -19 c 0
 303 -21 295 -22 286 -22 c 0
 251 -22 215 -6 177 27 c 0
 139 60 120 94 120 128 c 0
 120 149 138 164 159 164 c 0
 178 164 189 155 194 136 c 0xe8
EndSplineSet
EndChar

StartChar: q
Encoding: 113 113 84
GlifName: q
Width: 509
Flags: MW
HStem: -202 21G<425 450> -21 76<207 228.5>
VStem: 377 23<112 139.5> 400 75<-164 70 70 182>
LayerCount: 2
Back
Fore
SplineSet
303 137 m 0xe0
 308 156 319 165 338 165 c 0
 359 165 377 150 377 129 c 0xe0
 377 95 358 61 320 28 c 0
 282 -5 246 -21 211 -21 c 0
 203 -21 195 -20 187 -18 c 0
 100 2 44 49 20 122 c 0
 -2 190 9 253 52 312 c 0
 99 375 166 404 253 399 c 0
 314 396 364 377 404 344 c 0
 451 305 475 251 475 182 c 2
 475 70 l 2
 475 -86 475 -164 475 -164 c 2xd0
 476 -189 463 -202 437 -202 c 0
 413 -202 401 -190 400 -165 c 2
 400 182 l 2
 400 224 383 258 349 284 c 0
 321 305 288 318 249 321 c 0
 204 325 166 315 135 292 c 0
 104 269 88 236 88 194 c 0
 88 185 89 175 91 166 c 0
 97 131 111 103 134 83 c 0
 155 64 178 55 205 55 c 0
 256 55 289 82 303 137 c 0xe0
EndSplineSet
EndChar

StartChar: r
Encoding: 114 114 85
GlifName: r
Width: 377
Flags: MW
HStem: -35 21G<38.5 63.5> 334 75<161.5 206.5 161.5 210.5>
VStem: 14 75<2 260> 273 78<246 280>
LayerCount: 2
Back
Fore
SplineSet
184 409 m 0
 229 409 268 395 301 367 c 0
 334 339 351 303 351 260 c 0
 351 230 338 215 313 215 c 0
 292 215 273 232 273 260 c 0
 273 300 237 334 184 334 c 0
 128 334 89 299 89 260 c 2
 89 2 l 2
 89 -23 76 -35 51 -35 c 0
 26 -35 14 -23 14 2 c 2
 14 260 l 2
 14 303 32 339 67 368 c 0
 100 395 139 409 184 409 c 0
EndSplineSet
EndChar

StartChar: s
Encoding: 115 115 86
GlifName: s
Width: 368
Flags: MW
HStem: -34 74<228 243.5 228 246> 142 73 324 75
VStem: 9 75<261 261> 279 74<84.5 113.5 79.5 114.5>
LayerCount: 2
Back
Fore
SplineSet
261 290 m 0
 236 313 208 325 178 324 c 0
 115 321 84 300 84 260 c 0
 84 239 90 227 101 222 c 0
 115 216 137 213 167 214 c 2
 236 217 l 2
 273 218 302 206 324 181 c 0
 343 158 353 130 353 97 c 0
 353 62 342 32 321 7 c 0
 298 -20 266 -34 226 -34 c 0
 215 -34 203 -33 192 -31 c 0
 160 -25 135 -18 117 -10 c 2
 53 24 l 2
 39 31 32 43 32 58 c 0
 32 81 49 102 70 102 c 0
 76 102 82 100 87 97 c 0
 131 72 175 41 228 40 c 0
 259 40 279 69 279 100 c 0
 279 129 265 143 238 142 c 0
 176 141 150 140 159 140 c 1
 114 140 80 147 58 161 c 0
 29 180 12 213 9 261 c 0
 6 308 25 343 66 368 c 0
 97 387 133 397 175 399 c 0
 226 400 271 382 312 345 c 0
 320 338 324 329 324 318 c 0
 324 298 306 280 286 280 c 0
 277 280 268 283 261 290 c 0
EndSplineSet
EndChar

StartChar: t
Encoding: 116 116 87
GlifName: t
Width: 325
Flags: MW
HStem: -31 21G<142.5 167.5> 292 75<29.5 118 42 117 42 192 193 264> 292 117<29.5 167.5 42 167.5 142.5 192 142.5 264>
VStem: 5 187 117 75<6 292> 117 185<6 341.5 292 341.5>
LayerCount: 2
Back
Fore
SplineSet
117 6 m 2xd0
 117 292 l 1xc8
 42 292 l 2
 17 292 5 304 5 329 c 0
 5 354 17 367 42 367 c 2
 118 367 l 1xd0
 118 372 l 2
 118 397 130 409 155 409 c 0xb0
 180 409 193 397 193 372 c 2
 193 367 l 1
 264 367 l 2
 289 367 302 354 302 329 c 0xc4
 302 304 289 292 264 292 c 2
 192 292 l 1
 192 6 l 2
 192 -19 180 -31 155 -31 c 0
 130 -31 117 -19 117 6 c 2xd0
EndSplineSet
EndChar

StartChar: u
Encoding: 117 117 88
GlifName: u
Width: 377
Flags: MW
HStem: -32 75<164.5 209.5> 556 20G<300.5 325.5>
VStem: 16 75<116 374> 276 75<116 538>
LayerCount: 2
Back
Fore
SplineSet
16 374 m 2
 16 399 29 412 54 412 c 0
 79 412 91 399 91 374 c 2
 91 116 l 2
 91 79 131 43 187 43 c 0
 240 43 276 76 276 116 c 2
 276 538 l 2
 276 563 288 576 313 576 c 0
 338 576 351 563 351 538 c 2
 351 116 l 2
 351 73 335 37 302 9 c 0
 270 -18 232 -32 187 -32 c 0
 142 -32 103 -19 70 8 c 0
 34 37 16 73 16 116 c 2
 16 374 l 2
EndSplineSet
EndChar

StartChar: v
Encoding: 118 118 89
GlifName: v
Width: 377
Flags: MW
HStem: -40 21G<197.5 215> 546 20G<315.5 335>
LayerCount: 2
Back
Fore
SplineSet
87 409 m 2
 195 130 l 1
 289 537 l 2
 294 556 306 566 325 566 c 0
 345 566 363 551 363 530 c 0
 363 527 363 523 362 520 c 2
 241 -5 l 2
 236 -28 224 -40 206 -40 c 0
 189 -40 177 -30 170 -10 c 2
 17 382 l 2
 15 387 14 392 14 397 c 0
 14 418 33 433 53 433 c 0
 69 433 80 425 87 409 c 2
EndSplineSet
EndChar

StartChar: w
Encoding: 119 119 90
GlifName: w
Width: 590
Flags: MW
HStem: -52 21G<399 416.5> 534 20G<516.5 536.5>
LayerCount: 2
Back
Fore
SplineSet
289 190 m 1
 241 -5 l 2
 235 -28 223 -40 205 -40 c 0
 189 -40 177 -30 170 -10 c 2
 17 382 l 2
 15 387 14 392 14 397 c 0
 14 418 33 433 53 433 c 0
 69 433 80 425 87 409 c 2
 195 130 l 1
 240 314 l 1
 219 370 l 2
 217 375 216 380 216 385 c 0
 216 406 234 422 255 422 c 0
 271 422 282 414 288 398 c 2
 397 119 l 1
 491 525 l 2
 496 544 507 554 526 554 c 0
 547 554 565 539 565 518 c 0
 565 515 565 511 564 508 c 2
 443 -16 l 2
 438 -40 426 -52 407 -52 c 0
 391 -52 379 -42 371 -22 c 2
 289 190 l 1
EndSplineSet
EndChar

StartChar: x
Encoding: 120 120 91
GlifName: x
Width: 475
Flags: MW
HStem: -212 21G<389.5 406> 430 20G<351 367>
LayerCount: 2
Back
Fore
SplineSet
141 175 m 1
 15 384 l 2
 10 391 8 397 8 404 c 0
 8 424 28 441 48 441 c 0
 61 441 71 435 79 423 c 2
 189 241 l 1
 328 434 l 2
 335 445 345 450 357 450 c 0
 377 450 396 432 396 412 c 0
 396 405 393 397 388 390 c 2
 231 172 l 1
 429 -155 l 2
 433 -162 435 -168 435 -175 c 0
 435 -196 416 -212 396 -212 c 0
 383 -212 372 -206 365 -194 c 2
 184 106 l 1
 91 -22 l 2
 84 -33 74 -39 62 -39 c 0
 42 -39 23 -21 23 -1 c 0
 23 7 26 14 31 21 c 2
 141 175 l 1
EndSplineSet
EndChar

StartChar: y
Encoding: 121 121 92
GlifName: y
Width: 492
Flags: MW
HStem: -230 75<251.5 281 251.5 288> -82 74<170.5 197.5> 50 74<359 392> 352 20G<175 200>
VStem: 149 75<291.5 332 332 345.5> 391 75<-91 -86>
LayerCount: 2
Back
Fore
SplineSet
391 -86 m 2
 392 50 l 1
 311 51 254 59 219 74 c 0
 172 95 149 134 149 191 c 2
 149 332 l 2
 149 359 162 372 188 372 c 0
 212 372 224 359 224 332 c 0
 224 251 226 201 230 181 c 0
 236 152 251 135 274 129 c 0
 287 126 326 124 392 124 c 1
 391 329 l 2
 391 354 404 367 429 367 c 0
 454 367 466 354 466 329 c 2
 466 -86 l 2
 466 -123 445 -156 403 -185 c 0
 361 -215 314 -230 262 -230 c 0
 213 -230 168 -221 126 -204 c 0
 70 -181 42 -149 42 -106 c 0
 42 -71 58 -46 90 -29 c 0
 117 -15 150 -8 191 -8 c 0
 221 -8 247 -11 270 -18 c 0
 287 -23 296 -35 296 -53 c 0
 296 -73 281 -92 260 -92 c 0
 256 -92 252 -91 248 -90 c 0
 231 -85 210 -82 185 -82 c 0
 148 -82 125 -90 117 -106 c 1
 117 -121 139 -133 182 -143 c 0
 215 -151 241 -155 262 -155 c 0
 300 -155 332 -145 359 -125 c 0
 380 -109 391 -96 391 -86 c 2
EndSplineSet
EndChar

StartChar: z
Encoding: 122 122 93
GlifName: z
Width: 440
Flags: MW
HStem: -28 75<154 391 154 391> 318 75<29.5 360 42 280>
LayerCount: 2
Back
Fore
SplineSet
42 393 m 2
 360 393 l 2
 387 393 401 382 401 361 c 0
 401 351 397 341 388 331 c 2
 154 47 l 1
 391 47 l 2
 416 47 429 34 429 9 c 0
 429 -16 416 -28 391 -28 c 2
 74 -28 l 2
 47 -28 33 -18 33 3 c 0
 33 13 37 23 45 33 c 2
 280 318 l 1
 42 318 l 2
 17 318 5 330 5 355 c 0
 5 380 17 393 42 393 c 2
EndSplineSet
EndChar

StartChar: braceleft
Encoding: 123 123 94
GlifName: braceleft
Width: 447
Flags: MW
HStem: -94 75<282 293.5 281 294.5> 667 75
VStem: 24 171<348.5 447> 98 75 98 97<418.5 587> 98 221 98 233<536 715.5>
LayerCount: 2
Back
Fore
SplineSet
194 270 m 0xc8
 180 224 173 178 173 131 c 0xd0
 173 30 209 -20 281 -19 c 0
 306 -19 319 -32 319 -57 c 0xc4
 319 -82 307 -94 282 -94 c 0
 217 -95 169 -72 138 -25 c 0
 112 14 99 67 99 134 c 0
 99 186 106 237 121 287 c 1
 61 317 l 2
 36 330 24 343 24 354 c 0xe0
 24 369 44 386 85 403 c 0
 94 406 106 412 121 420 c 1
 106 469 98 515 98 557 c 0
 98 617 114 663 145 696 c 0
 179 731 229 747 296 742 c 0
 319 740 331 727 331 704 c 0xc2
 331 683 315 664 290 667 c 0
 216 672 179 645 179 586 c 0
 179 571 182 547 187 513 c 0
 192 480 195 455 195 439 c 0
 195 398 182 369 155 353 c 1
 184 338 198 318 198 295 c 0
 198 287 197 279 194 270 c 0xc8
EndSplineSet
EndChar

StartChar: bar
Encoding: 124 124 95
GlifName: bar
Width: 447
Flags: MW
HStem: -34 21G<168.5 193.5> 647 20G<168.5 193.5>
VStem: 143 75<4 629>
LayerCount: 2
Back
Fore
SplineSet
143 4 m 2
 143 629 l 2
 143 654 156 667 181 667 c 0
 206 667 218 654 218 629 c 2
 218 4 l 2
 218 -21 206 -34 181 -34 c 0
 156 -34 143 -21 143 4 c 2
EndSplineSet
EndChar

StartChar: braceright
Encoding: 125 125 96
GlifName: braceright
Width: 447
Flags: MW
HStem: -93 75<99.5 111>
VStem: 62 232 74 220<-68.5 161.5> 199 95 220 74<102.5 155.5>
LayerCount: 2
Back
Fore
SplineSet
199 271 m 0x90
 196 280 195 289 195 296 c 0
 195 319 210 339 239 354 c 1
 212 371 199 399 199 440 c 0x90
 199 457 201 482 206 515 c 0
 211 549 214 573 214 587 c 0
 214 647 177 674 103 668 c 0
 78 667 62 685 62 706 c 0xc0
 62 729 74 741 97 743 c 0
 164 748 214 733 248 697 c 0
 279 665 295 619 295 558 c 0
 295 516 287 470 272 421 c 1
 287 413 299 407 308 404 c 0
 349 387 369 370 369 355 c 0
 369 344 357 331 332 318 c 2
 272 288 l 1
 287 238 294 187 294 136 c 0
 294 69 281 16 255 -23 c 0
 224 -71 176 -94 111 -93 c 0
 86 -93 74 -81 74 -56 c 0xa0
 74 -31 87 -18 112 -18 c 0
 184 -19 220 31 220 132 c 0x88
 220 179 213 225 199 271 c 0x90
EndSplineSet
EndChar

StartChar: asciitilde
Encoding: 126 126 97
GlifName: asciitilde
Width: 602
Flags: MW
HStem: 70 93<358 358> 260 20G<200.5 217>
LayerCount: 2
Back
Fore
SplineSet
44 163 m 0
 63 186 81 210 100 234 c 0
 122 257 149 272 182 278 c 0
 189 279 197 280 204 280 c 0
 230 280 253 270 274 250 c 0
 280 245 295 226 318 194 c 0
 333 173 346 163 359 163 c 0
 383 163 405 196 469 260 c 0
 478 269 489 273 500 273 c 0
 525 273 548 249 548 224 c 0
 548 211 542 199 531 190 c 2
 458 113 l 2
 430 86 397 72 358 70 c 0
 327 68 300 77 278 97 c 0
 267 106 253 125 234 153 c 0
 221 174 209 184 199 184 c 0
 184 184 165 168 142 136 c 0
 117 102 94 85 73 85 c 0
 49 85 34 108 34 133 c 0
 34 146 37 156 44 163 c 0
EndSplineSet
EndChar

StartChar: dagger
Encoding: 8224 8224 98
GlifName: dagger
Width: 417
Flags: MW
HStem: -149 21G<201.5 216.5> 292 45<69.5 186 77 186 231 340> 292 201<69.5 216.5 77 216.5 201.5 231 201.5 340>
VStem: 55 176 186 45<-126 292 337 471> 186 176<-126 322.5 292 322.5 307.5 471 307.5 478.5>
LayerCount: 2
Back
Fore
SplineSet
186 -126 m 2xd0
 186 292 l 1xc8
 77 292 l 2
 62 292 55 300 55 315 c 0xd0
 55 330 62 337 77 337 c 2
 186 337 l 1xc8
 186 471 l 2
 186 486 194 493 209 493 c 0xa8
 224 493 231 486 231 471 c 2
 231 337 l 1xd0
 340 337 l 2
 355 337 362 330 362 315 c 0xc4
 362 300 355 292 340 292 c 2
 231 292 l 1
 231 -126 l 2
 231 -141 224 -149 209 -149 c 0
 194 -149 186 -141 186 -126 c 2xd0
EndSplineSet
EndChar

StartChar: cent
Encoding: 162 162 99
GlifName: cent
Width: 443
Flags: MW
HStem: 38 21G<217.5 242.5> 759 20G<217.5 242.5>
VStem: 21 171 103 89 192 75<63.5 76 742 754.5>
LayerCount: 2
Back
Fore
SplineSet
377 174 m 0xc8
 336 151 300 137 267 132 c 1
 267 76 l 2xc8
 267 51 255 38 230 38 c 0
 205 38 192 51 192 76 c 2
 193 135 l 1
 139 147 96 181 65 236 c 0
 36 287 21 347 21 414 c 0xe0
 21 479 35 536 63 586 c 0
 94 641 137 677 193 695 c 1
 192 742 l 2
 192 767 205 779 230 779 c 0
 255 779 267 767 267 742 c 2
 268 702 l 1
 323 691 367 648 400 571 c 0
 403 563 405 555 405 548 c 0
 405 523 392 510 365 510 c 0
 343 510 327 522 316 545 c 0
 305 571 289 589 268 598 c 1
 267 216 l 1
 292 223 317 238 344 263 c 0
 353 268 362 270 371 270 c 0
 395 270 411 251 411 227 c 0
 411 205 400 187 377 174 c 0xc8
192 595 m 1
 193 223 l 1
 138 250 103 323 103 402 c 0xd0
 103 413 104 425 106 437 c 0
 118 518 147 571 192 595 c 1
EndSplineSet
EndChar

StartChar: sterling
Encoding: 163 163 100
GlifName: sterling
Width: 567
Flags: MW
HStem: -31 75<55 414 130 414 130 414> 272 75<70.5 201 83 163 285 365 83 248> 444 197<402 519.5> 565 76<419.5 440.5>
LayerCount: 2
Back
Fore
SplineSet
285 347 m 1xd0
 365 347 l 2
 390 347 403 334 403 309 c 0
 403 284 390 272 365 272 c 2
 248 272 l 1
 130 44 l 1
 414 44 l 2
 439 44 452 32 452 7 c 0
 452 -18 439 -31 414 -31 c 2
 68 -31 l 2
 42 -31 29 -20 29 1 c 0
 29 8 31 16 35 24 c 0
 58 67 100 150 163 272 c 1
 83 272 l 2
 58 272 45 284 45 309 c 0
 45 334 58 347 83 347 c 2
 201 347 l 1
 309 559 l 2
 336 614 376 641 428 641 c 0
 485 641 534 598 541 523 c 0
 546 470 534 444 505 444 c 0xe0
 482 444 470 456 469 480 c 0
 468 509 466 527 465 532 c 0
 460 554 449 565 432 565 c 0
 407 565 389 552 376 526 c 2
 285 347 l 1xd0
EndSplineSet
EndChar

StartChar: section
Encoding: 167 167 101
GlifName: section
Width: 441
Flags: MW
HStem: -65 75<228.5 262.5 228.5 274.5> 537 78<166.5 215.5>
VStem: 49 70 315 75<232 245> 336 75<70 82 59.5 86>
LayerCount: 2
Back
Fore
SplineSet
300 202 m 0xf0
 310 215 315 226 315 237 c 0
 315 253 304 268 282 281 c 2
 224 310 l 1
 168 333 l 1
 139 302 126 280 127 266 c 0
 127 261 133 251 145 238 c 0
 158 225 170 216 181 212 c 0
 196 207 215 203 238 202 c 2
 295 196 l 2
 295 197 297 199 300 202 c 0xf0
400 121 m 0
 407 106 411 90 411 74 c 0
 411 45 399 16 375 -14 c 0
 347 -48 304 -65 245 -65 c 0
 212 -65 179 -56 146 -37 c 0
 116 -19 91 4 70 33 c 0
 65 42 55 56 40 75 c 0
 34 83 31 91 31 99 c 0
 31 120 49 137 70 137 c 0
 81 137 90 132 98 123 c 0
 117 98 137 73 157 48 c 0
 182 23 212 10 245 10 c 0
 280 10 304 18 317 34 c 0
 330 50 336 64 336 76 c 0xe8
 336 96 317 110 278 119 c 2
 190 133 l 2
 157 142 126 159 97 185 c 0
 65 214 49 243 49 272 c 0
 49 294 58 315 77 334 c 0
 84 340 93 348 104 359 c 1
 57 384 37 422 42 471 c 0
 46 506 53 531 62 547 c 0
 77 573 105 593 146 606 c 0
 165 612 184 615 201 615 c 0
 230 615 258 607 286 590 c 0
 303 580 327 561 358 533 c 0
 369 524 375 512 375 497 c 0
 375 474 362 456 345 456 c 0
 338 456 332 459 325 465 c 0
 307 481 285 496 258 510 c 0
 225 528 197 537 175 537 c 0
 158 537 145 531 138 520 c 0
 125 501 119 485 119 470 c 0
 119 448 133 430 161 416 c 0
 166 414 191 405 236 390 c 0
 339 355 390 304 390 238 c 0
 390 226 389 213 386 200 c 0
 382 185 376 173 367 166 c 1
 379 156 390 141 400 121 c 0
EndSplineSet
EndChar

StartChar: bullet
Encoding: 8226 8226 102
GlifName: bullet
Width: 423
Flags: MW
HStem: 252 21G<182.5 231.5> 595 20G<182.5 231.5>
LayerCount: 2
Back
Fore
SplineSet
28 433 m 0
 28 483 45 526 80 561 c 0
 115 597 158 615 207 615 c 0
 256 615 298 597 333 561 c 0
 368 526 386 483 386 433 c 0
 386 383 368 340 333 305 c 0
 298 270 256 252 207 252 c 0
 158 252 115 270 80 305 c 0
 45 340 28 383 28 433 c 0
EndSplineSet
EndChar

StartChar: paragraph
Encoding: 182 182 103
GlifName: paragraph
Width: 627
Flags: MW
HStem: -138 21G<264.5 289.5> 536 75<314 464 314 464 539 577> 536 113<314 513.5 488.5 539 488.5 577> 628 20G<265 290>
VStem: 239 75<-101 267 267 267 611 622.5> 464 75<-98 536 611 623.5> 464 150<-98 586.5 536 586.5 561.5 623.5>
LayerCount: 2
Back
Fore
SplineSet
464 -98 m 2xdc
 464 536 l 1
 314 536 l 1
 314 -101 l 2
 314 -126 302 -138 277 -138 c 0
 252 -138 239 -126 239 -101 c 2
 239 267 l 1
 172 267 124 275 93 291 c 0
 44 316 20 365 20 438 c 0
 20 502 44 548 93 577 c 0
 130 599 179 610 239 610 c 1
 239 635 252 648 278 648 c 0
 302 648 314 636 314 611 c 1
 464 611 l 1xdc
 464 636 476 649 501 649 c 0xac
 526 649 539 636 539 611 c 1xdc
 577 611 l 2
 602 611 614 599 614 574 c 0xda
 614 549 602 536 577 536 c 2
 539 536 l 1
 539 -98 l 2
 539 -123 527 -136 502 -136 c 0
 477 -136 464 -123 464 -98 c 2xdc
EndSplineSet
EndChar

StartChar: germandbls
Encoding: 223 223 104
GlifName: germandbls
Width: 462
Flags: MW
HStem: -135 21G<67.5 92.5> -31 74<181.5 232.5 178.5 234.5> 581 75<186.5 224.5>
VStem: 42 75<429 437> 156 197<307.5 498.5> 280 73<458 498.5 445 500.5>
LayerCount: 2
Back
Fore
SplineSet
43 -98 m 2xf4
 42 437 l 1
 51 502 63 551 80 582 c 0
 106 631 147 656 202 656 c 0
 249 656 287 637 315 599 c 0
 340 565 353 523 353 474 c 0
 353 416 336 370 302 335 c 1
 383 291 434 212 434 137 c 0
 434 89 415 50 378 20 c 0
 335 -14 274 -31 195 -31 c 0
 168 -31 155 -18 155 9 c 0
 155 32 167 43 190 43 c 0
 275 43 327 64 347 105 c 0
 364 140 357 179 325 220 c 0
 294 262 257 283 215 283 c 0
 210 283 206 283 202 282 c 0
 174 277 156 297 156 318 c 0xf8
 156 338 167 350 188 355 c 0
 219 362 242 377 259 400 c 0
 273 420 280 444 280 472 c 0
 280 529 247 581 202 581 c 0
 171 581 149 562 135 524 c 0
 129 507 123 475 117 429 c 1
 118 -98 l 2
 118 -123 105 -135 80 -135 c 0
 55 -135 43 -123 43 -98 c 2xf4
EndSplineSet
EndChar

StartChar: acute
Encoding: 180 180 105
GlifName: acute
Width: 591
Flags: MW
HStem: 646 21G<207.5 216.5> 828 20G<303.5 311.5>
LayerCount: 2
Back
Fore
SplineSet
200 686 m 2
 296 843 l 2
 298 846 301 848 306 848 c 0
 317 848 330 840 345 823 c 0
 361 806 369 792 369 781 c 0
 369 776 368 773 365 770 c 2
 230 652 l 2
 225 648 219 646 214 646 c 0
 201 646 195 654 195 669 c 0
 195 675 197 681 200 686 c 2
EndSplineSet
EndChar

StartChar: dieresis
Encoding: 168 168 106
GlifName: dieresis
Width: 591
Flags: MW
HStem: 625 107<175 203.5> 714 20G<385.5 414>
VStem: 138 103<663.5 692.5> 348 104<666.5 695.5>
LayerCount: 2
Back
Fore
SplineSet
138 678 m 0xb0
 138 707 161 732 189 732 c 0
 218 732 241 707 241 678 c 0
 241 649 218 625 189 625 c 0
 161 625 138 649 138 678 c 0xb0
348 681 m 0
 348 710 371 734 400 734 c 0x70
 428 734 452 710 452 681 c 0
 452 652 428 628 400 628 c 0
 371 628 348 652 348 681 c 0
EndSplineSet
EndChar

StartChar: AE
Encoding: 198 198 107
GlifName: A_E_
Width: 689
Flags: MW
HStem: -199 21G<371.5 396.5> -13 75<422 630> -12 21G<285.5 298> 239 75<422 559 422 559> 502 77<406 616 406 406> 502 126
VStem: 15 142 38 119 82 75<0 242 317 504 579 591> 260 162 347 75<-162 -13 63 239> 347 249<63 288.5 242 288.5>
LayerCount: 2
Back
Fore
SplineSet
422 239 m 1xda40
 422 63 l 1
 630 62 l 2
 655 61 668 49 668 24 c 0
 668 -1 655 -14 630 -13 c 2
 422 -13 l 1
 422 -162 l 2
 422 -187 409 -199 384 -199 c 0
 359 -199 347 -187 347 -162 c 2
 347 -13 l 1xda20
 298 -12 l 2
 273 -12 260 1 260 26 c 0xba40
 260 51 273 63 298 63 c 2
 347 63 l 1
 347 242 l 1
 157 242 l 1
 157 0 l 2
 157 -25 144 -38 119 -38 c 0
 94 -38 82 -25 82 0 c 2
 82 242 l 1xd8a0
 76 242 l 2
 51 242 38 254 38 279 c 0xd940
 38 304 51 317 76 317 c 2
 82 317 l 1
 82 504 l 1xd8c0
 53 504 l 2
 28 504 15 517 15 542 c 0xda40
 15 567 28 579 53 579 c 2
 82 579 l 1xd8c0
 82 591 l 2
 82 616 95 628 120 628 c 0xd4c0
 145 628 157 616 157 591 c 2
 157 579 l 1
 617 579 l 2
 642 579 654 566 654 541 c 0
 654 515 641 502 616 502 c 2
 406 502 l 1
 417 478 422 435 422 373 c 2
 422 314 l 1xda40
 559 314 l 2
 584 314 596 301 596 276 c 0xda10
 596 251 584 239 559 239 c 2
 422 239 l 1xda40
157 504 m 1
 157 317 l 1
 346 317 l 1
 346 371 l 2
 346 424 344 456 340 468 c 0
 333 489 310 501 273 504 c 2
 157 504 l 1
EndSplineSet
EndChar

StartChar: Oslash
Encoding: 216 216 108
GlifName: O_slash
Width: 403
Flags: MW
HStem: -20 75<195.5 241.5 195.5 266.5> 560 75<186.5 208.5>
VStem: 16 75<261.5 328 261.5 334> 312 75<218.5 336.5>
LayerCount: 2
Back
Fore
SplineSet
387 300 m 0
 387 87 327 -20 206 -20 c 0
 141 -20 92 9 59 67 c 0
 30 119 16 192 16 285 c 0
 16 383 30 463 58 526 c 0
 91 599 140 635 203 635 c 0
 267 635 315 601 347 534 c 0
 374 477 387 399 387 300 c 0
103 163 m 1
 236 551 l 1
 225 557 214 560 203 560 c 0
 170 560 144 536 123 489 c 0
 102 439 91 371 91 285 c 0
 91 238 95 198 103 163 c 1
312 300 m 0
 312 373 305 431 290 476 c 1
 151 73 l 1
 166 61 185 55 206 55 c 0
 277 55 312 137 312 300 c 0
EndSplineSet
EndChar

StartChar: yen
Encoding: 165 165 109
GlifName: yen
Width: 485
Flags: MW
HStem: -34 210<119 266> 101 75<106.5 217 119 217 292 366> 226 75<106.5 217 119 217 292 370> 635 20G<43.5 59.5 423.5 440>
VStem: 82 210<-8 151.5> 217 75<2 5 5 101 176 226 301 323> 217 191<2 276.5 101 276.5 176 276.5 226 276.5 251.5 323 251.5 323>
LayerCount: 2
Back
Fore
SplineSet
292 226 m 1xb8
 292 176 l 1
 366 176 l 2
 391 176 403 164 403 139 c 0
 403 114 391 101 366 101 c 2
 292 101 l 1x78
 292 5 l 2
 292 -21 279 -34 253 -34 c 0xb8
 229 -34 217 -22 217 2 c 2
 217 101 l 1x74
 119 101 l 2
 94 101 82 114 82 139 c 0x78
 82 164 94 176 119 176 c 2
 217 176 l 1
 217 226 l 1xb4
 119 226 l 2
 94 226 82 239 82 264 c 0xb8
 82 289 94 301 119 301 c 2
 217 301 l 1
 217 323 l 1xb4
 188 365 123 456 22 595 c 0
 17 602 14 610 14 618 c 0
 14 638 33 655 54 655 c 0
 65 655 75 650 83 639 c 2
 252 410 l 1
 400 638 l 2
 407 649 417 655 430 655 c 0
 450 655 469 638 469 618 c 0
 469 611 467 604 462 597 c 0
 413 518 357 426 292 323 c 1
 292 301 l 1xb8
 370 301 l 2
 395 301 408 289 408 264 c 0xb2
 408 239 395 226 370 226 c 2
 292 226 l 1xb8
EndSplineSet
EndChar

StartChar: ordfeminine
Encoding: 170 170 110
GlifName: ordfeminine
Width: 287
Flags: MW
HStem: 553 93<113.5 198.5> 608 38<113.5 136.5> 635 20G<233 258>
VStem: 27 38<526.5 555.5> 221 38<544 600>
LayerCount: 2
Back
Fore
SplineSet
173 567 m 0x98
 166 594 149 608 124 608 c 0x58
 88 608 65 574 65 538 c 0
 65 495 102 470 146 475 c 0
 196 480 221 503 221 544 c 2
 221 600 l 2
 221 613 220 620 221 636 c 0
 221 649 227 655 239 655 c 0
 252 655 258 648 258 635 c 2x38
 258 618 l 2
 259 613 259 607 259 600 c 2
 259 544 l 2
 259 481 223 445 150 438 c 0
 113 434 83 443 60 466 c 0
 38 486 27 511 27 542 c 0
 27 569 37 593 57 614 c 0
 77 635 100 646 127 646 c 0
 162 646 200 612 209 576 c 0
 213 561 207 553 190 553 c 0
 181 553 175 558 173 567 c 0x98
EndSplineSet
EndChar

StartChar: ordmasculine
Encoding: 186 186 111
GlifName: ordmasculine
Width: 282
Flags: MW
HStem: 445 33<122.5 159.5 122.5 169> 613 33<122.5 159.5>
VStem: 40 34<527.5 564 527.5 573.5> 208 34<527.5 564>
LayerCount: 2
Back
Fore
SplineSet
141 646 m 0
 197 646 242 601 242 546 c 0
 242 490 197 445 141 445 c 0
 85 445 40 490 40 546 c 0
 40 601 85 646 141 646 c 0
141 613 m 0
 104 613 74 582 74 546 c 0
 74 509 104 478 141 478 c 0
 178 478 208 509 208 546 c 0
 208 582 178 613 141 613 c 0
EndSplineSet
EndChar

StartChar: ae
Encoding: 230 230 112
GlifName: ae
Width: 853
Flags: MW
HStem: -25 21G<179.5 240.5> -17 75<594.5 640.5 594.5 653> -17 152<576.5 775> 208 75<529.5 741 542 741 542 792> 208 203<416.5 542 416.5 792> 317 77<199.5 221.5 199.5 223.5> 352 75<594.5 644.5>
VStem: 370 22<232.5 260> 467 37<184.5 257.5>
LayerCount: 2
Back
Fore
SplineSet
219 -25 m 0x9580
 140 -25 80 6 39 69 c 0
 1 128 -6 190 17 255 c 0
 42 326 96 371 179 391 c 0
 187 393 195 394 204 394 c 0
 239 394 275 377 313 344 c 0
 351 311 370 277 370 243 c 0
 370 222 351 207 331 207 c 0
 312 207 301 216 296 235 c 0
 281 290 249 317 198 317 c 0x9580
 171 317 148 308 127 289 c 0
 104 269 90 242 83 207 c 0
 82 197 81 187 81 178 c 0
 81 101 141 50 221 50 c 0
 270 50 310 61 340 82 c 0
 375 107 392 143 392 190 c 2
 392 303 l 1
 392 338 l 2
 391 347 391 359 391 374 c 0
 392 399 404 411 429 411 c 0x4980
 454 411 467 398 466 373 c 1
 507 409 557 427 617 427 c 0
 672 427 719 411 758 379 c 0
 797 347 820 305 829 252 c 0
 834 227 817 208 792 208 c 2
 542 208 l 2
 517 208 504 220 504 245 c 0
 504 270 517 283 542 283 c 2
 741 283 l 1
 716 329 674 352 615 352 c 0
 574 352 539 338 510 309 c 0
 481 280 467 246 467 205 c 0
 467 164 481 130 510 101 c 0
 539 72 574 58 615 58 c 0x5380
 666 58 706 78 736 119 c 0
 743 130 753 135 765 135 c 0
 785 135 804 118 804 98 c 0
 804 90 801 82 796 75 c 0
 751 14 691 -17 615 -17 c 0x3580
 538 -17 478 13 435 72 c 1
 414 39 382 15 340 -2 c 0
 303 -17 262 -25 219 -25 c 0x9580
EndSplineSet
EndChar

StartChar: oslash
Encoding: 248 248 113
GlifName: oslash
Width: 504
Flags: MW
HStem: -138 21G<39 55.5> -19 21G<224.5 272.5> 561 20G<441.5 458>
VStem: 16 75<185.5 225.5 185.5 236.5> 391 75<184.5 225.5>
LayerCount: 2
Back
Fore
SplineSet
466 205 m 0
 466 143 444 90 400 46 c 0
 357 3 304 -19 241 -19 c 0
 208 -19 179 -13 153 -2 c 1
 80 -120 l 2
 73 -132 62 -138 49 -138 c 0
 29 -138 10 -121 10 -101 c 0
 10 -94 12 -87 16 -80 c 2
 93 40 l 1
 42 86 16 141 16 205 c 0
 16 268 38 321 82 364 c 0
 126 408 179 430 241 430 c 0
 271 430 299 425 325 415 c 1
 417 563 l 2
 424 575 435 581 448 581 c 0
 468 581 487 564 487 543 c 0
 487 536 485 530 481 523 c 2
 389 375 l 1
 440 330 466 274 466 205 c 0
132 105 m 1
 285 350 l 1
 273 353 258 355 241 355 c 0
 200 355 164 340 135 311 c 0
 106 282 91 246 91 205 c 0
 91 166 105 133 132 105 c 1
391 205 m 0
 391 246 377 280 348 309 c 1
 195 63 l 1
 211 58 226 56 241 56 c 0
 282 56 318 70 347 99 c 0
 376 128 391 164 391 205 c 0
EndSplineSet
EndChar

StartChar: questiondown
Encoding: 191 191 114
GlifName: questiondown
Width: 449
Flags: MW
HStem: -26 74<217.5 251 217.5 262> -26 231<207.5 398.5> 560 121<208.5 245>
VStem: 161 132<603.5 637.5> 192 75<368 494> 348 75
LayerCount: 2
Back
Fore
SplineSet
423 166 m 0x74
 420 103 399 54 362 20 c 0
 329 -11 287 -26 237 -26 c 0
 178 -26 128 -7 85 32 c 0
 38 74 17 126 22 188 c 0
 26 235 44 275 76 308 c 0
 108 342 147 362 192 368 c 1
 192 494 l 2
 192 519 205 531 230 531 c 0
 255 531 267 519 267 494 c 2
 267 332 l 2
 267 313 253 301 226 294 c 0
 181 283 154 275 146 270 c 0
 117 253 100 224 97 182 c 0
 94 145 108 113 138 86 c 0
 166 61 199 48 236 48 c 0xac
 266 48 291 58 311 77 c 0
 334 98 346 129 348 170 c 0
 349 193 362 205 385 205 c 0
 412 205 424 192 423 166 c 0x74
293 621 m 0xb4
 293 586 263 560 227 560 c 0
 190 560 161 586 161 621 c 0
 161 654 190 681 227 681 c 0
 263 681 293 654 293 621 c 0xb4
EndSplineSet
EndChar

StartChar: exclamdown
Encoding: 161 161 115
GlifName: exclamdown
Width: 244
Flags: MW
HStem: -27 21G<103 128> 502 110<94.5 125.5>
VStem: 54 112<541.5 572.5> 77 75<12 425>
LayerCount: 2
Back
Fore
SplineSet
77 425 m 2xd0
 77 450 89 462 114 462 c 0
 139 462 152 450 152 425 c 2
 152 9 l 2
 152 -15 140 -27 116 -27 c 0
 90 -27 77 -14 77 12 c 2
 77 425 l 2xd0
54 557 m 0xe0
 54 588 79 612 110 612 c 0
 141 612 166 588 166 557 c 0
 166 526 141 502 110 502 c 0
 79 502 54 526 54 557 c 0xe0
EndSplineSet
EndChar

StartChar: florin
Encoding: 402 402 116
GlifName: florin
Width: 628
Flags: MW
HStem: -110 21G<72 93.5> 303 75<120.5 158> 474 198 597 75
VStem: 514 81<557.5 600>
LayerCount: 2
Back
Fore
SplineSet
57 -72 m 2xd8
 203 304 l 1
 129 303 l 2
 112 303 103 311 103 326 c 0
 103 350 127 378 158 378 c 2
 232 379 l 1
 300 555 l 2
 311 584 335 611 373 636 c 0
 412 661 449 673 484 672 c 0
 514 671 539 664 560 650 c 0
 583 634 595 613 595 587 c 0
 595 575 592 562 587 548 c 2
 573 511 l 2
 564 486 547 474 522 474 c 0xe8
 504 474 495 482 495 497 c 0
 495 502 496 507 498 512 c 2
 512 550 l 2
 513 553 514 556 514 559 c 0
 514 584 494 596 455 597 c 0
 443 597 429 593 413 586 c 0
 395 577 383 568 376 557 c 2
 307 379 l 1
 380 378 l 2
 397 378 406 371 406 356 c 0
 406 332 380 303 351 303 c 2
 278 304 l 1
 132 -73 l 2
 123 -98 106 -110 81 -110 c 0
 63 -110 54 -102 54 -87 c 0
 54 -82 55 -77 57 -72 c 2xd8
EndSplineSet
EndChar

StartChar: guillemotleft
Encoding: 171 171 117
GlifName: guillemotleft
Width: 556
Flags: MW
HStem: -83 21G<285 298.5> 367 20G<450 462.5>
LayerCount: 2
Back
Fore
SplineSet
237 293 m 2
 118 174 l 1
 316 -25 l 2
 322 -31 325 -38 325 -47 c 0
 325 -66 308 -83 289 -83 c 0
 281 -83 274 -80 267 -73 c 0
 212 -17 149 46 78 117 c 0
 53 141 41 160 41 175 c 0
 41 190 63 218 107 261 c 2
 191 339 l 2
 198 346 205 349 214 349 c 0
 231 349 247 332 247 315 c 0
 247 307 244 300 237 293 c 2
477 331 m 2
 320 171 l 1
 430 61 l 2
 437 54 440 47 440 38 c 0
 440 21 424 5 407 5 c 0
 398 5 391 8 384 15 c 2
 304 89 l 2
 263 129 243 157 243 172 c 0
 243 187 257 207 284 233 c 0
 321 268 370 316 431 377 c 0
 438 384 446 387 454 387 c 0
 471 387 487 371 487 354 c 0
 487 345 484 338 477 331 c 2
EndSplineSet
EndChar

StartChar: guillemotright
Encoding: 187 187 118
GlifName: guillemotright
Width: 556
Flags: MW
HStem: -79 21G<237.5 251.5> 371 20G<73.5 86.5>
LayerCount: 2
Back
Fore
SplineSet
418 177 m 1
 299 296 l 2
 292 303 289 310 289 319 c 0
 289 336 304 352 323 352 c 0
 331 352 338 349 345 342 c 2
 430 264 l 2
 473 222 495 194 495 179 c 0
 495 164 483 145 459 121 c 0
 388 50 325 -13 270 -69 c 0
 263 -76 256 -79 247 -79 c 0
 228 -79 211 -62 211 -43 c 0
 211 -35 214 -28 221 -21 c 2
 418 177 l 1
216 175 m 1
 59 335 l 2
 52 342 49 349 49 358 c 0
 49 375 65 391 82 391 c 0
 91 391 98 388 105 381 c 0
 166 320 215 272 252 237 c 0
 280 211 294 191 294 176 c 0
 294 161 273 133 232 93 c 2
 152 18 l 2
 145 11 138 8 129 8 c 0
 112 8 96 25 96 42 c 0
 96 50 99 57 106 64 c 2
 216 175 l 1
EndSplineSet
EndChar

StartChar: ellipsis
Encoding: 8230 8230 119
GlifName: ellipsis
Width: 596
Flags: MW
HStem: -14 136<94 130> -11 21G<261 297 434 470> 105 20G<261 297 434 470>
VStem: 47 130<35.5 72.5> 214 130<38.5 75.5> 387 130<38.5 75.5>
LayerCount: 2
Back
Fore
SplineSet
47 54 m 0x9c
 47 91 76 122 112 122 c 0
 148 122 177 91 177 54 c 0
 177 17 148 -14 112 -14 c 0
 76 -14 47 17 47 54 c 0x9c
214 57 m 0
 214 94 243 125 279 125 c 0
 315 125 344 94 344 57 c 0
 344 20 315 -11 279 -11 c 0x7c
 243 -11 214 20 214 57 c 0
387 57 m 0
 387 94 416 125 452 125 c 0
 488 125 517 94 517 57 c 0
 517 20 488 -11 452 -11 c 0
 416 -11 387 20 387 57 c 0
EndSplineSet
EndChar

StartChar: OE
Encoding: 338 338 120
GlifName: O_E_
Width: 702
Flags: MW
HStem: -64 115<337 645> -24 75<390 645 390 390> -20 21G<173.5 220.5> 0 21G<277 314 277 277> 266 75<388 593 388 593> 514 74<388 389 389 389 389 599> 560 65 615 20G<171.5 226.5>
VStem: 16 75<238.5 328 208.5 334> 312 76<218.5 266 341 343.5>
LayerCount: 2
Back
Fore
SplineSet
388 514 m 1x8dc0
 388 341 l 1
 593 341 l 2
 618 341 631 328 631 303 c 0
 631 278 618 266 593 266 c 2
 388 266 l 1
 388 51 l 1
 645 51 l 2
 670 51 682 39 682 14 c 0
 682 -11 670 -24 645 -24 c 2
 390 -24 l 1x4dc0
 390 -48 370 -64 349 -64 c 0x8dc0
 325 -64 313 -52 313 -29 c 2
 314 0 l 1
 277 0 l 1x1dc0
 259 -13 235 -20 206 -20 c 0
 141 -20 92 9 59 67 c 0
 30 119 16 192 16 285 c 0
 16 383 30 463 58 526 c 0
 91 599 140 635 203 635 c 0x2dc0
 250 635 286 619 313 586 c 1
 313 612 326 625 353 625 c 0x8ac0
 377 625 389 613 389 588 c 1
 599 589 l 2
 624 589 636 576 636 551 c 0
 636 526 624 514 599 514 c 2
 388 514 l 1x8dc0
203 560 m 0x8ac0
 170 560 144 536 123 489 c 0
 102 439 91 371 91 285 c 0
 91 132 129 55 206 55 c 0
 277 55 312 137 312 300 c 0
 312 387 302 452 281 497 c 0
 262 539 236 560 203 560 c 0x8ac0
EndSplineSet
EndChar

StartChar: oe
Encoding: 339 339 121
GlifName: oe
Width: 855
Flags: MW
HStem: -20 21G<579.5 659> -19 74 -19 151 205 75<534.5 747 547 747 547 798> 349 75<600.5 650.5> 410 20G<210 283>
VStem: 16 75<184.5 225.5 184.5 236.5> 391 82<184.5 222.5 181.5 225.5>
LayerCount: 2
Back
Fore
SplineSet
241 430 m 0x37
 325 430 389 394 433 321 c 1
 478 390 541 424 622 424 c 0
 734 424 818 354 835 249 c 0
 839 224 823 205 798 205 c 2
 547 205 l 2
 522 205 510 217 510 242 c 0
 510 267 522 280 547 280 c 2
 747 280 l 1
 722 326 680 349 621 349 c 0
 580 349 545 335 516 306 c 0
 487 277 473 243 473 202 c 0
 473 161 487 127 516 98 c 0
 545 69 580 55 621 55 c 0x5b
 672 55 712 75 742 116 c 0
 749 127 759 132 771 132 c 0x3b
 791 132 810 115 810 95 c 0
 810 87 807 79 802 72 c 0
 757 11 697 -20 621 -20 c 0x9b
 538 -20 475 15 431 85 c 1
 387 16 324 -19 241 -19 c 0
 179 -19 126 3 82 46 c 0
 38 90 16 143 16 205 c 0
 16 268 38 321 82 364 c 0
 126 408 179 430 241 430 c 0x37
241 355 m 0
 200 355 164 340 135 311 c 0
 106 282 91 246 91 205 c 0
 91 164 106 128 135 99 c 0
 164 70 200 56 241 56 c 0
 282 56 318 70 347 99 c 0
 376 128 391 164 391 205 c 0
 391 246 376 282 347 311 c 0
 318 340 282 355 241 355 c 0
EndSplineSet
EndChar

StartChar: endash
Encoding: 8211 8211 122
GlifName: endash
Width: 443
Flags: MW
HStem: 179 75<57.5 373 70 373>
LayerCount: 2
Back
Fore
SplineSet
70 254 m 2
 373 254 l 2
 398 254 410 242 410 217 c 0
 410 192 398 179 373 179 c 2
 70 179 l 2
 45 179 33 192 33 217 c 0
 33 242 45 254 70 254 c 2
EndSplineSet
EndChar

StartChar: emdash
Encoding: 8212 8212 123
GlifName: emdash
Width: 795
Flags: MW
HStem: 104 75<51.5 730 64 730>
LayerCount: 2
Back
Fore
SplineSet
64 179 m 2
 730 179 l 2
 755 179 768 167 768 142 c 0
 768 117 755 104 730 104 c 2
 64 104 l 2
 39 104 27 117 27 142 c 0
 27 167 39 179 64 179 c 2
EndSplineSet
EndChar

StartChar: quotedblleft
Encoding: 8220 8220 124
GlifName: quotedblleft
Width: 452
Flags: MW
HStem: 401 21G<86 137.5> 404 182<345 350.5> 652 20G<354.5 371>
VStem: 19 185<472.5 514.5> 233 184<475.5 517.5>
LayerCount: 2
Back
Fore
SplineSet
417 502 m 0x78
 417 449 376 404 325 404 c 0
 274 404 233 449 233 502 c 0
 233 533 247 569 275 608 c 0
 306 651 338 672 371 672 c 1
 366 662 360 647 354 628 c 0
 348 609 345 595 345 586 c 1
 386 586 417 545 417 502 c 0x78
204 499 m 0
 204 446 163 401 112 401 c 0xb8
 60 401 19 446 19 499 c 0
 19 530 33 566 62 605 c 0
 93 648 125 670 158 670 c 1
 152 660 146 645 140 625 c 0
 135 606 132 592 132 583 c 1
 173 583 204 542 204 499 c 0
EndSplineSet
EndChar

StartChar: quotedblright
Encoding: 8221 8221 125
GlifName: quotedblright
Width: 446
Flags: MW
HStem: 410 21G<66 82.5> 499 179<86 305> 661 20G<299.5 350.5>
VStem: 19 185<564.5 607.5 564.5 607.5> 233 184<567.5 610.5 567.5 610.5>
LayerCount: 2
Back
Fore
SplineSet
19 580 m 0xd8
 19 635 60 678 112 678 c 0
 163 678 204 635 204 580 c 0
 204 549 190 514 162 475 c 0
 131 432 99 410 66 410 c 1
 71 420 77 435 82 454 c 0
 88 473 91 488 91 497 c 1
 51 497 19 539 19 580 c 0xd8
233 583 m 0
 233 638 274 681 325 681 c 0xb8
 376 681 417 638 417 583 c 0
 417 552 403 517 375 478 c 0
 344 435 312 413 279 413 c 1
 284 423 290 438 296 457 c 0
 302 476 305 490 305 499 c 1
 264 499 233 542 233 583 c 0
EndSplineSet
EndChar

StartChar: quoteleft
Encoding: 8216 8216 126
GlifName: quoteleft
Width: 259
Flags: MW
HStem: 410 21G<106.5 157.5> 658 20G<161.5 178>
VStem: 40 184<481.5 523.5>
LayerCount: 2
Back
Fore
SplineSet
224 508 m 0
 224 455 183 410 132 410 c 0
 81 410 40 455 40 508 c 0
 40 539 54 574 82 613 c 0
 113 656 145 678 178 678 c 1
 172 668 166 653 160 634 c 0
 155 615 152 601 152 592 c 1
 193 592 224 551 224 508 c 0
EndSplineSet
EndChar

StartChar: quoteright
Encoding: 8217 8217 127
GlifName: quoteright
Width: 273
Flags: MW
HStem: 413 21G<89 105.5> 661 20G<109 160.5>
VStem: 42 185<567.5 610.5 567.5 610.5>
LayerCount: 2
Back
Fore
SplineSet
42 583 m 0
 42 638 83 681 135 681 c 0
 186 681 227 638 227 583 c 0
 227 552 213 517 185 478 c 0
 154 435 122 413 89 413 c 1
 94 423 100 438 106 457 c 0
 112 476 115 490 115 499 c 1
 74 499 42 542 42 583 c 0
EndSplineSet
EndChar

StartChar: fraction
Encoding: 8725 8725 128
GlifName: fraction
Width: 447
Flags: MW
HStem: -31 21G<75 93.5> 734 20G<313.5 332>
LayerCount: 2
Back
Fore
SplineSet
287 728 m 2
 293 745 305 754 322 754 c 0
 342 754 361 738 361 718 c 0
 361 713 360 709 359 704 c 2
 119 -5 l 2
 114 -22 102 -31 85 -31 c 0
 65 -31 46 -15 46 5 c 0
 46 10 47 14 48 19 c 2
 287 728 l 2
EndSplineSet
EndChar

StartChar: currency
Encoding: 164 164 129
GlifName: currency
Width: 642
Flags: MW
HStem: -14 21G<56 71 571 586> 70 75<299 343 299 343.5> 445 75<293.5 343> 555 20G<56 71 571 586>
VStem: 89 75<274.5 308.5 274.5 319> 478 75<274.5 315.5>
LayerCount: 2
Back
Fore
SplineSet
89 295 m 0
 89 343 102 385 129 421 c 1
 39 510 l 2
 32 518 28 527 28 537 c 0
 28 557 46 575 66 575 c 0
 76 575 85 571 93 563 c 2
 181 475 l 1
 220 505 266 520 321 520 c 0
 372 520 419 505 460 474 c 1
 550 563 l 2
 557 571 566 575 576 575 c 0
 596 575 614 557 614 537 c 0
 614 527 610 518 603 510 c 2
 513 420 l 1
 540 383 553 341 553 295 c 0
 553 239 536 191 501 152 c 1
 603 50 l 2
 610 43 614 34 614 24 c 0
 614 4 596 -14 576 -14 c 0
 566 -14 557 -10 550 -3 c 2
 443 105 l 1
 406 82 366 70 321 70 c 0
 276 70 235 81 199 104 c 1
 93 -3 l 2
 85 -10 76 -14 66 -14 c 0
 46 -14 28 4 28 24 c 0
 28 34 32 43 39 50 c 2
 139 151 l 1
 106 190 89 238 89 295 c 0
185 370 m 0
 171 347 164 322 164 295 c 0
 164 254 179 218 209 189 c 0
 240 160 277 145 321 145 c 0
 365 145 402 160 432 189 c 0
 463 218 478 254 478 295 c 0
 478 336 463 371 432 400 c 0
 402 430 365 445 321 445 c 0
 260 445 215 420 185 370 c 0
EndSplineSet
EndChar

StartChar: guilsinglleft
Encoding: 8249 8249 130
GlifName: guilsinglleft
Width: 267
Flags: MW
HStem: 80 21G<193.5 209.5> 520 20G<188 204>
LayerCount: 2
Back
Fore
SplineSet
225 479 m 2
 98 309 l 1
 230 142 l 2
 235 134 238 126 238 118 c 0
 238 98 220 80 199 80 c 0
 188 80 179 85 171 95 c 2
 54 236 l 2
 28 267 15 292 15 309 c 0
 15 326 28 350 53 382 c 2
 164 524 l 2
 172 535 182 540 194 540 c 0
 214 540 233 522 233 502 c 0
 233 494 230 486 225 479 c 2
EndSplineSet
EndChar

StartChar: guilsinglright
Encoding: 8250 8250 131
GlifName: guilsinglright
Width: 267
Flags: MW
HStem: 83 21G<43 58.5> 523 20G<49 64.5>
LayerCount: 2
Back
Fore
SplineSet
28 482 m 2
 23 489 20 497 20 505 c 0
 20 525 39 543 59 543 c 0
 70 543 80 538 88 527 c 2
 200 385 l 2
 225 352 237 328 237 312 c 0
 237 295 224 270 199 239 c 2
 82 98 l 2
 74 88 64 83 53 83 c 0
 33 83 14 101 14 121 c 0
 14 129 17 137 23 144 c 2
 155 312 l 1
 28 482 l 2
EndSplineSet
EndChar

StartChar: fi
Encoding: 64257 64257 132
GlifName: fi
Width: 440
Flags: MW
HStem: -182 21G<349 374> 321 75<32.5 115 45 115 190 325> 499 197<235 377.5> 621 75<241 264.5>
VStem: 8 181 114 75<-26.5 -14> 325 75<-146 321 321 321>
LayerCount: 2
Back
Fore
SplineSet
190 321 m 1xda
 189 -14 l 2
 189 -39 177 -51 152 -51 c 0
 127 -51 114 -39 114 -14 c 2xe6
 115 321 l 1
 45 321 l 2
 20 321 8 333 8 358 c 0
 8 383 20 396 45 396 c 2
 115 396 l 1
 115 576 l 2
 115 605 129 633 157 658 c 0
 185 683 217 696 253 696 c 0
 290 696 324 686 353 665 c 0
 386 642 403 612 403 574 c 2
 403 537 l 2
 403 512 390 499 365 499 c 0xea
 340 499 328 512 328 537 c 2
 328 574 l 2
 328 585 322 595 310 604 c 0
 295 615 276 621 253 621 c 0
 229 621 196 602 189 579 c 1
 190 396 l 1
 333 396 l 2
 360 396 377 393 385 388 c 0
 395 381 400 365 400 342 c 2
 400 -146 l 2
 400 -170 387 -182 361 -182 c 0
 337 -182 325 -170 325 -146 c 2
 325 321 l 1
 190 321 l 1xda
EndSplineSet
EndChar

StartChar: fl
Encoding: 64258 64258 133
GlifName: fl
Width: 455
Flags: MW
HStem: -169 21G<387.5 412.5> 321 75<32.5 115 45 115 190 267> 621 75<241 265.5>
VStem: 8 181 114 75<-14.5 -2> 114 191 362 75<571 577 577 581.5>
LayerCount: 2
Back
Fore
SplineSet
45 396 m 2xf2
 115 396 l 1
 115 576 l 2
 115 605 129 633 157 658 c 0
 185 683 217 696 253 696 c 0
 375 696 436 656 437 577 c 2
 438 -132 l 2
 438 -157 425 -169 400 -169 c 0
 375 -169 363 -157 363 -132 c 2
 362 571 l 1
 362 577 l 2
 362 586 350 596 326 606 c 0
 302 616 278 621 253 621 c 0
 229 621 196 602 189 579 c 1xf2
 190 396 l 1
 267 396 l 2
 292 396 305 383 305 358 c 0xe6
 305 333 292 321 267 321 c 2
 190 321 l 1
 189 -2 l 2
 189 -27 177 -40 152 -40 c 0
 127 -40 114 -27 114 -2 c 2xea
 115 321 l 1
 45 321 l 2
 20 321 8 333 8 358 c 0
 8 383 20 396 45 396 c 2xf2
EndSplineSet
EndChar

StartChar: daggerdbl
Encoding: 8225 8225 134
GlifName: daggerdbl
Width: 440
Flags: MW
HStem: -87 125<106 233.5> -37 75<93.5 183 106 183 258 334> 313 75<93.5 183 106 183 258 334> 598 20G<207.5 232.5>
VStem: 69 189<-62.5 13.5> 183 75<-50 -37 -62.5 -37 38 313 388 580> 183 189<-50 13.5 -37 13.5 -11.5 313>
LayerCount: 2
Back
Fore
SplineSet
258 38 m 1xb8
 334 38 l 2
 359 38 372 26 372 1 c 0xb2
 372 -24 359 -37 334 -37 c 2
 258 -37 l 1x78
 258 -50 l 2
 258 -75 246 -87 221 -87 c 0xb8
 196 -87 183 -75 183 -50 c 2
 183 -37 l 1x74
 106 -37 l 2
 81 -37 69 -24 69 1 c 0x78
 69 26 81 38 106 38 c 2
 183 38 l 1
 183 313 l 1xb4
 106 313 l 2
 81 313 69 326 69 351 c 0xb8
 69 376 81 388 106 388 c 2
 183 388 l 1
 183 580 l 2xb4
 183 605 195 618 220 618 c 0
 245 618 258 605 258 580 c 2
 258 388 l 1xb8
 334 388 l 2
 359 388 372 376 372 351 c 0xb2
 372 326 359 313 334 313 c 2
 258 313 l 1
 258 38 l 1xb8
EndSplineSet
EndChar

StartChar: middot
Encoding: 183 183 135
AltUni2: 002219.ffffffff.0
GlifName: middot
Width: 365
Flags: MW
HStem: 154 135<165 201>
VStem: 118 130<202.5 239.5>
LayerCount: 2
Back
Fore
SplineSet
118 221 m 0
 118 258 147 289 183 289 c 0
 219 289 248 258 248 221 c 0
 248 184 219 154 183 154 c 0
 147 154 118 184 118 221 c 0
EndSplineSet
EndChar

StartChar: quotesinglbase
Encoding: 8218 8218 136
GlifName: quotesinglbase
Width: 276
Flags: MW
HStem: -86 21G<89 105.5> 162 20G<109 160.5>
VStem: 42 185<68.5 111.5 68.5 111.5>
LayerCount: 2
Back
Fore
SplineSet
42 84 m 0
 42 139 83 182 135 182 c 0
 186 182 227 139 227 84 c 0
 227 53 213 18 185 -21 c 0
 154 -64 122 -86 89 -86 c 1
 94 -76 100 -61 106 -41 c 0
 112 -22 115 -8 115 1 c 1
 74 1 42 43 42 84 c 0
EndSplineSet
EndChar

StartChar: quotedblbase
Encoding: 8222 8222 137
GlifName: quotedblbase
Width: 458
Flags: MW
HStem: -86 21G<89 105.5 296 312.5> 1 181<109 115 316.5 322>
VStem: 42 185<68.5 111.5 68.5 111.5> 250 185<68.5 111.5 68.5 111.5>
LayerCount: 2
Back
Fore
SplineSet
42 84 m 0
 42 139 83 182 135 182 c 0
 186 182 227 139 227 84 c 0
 227 53 213 18 185 -21 c 0
 154 -64 122 -86 89 -86 c 1
 94 -76 100 -61 106 -41 c 0
 112 -22 115 -8 115 1 c 1
 74 1 42 43 42 84 c 0
250 84 m 0
 250 139 291 182 342 182 c 0
 393 182 435 139 435 84 c 0
 435 53 421 18 392 -21 c 0
 361 -64 329 -86 296 -86 c 1
 302 -76 308 -61 313 -41 c 0
 319 -22 322 -8 322 1 c 1
 281 1 250 43 250 84 c 0
EndSplineSet
EndChar

StartChar: perthousand
Encoding: 8240 8240 138
GlifName: perthousand
Width: 936
Flags: MW
HStem: -29 21G -7 75<444.5 482.5 444.5 484.5> 224 75<444.5 482.5> 320 77<135 168.5 134.5 172.5> 518 62 571 20G<135 172.5>
VStem: 17 73<441.5 474 441.5 474> 214 77<441.5 474> 318 75<125 166.5> 534 75<125 166.5 125 168> 625 75<124 165.5> 841 75<124 165.5 124 167>
LayerCount: 2
Back
Fore
SplineSet
75 29 m 2xfbf0
 423 562 l 2
 431 574 441 580 454 580 c 0
 474 580 493 563 493 543 c 0
 493 536 491 528 486 521 c 2
 137 -12 l 2
 130 -23 120 -29 107 -29 c 0
 87 -29 68 -12 68 8 c 0
 68 15 70 22 75 29 c 2xfbf0
154 591 m 0xf7f0
 191 591 223 578 250 551 c 0
 277 525 291 493 291 455 c 0
 291 418 277 386 250 359 c 0
 223 333 191 320 154 320 c 0
 116 320 84 333 57 359 c 0
 30 386 17 418 17 455 c 0
 17 493 30 525 57 551 c 0
 84 578 116 591 154 591 c 0xf7f0
152 518 m 0xfbf0
 117 518 90 490 90 458 c 0
 90 425 117 397 152 397 c 0
 185 397 214 425 214 458 c 0
 214 490 185 518 152 518 c 0xfbf0
464 299 m 0
 505 299 539 284 567 253 c 0
 595 223 609 187 609 146 c 0
 609 104 595 68 567 38 c 0
 539 8 505 -7 464 -7 c 0
 423 -7 388 8 360 38 c 0
 332 68 318 104 318 146 c 0
 318 187 332 223 360 253 c 0
 388 284 423 299 464 299 c 0
464 224 m 0
 425 224 393 190 393 146 c 0
 393 102 425 68 464 68 c 0
 501 68 534 102 534 146 c 0
 534 190 501 224 464 224 c 0
770 298 m 0
 811 298 846 283 874 252 c 0
 902 222 916 186 916 145 c 0
 916 103 902 67 874 37 c 0
 846 7 811 -8 770 -8 c 0
 729 -8 695 7 667 37 c 0
 639 67 625 103 625 145 c 0
 625 186 639 222 667 252 c 0
 695 283 729 298 770 298 c 0
770 223 m 0
 733 223 700 189 700 145 c 0
 700 101 733 67 770 67 c 0
 809 67 841 101 841 145 c 0
 841 189 809 223 770 223 c 0
EndSplineSet
EndChar

StartChar: dotlessi
Encoding: 305 305 139
GlifName: dotlessi
Width: 152
Flags: MW
HStem: -32 21G<61 86> 387 20G<61.5 86.5>
VStem: 37 75<4 370>
LayerCount: 2
Back
Fore
SplineSet
112 370 m 2
 112 4 l 2
 112 -20 99 -32 73 -32 c 0
 49 -32 37 -20 37 4 c 2
 37 370 l 2
 37 395 49 407 74 407 c 0
 99 407 112 395 112 370 c 2
EndSplineSet
EndChar

StartChar: circumflex
Encoding: 710 710 140
GlifName: circumflex
Width: 591
Flags: MW
HStem: 543 21G<118.5 129> 697 20G<249.5 260.5>
LayerCount: 2
Back
Fore
SplineSet
110 582 m 2
 206 683 l 2
 227 706 244 717 255 717 c 0
 266 717 282 706 303 685 c 2
 396 588 l 2
 401 583 403 578 403 572 c 0
 403 557 395 549 380 549 c 0
 374 549 369 551 364 556 c 2
 256 664 l 1
 142 550 l 2
 137 545 132 543 126 543 c 0
 111 543 103 551 103 566 c 0
 103 572 105 577 110 582 c 2
EndSplineSet
EndChar

StartChar: tilde
Encoding: 732 732 141
GlifName: tilde
Width: 576
Flags: MW
HStem: 510 75<299 299> 659 20G<173 186.5>
LayerCount: 2
Back
Fore
SplineSet
48 585 m 0
 77 622 106 668 158 677 c 0
 164 678 170 679 176 679 c 0
 197 679 215 671 232 654 c 0
 237 650 248 635 267 609 c 0
 279 593 290 585 300 585 c 0
 319 585 337 611 388 663 c 0
 395 670 404 673 413 673 c 0
 433 673 451 654 451 634 c 0
 451 623 446 614 437 606 c 0
 418 585 398 565 379 545 c 0
 356 524 330 512 299 510 c 0
 274 509 252 516 235 532 c 0
 227 539 215 554 200 577 c 0
 189 594 180 602 172 602 c 0
 161 602 146 589 127 563 c 0
 106 536 88 522 71 522 c 0
 50 522 40 535 40 561 c 0
 40 571 43 579 48 585 c 0
EndSplineSet
EndChar

StartChar: overscore
Encoding: 175 175 142
AltUni2: 0002c9.ffffffff.0
GlifName: overscore
Width: 469
Flags: MW
HStem: 548 75<84.5 377 97 377>
LayerCount: 2
Back
Fore
SplineSet
97 623 m 2
 377 623 l 2
 402 623 414 611 414 586 c 0
 414 561 402 548 377 548 c 2
 97 548 l 2
 72 548 60 561 60 586 c 0
 60 611 72 623 97 623 c 2
EndSplineSet
EndChar

StartChar: breve
Encoding: 728 728 143
GlifName: breve
Width: 388
Flags: MW
HStem: 432 45<177 214.5 177 223> 557 20G<40.5 51.5>
LayerCount: 2
Back
Fore
SplineSet
65 568 m 0
 114 507 158 477 196 477 c 0
 233 477 273 506 315 564 c 0
 320 571 325 574 332 574 c 0
 348 574 356 567 356 552 c 0
 356 547 354 543 351 538 c 0
 300 467 249 432 197 432 c 0
 144 432 89 468 30 540 c 0
 27 545 25 549 25 554 c 0
 25 569 33 577 48 577 c 0
 55 577 60 574 65 568 c 0
EndSplineSet
EndChar

StartChar: dotaccent
Encoding: 729 729 144
GlifName: dotaccent
Width: 423
Flags: MW
HStem: 612 115<194.5 228.5>
VStem: 150 123<654 685.5>
LayerCount: 2
Back
Fore
SplineSet
150 670 m 0
 150 701 178 727 211 727 c 0
 246 727 273 701 273 670 c 0
 273 638 246 612 211 612 c 0
 178 612 150 638 150 670 c 0
EndSplineSet
EndChar

StartChar: ring
Encoding: 730 730 145
GlifName: ring
Width: 591
Flags: MW
HStem: 629 45<283 307.5 283 320.5> 765 46<283 307.5>
VStem: 205 45<707.5 732 707.5 744.5> 341 45<707.5 732.5>
LayerCount: 2
Back
Fore
SplineSet
295 674 m 0
 320 674 341 695 341 720 c 0
 341 745 320 765 295 765 c 0
 271 765 250 744 250 720 c 0
 250 695 271 674 295 674 c 0
295 629 m 0
 246 629 205 669 205 720 c 0
 205 769 246 811 295 811 c 0
 346 811 386 769 386 720 c 0
 386 669 346 629 295 629 c 0
EndSplineSet
EndChar

StartChar: cedilla
Encoding: 184 184 146
GlifName: cedilla
Width: 230
Flags: MW
HStem: -226 50<102 125.5 102 138.5> -176 74<102.5 123.5 102.5 125.5> -12 20G<135 135>
VStem: 23 50<-148 -129.5 -148 -129.5> 85 120<-162.5 -76.5> 155 50<-148 -128.5>
LayerCount: 2
Back
Fore
SplineSet
181 -17 m 1x78
 152 -61 l 1
 187 -76 205 -102 205 -138 c 0
 205 -187 163 -226 114 -226 c 0
 63 -226 23 -187 23 -138 c 0
 23 -121 31 -113 48 -113 c 0
 65 -113 73 -121 73 -138 c 0
 73 -158 90 -176 114 -176 c 0
 137 -176 155 -158 155 -138 c 0xb4
 155 -119 136 -102 111 -102 c 0
 94 -102 85 -96 85 -84 c 0
 85 -69 102 -39 135 8 c 1
 181 -17 l 1x78
EndSplineSet
EndChar

StartChar: hungarumlaut
Encoding: 733 733 147
GlifName: hungarumlaut
Width: 354
Flags: MW
HStem: 480 21G<183.5 195> 489 187<68 172>
LayerCount: 2
Back
Fore
SplineSet
184 641 m 2x40
 94 499 l 2
 90 492 84 489 76 489 c 0
 60 489 52 496 52 511 c 0
 52 515 53 519 56 524 c 2
 146 665 l 2
 151 672 157 676 164 676 c 0
 180 676 188 668 188 653 c 0
 188 649 187 645 184 641 c 2x40
299 632 m 2
 210 491 l 2
 205 484 199 480 191 480 c 0x80
 176 480 168 487 168 502 c 0
 168 507 169 511 172 515 c 2
 261 656 l 2
 266 663 272 667 279 667 c 0
 295 667 303 660 303 645 c 0
 303 640 302 636 299 632 c 2
EndSplineSet
EndChar

StartChar: ogonek
Encoding: 731 731 148
GlifName: ogonek
Width: 221
Flags: MW
HStem: -155 162<97.5 99 84.5 117>
LayerCount: 2
Back
Fore
SplineSet
97 -84 m 0
 101 -96 105 -104 110 -109 c 0
 114 -110 125 -104 142 -91 c 0
 146 -87 151 -85 156 -85 c 0
 171 -85 178 -93 178 -109 c 0
 178 -116 175 -121 169 -126 c 0
 144 -145 124 -155 110 -155 c 0
 85 -155 66 -135 53 -95 c 1
 52 -90 l 2
 51 -74 53 -55 59 -34 c 0
 67 -7 78 7 91 7 c 0
 107 7 115 -1 115 -16 c 0
 115 -19 112 -27 105 -40 c 0
 99 -54 96 -69 97 -84 c 0
EndSplineSet
EndChar

StartChar: caron
Encoding: 711 711 149
GlifName: caron
Width: 388
Flags: MW
HStem: 396 21G<182.5 196> 590 20G<41 56 323 338>
LayerCount: 2
Back
Fore
SplineSet
78 598 m 2
 189 486 l 1
 301 598 l 2
 309 606 318 610 328 610 c 0
 348 610 366 591 366 571 c 0
 366 562 362 553 354 545 c 2
 247 434 l 2
 222 409 203 396 189 396 c 0
 176 396 157 409 132 434 c 2
 25 545 l 2
 17 553 13 562 13 571 c 0
 13 591 31 610 51 610 c 0
 61 610 70 606 78 598 c 2
EndSplineSet
EndChar

StartChar: Lslash
Encoding: 321 321 150
GlifName: L_slash
Width: 455
Flags: MW
HStem: -2 75<107.5 139 120 139 214 397> 556 75<99.5 247 112 139 214 247 214 214>
VStem: 13 201<255.5 272> 74 140 139 75<73 277 277 277 416 556> 139 145<367 605.5 556 605.5> 139 192<73 432 277 432 415.5 432 415.5 556 415.5 556>
LayerCount: 2
Back
Fore
SplineSet
214 556 m 1xd0
 214 416 l 1xd0
 273 454 l 2
 280 459 287 461 294 461 c 0
 314 461 331 442 331 422 c 0xc2
 331 409 325 399 314 392 c 2
 214 327 l 1
 214 73 l 1
 397 73 l 2
 422 73 435 60 435 35 c 0
 435 10 422 -2 397 -2 c 2
 120 -2 l 2
 95 -2 83 10 83 35 c 0
 83 60 95 72 120 73 c 2
 139 73 l 1
 139 277 l 1xc8
 71 233 l 2
 64 228 57 226 50 226 c 0
 30 226 13 245 13 266 c 0xe0
 13 278 19 288 30 296 c 2
 139 367 l 1
 139 556 l 1xc8
 112 556 l 2
 87 556 74 568 74 593 c 0xd0
 74 618 87 631 112 631 c 2
 247 631 l 2
 272 631 284 618 284 593 c 0xc4
 284 568 272 556 247 556 c 2
 214 556 l 1xd0
EndSplineSet
EndChar

StartChar: lslash
Encoding: 322 322 151
GlifName: lslash
Width: 379
Flags: MW
HStem: 1 75<38.5 139 51 139 214 322> 555 75<35.5 319 48 139 214 214 214 319>
VStem: 11 203 139 75<76 299 299 299 434 555> 139 198<76 453 299 453 436.5 453 436.5 555 436.5 555> 139 218<389 604.5 555 604.5>
LayerCount: 2
Back
Fore
SplineSet
214 434 m 1xe0
 279 476 l 2
 286 481 292 483 299 483 c 0
 320 483 337 463 337 443 c 0xc8
 337 430 331 420 319 413 c 2
 214 347 l 1
 214 76 l 1
 322 76 l 2
 347 76 360 64 360 39 c 0
 360 14 347 1 322 1 c 2
 51 1 l 2
 26 1 14 14 14 39 c 0
 14 64 26 76 51 76 c 2
 139 76 l 1
 139 299 l 1
 68 254 l 2
 61 250 54 248 47 248 c 0
 27 248 10 267 10 287 c 0
 10 300 16 310 28 317 c 2
 139 389 l 1
 139 555 l 1xd0
 48 555 l 2
 23 555 11 567 11 592 c 0xe0
 11 617 23 630 48 630 c 2
 319 630 l 2
 344 630 357 617 357 592 c 0xc4
 357 567 344 555 319 555 c 2
 214 555 l 1
 214 434 l 1xe0
EndSplineSet
EndChar

StartChar: Eth
Encoding: 208 208 152
GlifName: E_th
Width: 563
Flags: MW
HStem: -191 75<87.5 100 87.5 182.5> 253 75<35.5 152 48 151 227 303> 525 75<227 227> 525 106<179.5 227>
VStem: 11 216 42 185 151 189<253 303.5> 472 75<270 270>
LayerCount: 2
Back
Fore
SplineSet
152 2 m 2xe9
 151 253 l 1xe3
 48 253 l 2
 23 253 11 266 11 291 c 0xe9
 11 316 23 328 48 328 c 2
 152 328 l 1
 152 527 l 1
 80 527 l 2
 55 527 42 539 42 564 c 0
 42 589 55 602 80 602 c 2
 153 602 l 1
 157 621 169 631 190 631 c 0xd5
 211 631 224 621 227 600 c 1
 342 593 426 557 480 492 c 0
 525 437 548 363 547 270 c 0
 545 119 514 7 453 -66 c 0
 382 -149 265 -191 100 -191 c 0
 75 -191 62 -179 62 -154 c 0
 62 -129 75 -116 100 -116 c 0
 348 -115 472 13 472 270 c 0
 472 429 390 514 227 525 c 1
 227 328 l 1xe9
 303 328 l 2
 328 328 340 316 340 291 c 0xe3
 340 266 328 253 303 253 c 2
 227 253 l 1
 227 0 l 2
 227 -25 215 -37 190 -37 c 0
 165 -37 152 -24 152 2 c 2xe9
EndSplineSet
EndChar

StartChar: eth
Encoding: 240 240 153
GlifName: eth
Width: 509
Flags: MW
HStem: -63 77<201.5 235 201.5 239> 640 20G<305.5 320.5>
VStem: 19 74<106.5 136 106.5 154.5> 383 72<164 203.5 140.5 234.5>
LayerCount: 2
Back
Fore
SplineSet
313 40 m 0
 360 67 383 122 383 206 c 0
 383 263 373 311 352 350 c 1
 347 345 341 341 334 338 c 0
 276 320 233 302 204 284 c 0
 175 266 149 240 125 207 c 0
 104 178 93 150 93 122 c 0
 93 91 105 66 129 45 c 0
 154 24 184 14 219 14 c 0
 251 14 282 23 313 40 c 0
349 -25 m 0
 305 -50 261 -63 217 -63 c 0
 160 -63 113 -44 75 -7 c 0
 38 30 19 74 19 127 c 0
 19 182 41 233 85 280 c 0
 135 335 209 378 308 409 c 1
 286 432 256 456 218 481 c 1
 135 399 l 2
 128 391 119 387 109 387 c 0
 89 387 71 406 71 426 c 0
 71 436 75 445 83 452 c 2
 154 523 l 1
 101 555 77 564 77 589 c 0
 77 609 94 628 114 628 c 0
 121 628 128 626 135 622 c 0
 170 599 195 584 209 575 c 1
 285 648 l 2
 292 656 301 660 310 660 c 0
 331 660 349 641 349 621 c 0
 349 611 345 602 337 595 c 2
 272 535 l 1
 385 457 445 368 452 267 c 0
 454 237 455 213 455 194 c 0
 455 87 420 14 349 -25 c 0
EndSplineSet
EndChar

StartChar: Scaron
Encoding: 352 352 154
GlifName: S_caron
Width: 424
Flags: MW
HStem: -32 67<196.5 228.5 196.5 259.5> -32 230<58.5 259.5> 435 184<178 323> 544 75<185.5 207> 613 20G<198.5 212> 827 20G<57 72 339 354>
VStem: 6 76<449.5 480> 321 75<114 132.5>
LayerCount: 2
Back
Fore
SplineSet
280 458 m 0xa7
 255 515 225 544 189 544 c 0
 182 544 173 543 161 542 c 0
 110 537 82 502 82 461 c 0
 82 410 122 376 197 337 c 0
 241 314 270 297 285 286 c 0
 359 232 396 175 396 115 c 0
 396 102 394 88 390 75 c 0
 369 10 298 -32 221 -32 c 0
 144 -32 90 0 59 64 c 0
 40 105 30 137 30 161 c 0
 30 182 48 198 69 198 c 0x57
 88 198 99 188 104 169 c 0
 126 80 167 35 226 35 c 0
 231 35 237 35 242 36 c 0
 283 42 308 62 317 95 c 0
 320 102 321 110 321 118 c 0
 321 147 304 176 269 204 c 0
 249 221 214 243 163 270 c 0
 116 295 87 314 74 326 c 0
 56 344 45 355 42 359 c 0
 31 371 23 384 18 399 c 0
 10 419 6 439 6 460 c 0
 6 500 19 535 46 564 c 0
 73 594 109 612 152 617 c 0
 163 618 173 619 183 619 c 0
 256 619 311 575 349 488 c 0
 351 483 352 477 352 472 c 0
 352 451 333 435 313 435 c 0
 298 435 287 443 280 458 c 0xa7
94 835 m 2
 205 723 l 1
 317 835 l 2
 325 843 334 847 344 847 c 0
 364 847 382 828 382 808 c 0
 382 799 378 790 370 782 c 2
 263 671 l 2
 238 646 219 633 205 633 c 0x8f
 192 633 173 646 148 671 c 2
 41 782 l 2
 33 790 29 799 29 808 c 0
 29 828 47 847 67 847 c 0
 77 847 86 843 94 835 c 2
EndSplineSet
EndChar

StartChar: scaron
Encoding: 353 353 155
GlifName: scaron
Width: 368
Flags: MW
HStem: -34 74<228 243.5 228 246> 142 73 324 75 563 20G<58.5 71 299 311.5>
VStem: 9 75<261 261> 279 74<84.5 113.5 79.5 114.5>
LayerCount: 2
Back
Fore
SplineSet
261 290 m 0
 236 313 208 325 178 324 c 0
 115 321 84 300 84 260 c 0
 84 239 90 227 101 222 c 0
 115 216 137 213 167 214 c 2
 236 217 l 2
 273 218 302 206 324 181 c 0
 343 158 353 130 353 97 c 0
 353 62 342 32 321 7 c 0
 298 -20 266 -34 226 -34 c 0
 215 -34 203 -33 192 -31 c 0
 160 -25 135 -18 117 -10 c 2
 53 24 l 2
 39 31 32 43 32 58 c 0
 32 81 49 102 70 102 c 0
 76 102 82 100 87 97 c 0
 131 72 175 41 228 40 c 0
 259 40 279 69 279 100 c 0
 279 129 265 143 238 142 c 0
 176 141 150 140 159 140 c 1
 114 140 80 147 58 161 c 0
 29 180 12 213 9 261 c 0
 6 308 25 343 66 368 c 0
 97 387 133 397 175 399 c 0
 226 400 271 382 312 345 c 0
 320 338 324 329 324 318 c 0
 324 298 306 280 286 280 c 0
 277 280 268 283 261 290 c 0
89 575 m 2
 185 494 l 1
 281 575 l 2
 288 580 295 583 303 583 c 0
 320 583 336 571 336 556 c 0
 336 549 333 542 326 537 c 2
 234 456 l 2
 213 438 197 429 185 429 c 0
 173 429 157 438 136 456 c 2
 44 537 l 2
 37 542 34 549 34 556 c 0
 34 571 50 583 67 583 c 0
 75 583 82 580 89 575 c 2
EndSplineSet
EndChar

StartChar: Yacute
Encoding: 221 221 156
GlifName: Y_acute
Width: 485
Flags: MW
HStem: -34 21G<239 264> 620 20G<195.5 204.5> 635 20G<41.5 57.5 421.5 438> 822 20G<291.5 299.5>
VStem: 215 75<2 5 5 324 324 324>
LayerCount: 2
Back
Fore
SplineSet
215 2 m 2xb8
 215 324 l 1
 201 337 177 369 143 419 c 0
 92 494 51 553 20 595 c 0
 15 602 12 610 12 617 c 0
 12 638 31 655 52 655 c 0
 63 655 73 650 81 639 c 2
 250 410 l 1
 398 638 l 2
 405 649 415 655 428 655 c 0
 448 655 467 638 467 618 c 0
 467 611 465 604 460 597 c 0
 434 556 398 497 353 422 c 0
 323 371 302 339 290 326 c 1
 290 5 l 2
 290 -21 277 -34 251 -34 c 0
 227 -34 215 -22 215 2 c 2xb8
188 680 m 2
 284 837 l 2
 286 840 289 842 294 842 c 0
 305 842 318 834 333 817 c 0
 349 800 357 786 357 775 c 0
 357 770 356 767 353 764 c 2
 218 646 l 2
 213 642 207 640 202 640 c 0xd8
 189 640 183 648 183 663 c 0
 183 669 185 675 188 680 c 2
EndSplineSet
EndChar

StartChar: yacute
Encoding: 253 253 157
GlifName: yacute
Width: 509
Flags: MW
HStem: -230 75<251.5 281 251.5 288> -82 74<170.5 197.5> 50 74<359 392> 550 20G<359.5 367.5>
VStem: 149 75<291.5 332 332 345.5> 391 75<-91 -86>
LayerCount: 2
Back
Fore
SplineSet
391 -86 m 2
 392 50 l 1
 311 51 254 59 219 74 c 0
 172 95 149 134 149 191 c 2
 149 332 l 2
 149 359 162 372 188 372 c 0
 212 372 224 359 224 332 c 0
 224 251 226 201 230 181 c 0
 236 152 251 135 274 129 c 0
 287 126 326 124 392 124 c 1
 391 329 l 2
 391 354 404 367 429 367 c 0
 454 367 466 354 466 329 c 2
 466 -86 l 2
 466 -123 445 -156 403 -185 c 0
 361 -215 314 -230 262 -230 c 0
 213 -230 168 -221 126 -204 c 0
 70 -181 42 -149 42 -106 c 0
 42 -71 58 -46 90 -29 c 0
 117 -15 150 -8 191 -8 c 0
 221 -8 247 -11 270 -18 c 0
 287 -23 296 -35 296 -53 c 0
 296 -73 281 -92 260 -92 c 0
 256 -92 252 -91 248 -90 c 0
 231 -85 210 -82 185 -82 c 0
 148 -82 125 -90 117 -106 c 1
 117 -121 139 -133 182 -143 c 0
 215 -151 241 -155 262 -155 c 0
 300 -155 332 -145 359 -125 c 0
 380 -109 391 -96 391 -86 c 2
256 408 m 2
 352 565 l 2
 354 568 357 570 362 570 c 0
 373 570 386 562 401 545 c 0
 417 528 425 514 425 503 c 0
 425 498 424 495 421 492 c 2
 286 374 l 2
 281 370 275 368 270 368 c 0
 257 368 251 376 251 391 c 0
 251 397 253 403 256 408 c 2
EndSplineSet
EndChar

StartChar: Thorn
Encoding: 222 222 158
GlifName: T_horn
Width: 411
Flags: MW
HStem: -34 21G<64.5 89.5> 158 75<226 260 226 280.5> 404 75<210 236.5 210 245> 404 224<64.5 245>
VStem: 40 75<4 159 234 405 480 590> 315 75<285 340.5 262.5 344.5>
LayerCount: 2
Back
Fore
SplineSet
115 405 m 1xec
 115 234 l 1
 226 233 l 2
 294 233 315 255 315 315 c 0
 315 374 280 404 210 404 c 2
 115 405 l 1xec
115 159 m 1
 115 4 l 2
 115 -21 102 -34 77 -34 c 0
 52 -34 40 -21 40 4 c 2
 40 590 l 2
 40 615 52 628 77 628 c 0xdc
 102 628 115 615 115 590 c 2
 115 480 l 1
 210 479 l 2
 263 479 306 465 339 437 c 0
 373 407 390 366 390 315 c 0
 390 210 335 158 226 158 c 2
 115 159 l 1
EndSplineSet
EndChar

StartChar: thorn
Encoding: 254 254 159
GlifName: thorn
Width: 411
Flags: MW
HStem: -161 21G<64.5 89.5> 41 75<115 233 115 233> 347 75<115 218 115 218> 608 20G<64.5 89.5>
VStem: 40 75<-123 41 116 347 422 590> 319 72<201 241.5>
LayerCount: 2
Back
Fore
SplineSet
115 41 m 1
 115 -123 l 2
 115 -148 102 -161 77 -161 c 0
 52 -161 40 -148 40 -123 c 2
 40 590 l 2
 40 615 52 628 77 628 c 0
 102 628 115 615 115 590 c 2
 115 422 l 1
 218 422 l 2
 269 422 311 403 343 366 c 0
 375 329 391 283 391 228 c 0
 391 174 378 130 352 96 c 0
 323 59 284 41 233 41 c 2
 115 41 l 1
115 116 m 1
 233 116 l 2
 290 116 319 153 319 226 c 0
 319 257 311 284 296 307 c 0
 277 334 251 347 218 347 c 2
 115 347 l 1
 115 116 l 1
EndSplineSet
EndChar

StartChar: Zcaron
Encoding: 381 381 160
GlifName: Z_caron
Width: 561
Flags: MW
HStem: -5 75<77.5 498 164 498 164 498> 534 75<32.5 472 45 400> 613 20G<264.5 278> 827 20G<123 138 405 420>
LayerCount: 2
Back
Fore
SplineSet
45 609 m 2
 472 609 l 2
 499 609 513 598 513 577 c 0
 513 568 510 559 503 550 c 2
 164 70 l 1
 498 70 l 2
 523 70 535 57 535 32 c 0
 535 7 523 -5 498 -5 c 2
 91 -5 l 2
 64 -5 51 6 51 27 c 0
 51 36 54 45 61 54 c 2
 400 534 l 1
 45 534 l 2
 20 534 8 547 8 572 c 0
 8 597 20 609 45 609 c 2
160 835 m 2
 271 723 l 1
 383 835 l 2
 391 843 400 847 410 847 c 0
 430 847 448 828 448 808 c 0
 448 799 444 790 436 782 c 2
 329 671 l 2
 304 646 285 633 271 633 c 0
 258 633 239 646 214 671 c 2
 107 782 l 2
 99 790 95 799 95 808 c 0
 95 828 113 847 133 847 c 0
 143 847 152 843 160 835 c 2
EndSplineSet
EndChar

StartChar: zcaron
Encoding: 382 382 161
GlifName: zcaron
Width: 440
Flags: MW
HStem: -28 75<154 391 154 391> 318 75<29.5 360 42 280> 563 20G<100.5 113 341 354.5>
LayerCount: 2
Back
Fore
SplineSet
42 393 m 2
 360 393 l 2
 387 393 401 382 401 361 c 0
 401 351 397 341 388 331 c 2
 154 47 l 1
 391 47 l 2
 416 47 429 34 429 9 c 0
 429 -16 416 -28 391 -28 c 2
 74 -28 l 2
 47 -28 33 -18 33 3 c 0
 33 13 37 23 45 33 c 2
 280 318 l 1
 42 318 l 2
 17 318 5 330 5 355 c 0
 5 380 17 393 42 393 c 2
131 575 m 2
 227 494 l 1
 323 575 l 2
 330 580 337 583 345 583 c 0
 364 583 379 571 379 556 c 0
 379 549 376 542 369 537 c 2
 277 456 l 2
 256 438 239 429 227 429 c 0
 215 429 199 438 178 456 c 2
 86 537 l 2
 79 542 76 549 76 556 c 0
 76 571 92 583 109 583 c 0
 117 583 124 580 131 575 c 2
EndSplineSet
EndChar

StartChar: onehalf
Encoding: 189 189 162
GlifName: onehalf
Width: 408
Flags: MW
HStem: 98 21G 119 27<192 286 192 286 192 291.5> 318 26<193.5 215.5 193.5 220.5> 361 25<36 382> 424 30<137 192> 664 20G<212 220.5>
VStem: 118 34<265.5 281.5> 192 37<419 669 454 630 630 630>
LayerCount: 2
Back
Fore
SplineSet
192 454 m 1xbf
 192 630 l 1
 142 588 l 2
 138 585 133 583 128 583 c 0
 115 583 109 588 109 598 c 0
 109 602 111 605 115 608 c 2
 191 672 l 2
 200 680 208 684 216 684 c 0
 225 684 229 679 229 669 c 2
 229 454 l 1
 295 455 l 2
 307 455 313 450 313 439 c 0
 313 429 307 424 295 424 c 2
 228 424 l 1
 228 414 222 409 210 409 c 0
 198 409 192 414 192 424 c 1
 137 424 l 2
 124 424 118 429 118 439 c 0
 118 450 124 455 137 455 c 2
 192 454 l 1xbf
36 386 m 2
 28 386 24 382 24 373 c 0
 24 365 28 361 36 361 c 2
 382 361 l 2
 390 360 394 364 394 373 c 0
 394 382 390 386 382 386 c 2
 36 386 l 2
118 101 m 2
 148 119 l 1
 286 119 l 2
 297 119 303 124 303 133 c 0
 303 142 297 146 286 146 c 2
 192 146 l 1x7f
 227 167 252 186 265 201 c 0
 283 222 291 246 289 273 c 0
 286 296 277 314 260 327 c 0
 245 338 226 344 205 344 c 0
 182 344 162 338 146 325 c 0
 127 311 118 293 118 270 c 0
 118 261 124 257 135 257 c 0
 146 257 152 261 152 270 c 0
 152 298 177 318 205 318 c 0
 236 318 252 302 255 271 c 0
 258 244 239 216 199 186 c 1
 97 122 l 2
 93 119 91 115 91 112 c 0
 91 103 97 98 108 98 c 0
 111 98 115 99 118 101 c 2
EndSplineSet
EndChar

StartChar: onequarter
Encoding: 188 188 163
GlifName: onequarter
Width: 408
Flags: MW
HStem: 39 164<130 235> 170 33<130 130 130 202 251 309> 361 25<36 382> 424 30<137 192> 664 20G<212 220.5>
VStem: 118 111<434 669> 192 37<419 669 454 630 630 630> 202 49<50.5 170 56 170 203 269 56 203>
LayerCount: 2
Back
Fore
SplineSet
192 454 m 1xba
 192 630 l 1
 142 588 l 2
 138 585 133 583 128 583 c 0
 115 583 109 588 109 598 c 0
 109 602 111 605 115 608 c 2
 191 672 l 2
 200 680 208 684 216 684 c 0
 225 684 229 679 229 669 c 2
 229 454 l 1
 295 455 l 2
 307 455 313 450 313 439 c 0
 313 429 307 424 295 424 c 2
 228 424 l 1
 228 414 222 409 210 409 c 0
 198 409 192 414 192 424 c 1xba
 137 424 l 2
 124 424 118 429 118 439 c 0xbc
 118 450 124 455 137 455 c 2
 192 454 l 1xba
130 203 m 1
 202 269 l 1
 202 203 l 1xb9
 130 203 l 1
251 314 m 2
 251 327 244 333 230 333 c 0
 219 333 209 329 199 320 c 2
 62 197 l 2
 57 192 55 188 55 184 c 0
 55 175 64 170 81 170 c 2
 202 170 l 1x79
 202 56 l 2
 202 45 210 39 227 39 c 0xb9
 243 39 251 45 251 56 c 2
 251 170 l 1
 309 170 l 2x79
 325 170 333 175 333 186 c 0
 333 197 325 203 309 203 c 2
 251 203 l 1
 251 314 l 2
36 386 m 2
 28 386 24 382 24 373 c 0
 24 365 28 361 36 361 c 2
 382 361 l 2
 390 360 394 364 394 373 c 0
 394 382 390 386 382 386 c 2
 36 386 l 2
EndSplineSet
EndChar

StartChar: onesuperior
Encoding: 185 185 164
GlifName: onesuperior
Width: 408
Flags: MW
HStem: 409 21G<204 216> 424 30<137 192> 664 20G<212 220.5>
VStem: 118 111<434 669> 192 37<419 669 454 630 630 630>
LayerCount: 2
Back
Fore
SplineSet
192 454 m 1x68
 192 630 l 1x68
 142 588 l 2
 138 585 133 583 128 583 c 0
 115 583 109 588 109 598 c 0
 109 602 111 605 115 608 c 2
 191 672 l 2
 200 680 208 684 216 684 c 0
 225 684 229 679 229 669 c 2
 229 454 l 1
 295 455 l 2
 307 455 313 450 313 439 c 0
 313 429 307 424 295 424 c 2
 228 424 l 1x70
 228 414 222 409 210 409 c 0xb0
 198 409 192 414 192 424 c 1x68
 137 424 l 2
 124 424 118 429 118 439 c 0x70
 118 450 124 455 137 455 c 2
 192 454 l 1x68
EndSplineSet
EndChar

StartChar: threequarters
Encoding: 190 190 165
GlifName: threequarters
Width: 408
Flags: MW
HStem: 39 164<130 235> 170 33<130 202 130 202 251 309> 361 25<32 382 36 382> 400 27<177 207 177 218> 609 27<179.5 197.5>
VStem: 202 49<56 170 203 269 269 269> 222 29
LayerCount: 2
Back
Fore
SplineSet
202 269 m 1xbc
 130 203 l 1
 202 203 l 1
 202 269 l 1xbc
251 314 m 2
 251 203 l 1
 309 203 l 2
 325 203 333 197 333 186 c 0
 333 175 325 170 309 170 c 2
 251 170 l 1x7c
 251 56 l 2
 251 45 243 39 227 39 c 0xbc
 210 39 202 45 202 56 c 2
 202 170 l 1
 81 170 l 2x7c
 64 170 55 175 55 184 c 0
 55 188 57 192 62 197 c 2
 199 320 l 2
 209 329 219 333 230 333 c 0
 244 333 251 327 251 314 c 2
36 386 m 2
 382 386 l 2
 390 386 394 382 394 373 c 0
 394 364 390 360 382 361 c 2
 36 361 l 2
 28 361 24 365 24 373 c 0
 24 382 28 386 36 386 c 2
139 600 m 0
 128 600 122 605 122 614 c 0
 122 619 126 623 133 626 c 0
 153 633 171 636 187 636 c 0
 231 636 256 610 256 578 c 0
 256 558 248 541 232 528 c 1
 264 513 280 492 280 465 c 0
 280 424 240 400 196 400 c 0
 150 400 118 416 100 448 c 0
 99 450 98 452 98 454 c 0
 98 463 104 467 115 467 c 0
 122 467 127 464 130 459 c 0
 143 438 163 427 191 427 c 0
 223 427 241 437 246 458 c 0
 251 482 224 507 192 511 c 0
 182 511 175 511 170 512 c 0
 158 513 152 517 152 525 c 0
 152 540 177 540 189 540 c 0
 211 545 222 559 222 580 c 0xba
 222 599 210 609 185 609 c 0
 174 609 148 600 139 600 c 0
EndSplineSet
EndChar

StartChar: threesuperior
Encoding: 179 179 166
GlifName: threesuperior
Width: 408
Flags: MW
HStem: 400 27<177 207 177 218> 609 27<179.5 197.5>
VStem: 222 34<569.5 589.5>
LayerCount: 2
Back
Fore
SplineSet
139 600 m 0
 128 600 122 605 122 614 c 0
 122 619 126 623 133 626 c 0
 153 633 171 636 187 636 c 0
 231 636 256 610 256 578 c 0
 256 558 248 541 232 528 c 1
 264 513 280 492 280 465 c 0
 280 424 240 400 196 400 c 0
 150 400 118 416 100 448 c 0
 99 450 98 452 98 454 c 0
 98 463 104 467 115 467 c 0
 122 467 127 464 130 459 c 0
 143 438 163 427 191 427 c 0
 223 427 241 437 246 458 c 0
 251 482 224 507 192 511 c 0
 182 511 175 511 170 512 c 0
 158 513 152 517 152 525 c 0
 152 540 177 540 189 540 c 0
 211 545 222 559 222 580 c 0
 222 599 210 609 185 609 c 0
 174 609 148 600 139 600 c 0
EndSplineSet
EndChar

StartChar: twosuperior
Encoding: 178 178 167
GlifName: twosuperior
Width: 408
Flags: MW
HStem: 430 26<194 291 194 291> 623 26<193 222.5>
LayerCount: 2
Back
Fore
SplineSet
149 430 m 1
 119 412 l 2
 115 410 111 409 108 409 c 0xc0
 96 409 90 414 90 423 c 0
 90 426 92 429 97 432 c 0
 166 473 200 494 201 495 c 0
 242 524 262 552 259 578 c 0
 256 608 238 623 207 623 c 0
 179 623 153 605 153 577 c 0
 153 568 147 564 136 564 c 0
 124 564 118 568 118 577 c 0
 118 621 160 649 208 649 c 0
 252 649 289 624 293 579 c 0
 296 553 288 530 269 510 c 0
 255 495 230 477 194 456 c 1
 291 456 l 2
 302 456 308 452 308 443 c 0
 308 434 302 430 291 430 c 2
 149 430 l 1
EndSplineSet
EndChar

StartChar: brokenbar
Encoding: 166 166 168
GlifName: brokenbar
Width: 235
Flags: MW
HStem: 24 21G<104.5 129.5> 678 20G<104.5 129.5>
VStem: 80 75<61 321 433 661>
LayerCount: 2
Back
Fore
SplineSet
155 661 m 2
 155 433 l 2
 155 408 142 396 117 396 c 0
 92 396 80 408 80 433 c 2
 80 661 l 2
 80 686 92 698 117 698 c 0
 142 698 155 686 155 661 c 2
155 321 m 2
 155 61 l 2
 155 36 142 24 117 24 c 0
 92 24 80 36 80 61 c 2
 80 321 l 2
 80 346 92 358 117 358 c 0
 142 358 155 346 155 321 c 2
EndSplineSet
EndChar

StartChar: minus
Encoding: 8722 8722 169
GlifName: minus
Width: 504
Flags: MW
HStem: 191 75<75.5 416 88 416>
LayerCount: 2
Back
Fore
SplineSet
88 266 m 2
 416 266 l 2
 441 266 454 253 454 228 c 0
 454 203 441 191 416 191 c 2
 88 191 l 2
 63 191 50 203 50 228 c 0
 50 253 63 266 88 266 c 2
EndSplineSet
EndChar

StartChar: multiply
Encoding: 215 215 170
GlifName: multiply
Width: 636
Flags: MW
HStem: 85 21G<95 110.5 525.5 541> 635 20G<518 535.5> 637 20G<95 110.5>
LayerCount: 2
Back
Fore
SplineSet
316 432 m 1xa0
 494 641 l 2
 502 650 512 655 524 655 c 0xc0
 547 655 569 637 569 616 c 0
 569 609 566 602 560 595 c 2
 369 371 l 1
 560 148 l 2
 567 140 570 132 570 123 c 0
 570 103 551 85 531 85 c 0
 520 85 511 90 503 99 c 2
 318 314 l 1
 133 99 l 2
 125 90 116 85 105 85 c 0
 85 85 67 103 67 123 c 0
 67 132 70 140 76 148 c 2
 268 374 l 1
 76 595 l 2
 70 602 67 610 67 619 c 0
 67 639 85 657 105 657 c 0
 116 657 125 653 133 644 c 2
 316 432 l 1xa0
EndSplineSet
EndChar

StartChar: Adieresis
Encoding: 196 196 171
GlifName: A_dieresis
Width: 509
Flags: MW
HStem: -201 21G<372.5 397.5> 241 75<82 82 157 348> 503 75<40.5 82 53 82 157 273> 503 124<40.5 132.5 53 132.5 107.5 273 107.5 157> 672 107<103 131.5> 761 20G<313.5 342>
VStem: 16 141 39 118 66 103<710.5 739.5> 82 75<-2 241 316 503 578 589> 276 104<713.5 742.5> 347 75<-175.5 -163>
LayerCount: 2
Back
Fore
SplineSet
82 -2 m 2xea10
 82 241 l 1xe860
 76 240 l 1
 51 240 39 253 39 278 c 0xe920
 39 303 51 315 76 315 c 1
 82 316 l 1
 82 503 l 1xe860
 53 503 l 2
 28 503 16 515 16 540 c 0xea20
 16 565 28 578 53 578 c 2
 82 578 l 1xe860
 82 589 l 2
 83 614 95 627 120 627 c 0xd860
 145 627 158 614 157 589 c 2
 157 578 l 1
 277 578 l 2
 341 578 383 556 404 513 c 0
 417 487 423 440 423 371 c 2
 422 -163 l 2
 422 -188 410 -201 385 -201 c 0
 360 -201 347 -188 347 -163 c 2
 348 241 l 1
 157 241 l 1
 157 -2 l 2
 157 -27 145 -39 120 -39 c 0
 95 -39 82 -27 82 -2 c 2xea10
157 503 m 1
 157 316 l 1
 348 316 l 1
 348 369 l 2
 349 418 346 450 340 467 c 0
 333 487 311 499 273 503 c 1
 157 503 l 1
66 725 m 0xe8a0
 66 754 89 779 117 779 c 0
 146 779 169 754 169 725 c 0
 169 696 146 672 117 672 c 0
 89 672 66 696 66 725 c 0xe8a0
276 728 m 0
 276 757 299 781 328 781 c 0xe620
 356 781 380 757 380 728 c 0
 380 699 356 675 328 675 c 0
 299 675 276 699 276 728 c 0
EndSplineSet
EndChar

StartChar: Aring
Encoding: 197 197 172
GlifName: A_ring
Width: 509
Flags: MW
HStem: -201 21G<372.5 397.5> 241 75<82 82 157 348> 503 75<40.5 82 53 82 157 273> 503 124<40.5 132.5 53 132.5 107.5 273 107.5 157> 629 45<261 285.5 261 298.5> 765 46<261 285.5>
VStem: 16 141 39 118 82 75<-2 241 316 503 578 589> 183 45<707.5 732 707.5 744.5> 319 45<707.5 732.5> 347 75<-175.5 -163>
LayerCount: 2
Back
Fore
SplineSet
82 -2 m 2xee50
 82 241 l 1xece0
 76 240 l 1
 51 240 39 253 39 278 c 0xed60
 39 303 51 315 76 315 c 1
 82 316 l 1
 82 503 l 1xece0
 53 503 l 2
 28 503 16 515 16 540 c 0xee60
 16 565 28 578 53 578 c 2
 82 578 l 1xece0
 82 589 l 2
 83 614 95 627 120 627 c 0xdce0
 145 627 158 614 157 589 c 2
 157 578 l 1
 277 578 l 2
 341 578 383 556 404 513 c 0
 417 487 423 440 423 371 c 2
 422 -163 l 2
 422 -188 410 -201 385 -201 c 0
 360 -201 347 -188 347 -163 c 2
 348 241 l 1
 157 241 l 1
 157 -2 l 2
 157 -27 145 -39 120 -39 c 0
 95 -39 82 -27 82 -2 c 2xee50
157 503 m 1
 157 316 l 1
 348 316 l 1
 348 369 l 2
 349 418 346 450 340 467 c 0
 333 487 311 499 273 503 c 1
 157 503 l 1
273 674 m 0
 298 674 319 695 319 720 c 0
 319 745 298 765 273 765 c 0
 249 765 228 744 228 720 c 0
 228 695 249 674 273 674 c 0
273 629 m 0
 224 629 183 669 183 720 c 0
 183 769 224 811 273 811 c 0
 324 811 364 769 364 720 c 0
 364 669 324 629 273 629 c 0
EndSplineSet
EndChar

StartChar: Ccedilla
Encoding: 199 199 173
GlifName: C_cedilla
Width: 509
Flags: MW
HStem: -256 50<87.5 111 87.5 124.5> -132 144<88 264> -63 75<232.5 264 197 297> 473 162<220.5 417> 560 75<234 280>
VStem: 14 44 14 75<205.5 320 191.5 327.5> 70 121<-191.5 -105.5> 141 50<-177.5 -157.5>
LayerCount: 2
Back
Fore
SplineSet
247 -63 m 0xca80
 218 -63 190 -57 163 -46 c 1
 137 -90 l 1
 173 -105 191 -131 191 -167 c 0
 191 -216 150 -256 99 -256 c 0
 50 -256 8 -216 8 -167 c 0
 8 -150 16 -142 33 -142 c 0
 50 -142 58 -150 58 -167 c 0
 58 -188 76 -206 99 -206 c 0
 123 -206 141 -188 141 -167 c 0xb480
 141 -148 122 -132 97 -132 c 0
 79 -132 70 -126 70 -113 c 0
 70 -98 87 -68 120 -22 c 1
 49 34 14 134 14 277 c 0
 14 378 35 461 76 527 c 0
 121 599 182 635 259 635 c 0
 325 635 384 601 437 534 c 0
 443 527 446 519 446 511 c 0
 446 490 427 473 407 473 c 0xd5
 396 473 386 478 378 488 c 0
 341 536 301 560 259 560 c 0
 209 560 168 534 136 483 c 0
 105 432 89 363 89 277 c 0
 89 106 147 12 247 12 c 0
 281 12 308 16 328 24 c 0
 357 35 380 55 397 84 c 0
 404 96 415 102 428 102 c 0
 448 102 467 86 467 65 c 0
 467 58 465 52 462 45 c 0
 419 -27 347 -63 247 -63 c 0xca80
EndSplineSet
EndChar

StartChar: Eacute
Encoding: 201 201 174
GlifName: E_acute
Width: 509
Flags: MW
HStem: -42 117<65 160> 0 75<52.5 111 65 111 186 442> 265 75<186 403.5> 513 75<396 408.5> 513 107
VStem: 29 157 111 75<-6 -4 -4 0 -16.5 0 75 265 341 514>
LayerCount: 2
Back
Fore
SplineSet
186 0 m 1x74
 186 -4 l 2
 186 -29 173 -42 147 -42 c 0xb4
 122 -42 110 -30 111 -6 c 2
 111 0 l 1
 65 0 l 2x72
 40 0 27 13 27 38 c 0
 27 63 40 75 65 75 c 2
 111 75 l 1
 111 514 l 1xb2
 66 514 l 2
 41 514 29 526 29 551 c 0xb4
 29 576 41 589 66 589 c 2
 111 589 l 1
 113 610 125 620 148 620 c 0xaa
 171 620 183 610 186 589 c 1
 396 588 l 2
 421 588 434 576 434 551 c 0
 434 526 421 513 396 513 c 2
 186 514 l 1
 186 341 l 1
 391 340 l 2
 416 340 428 328 428 303 c 0
 428 278 416 265 391 265 c 2
 186 265 l 1
 186 75 l 1
 442 75 l 2
 467 75 480 63 480 38 c 0
 480 13 467 0 442 0 c 2
 186 0 l 1x74
EndSplineSet
EndChar

StartChar: Ntilde
Encoding: 209 209 175
GlifName: N_tilde
Width: 416
Flags: MW
HStem: -200 21G<55 80> 664 45<282.5 298.5 282.5 306.5> 664 118
VStem: 31 75<-164 -161 -161 372 527 588> 287 75<-7 3>
LayerCount: 2
Back
Fore
SplineSet
288 45 m 1xd8
 106 372 l 1
 106 -161 l 2
 106 -187 93 -200 67 -200 c 0
 43 -200 31 -188 31 -164 c 2
 31 588 l 2
 31 613 43 626 68 626 c 0
 93 626 106 613 106 588 c 2
 106 527 l 1
 288 200 l 1
 287 594 l 2
 287 619 300 631 325 631 c 0
 350 631 362 619 362 594 c 2
 362 6 l 2
 362 -20 349 -33 323 -33 c 0
 299 -33 287 -21 287 3 c 2
 288 45 l 1xd8
52 713 m 0
 80 742 111 782 147 782 c 0xb8
 168 782 190 776 239 733 c 0
 259 717 276 709 289 709 c 0
 308 709 330 723 356 751 c 0
 361 756 366 759 372 759 c 0
 388 759 396 751 396 736 c 0
 396 731 394 726 389 721 c 0
 355 683 322 664 291 664 c 0
 267 664 239 676 208 700 c 0
 177 724 157 736 147 736 c 0
 138 736 129 730 118 719 c 2
 83 680 l 2
 78 675 73 673 67 673 c 0
 52 673 44 681 44 696 c 0
 44 702 47 708 52 713 c 0
EndSplineSet
EndChar

StartChar: Odieresis
Encoding: 214 214 176
GlifName: O_dieresis
Width: 403
Flags: MW
HStem: -20 75<173.5 241.5 167.5 266.5> 560 75<186.5 219.5> 666 107<95 123.5> 755 20G<305.5 334>
VStem: 16 75<238.5 328 208.5 334> 58 103<704.5 733.5> 268 104<707.5 736.5> 312 75<218.5 343.5>
LayerCount: 2
Back
Fore
SplineSet
203 635 m 0xe6
 267 635 315 601 347 534 c 0
 374 477 387 399 387 300 c 0
 387 87 327 -20 206 -20 c 0
 141 -20 92 9 59 67 c 0
 30 119 16 192 16 285 c 0xe9
 16 383 30 463 58 526 c 0
 91 599 140 635 203 635 c 0xe6
203 560 m 0
 170 560 144 536 123 489 c 0
 102 439 91 371 91 285 c 0
 91 132 129 55 206 55 c 0
 277 55 312 137 312 300 c 0
 312 387 302 452 281 497 c 0
 262 539 236 560 203 560 c 0
58 719 m 0xe6
 58 748 81 773 109 773 c 0
 138 773 161 748 161 719 c 0
 161 690 138 666 109 666 c 0
 81 666 58 690 58 719 c 0xe6
268 722 m 0
 268 751 291 775 320 775 c 0xda
 348 775 372 751 372 722 c 0
 372 693 348 669 320 669 c 0
 291 669 268 693 268 722 c 0
EndSplineSet
EndChar

StartChar: Udieresis
Encoding: 220 220 177
GlifName: U_dieresis
Width: 509
Flags: MW
HStem: -40 75<204 249.5> 622 20G<350.5 375.5> 645 20G<324.5 353> 662 107<114 142.5> 751 20G<324.5 353>
VStem: 56 75<118 536 536 537 117 548.5> 77 103<700.5 729.5> 287 114<126 732.5> 326 75<126 604 126 616.5>
LayerCount: 2
Back
Fore
SplineSet
226 -40 m 0xd5
 182 -40 144 -25 112 6 c 0
 80 37 61 74 56 118 c 1
 56 536 l 2
 56 561 68 574 93 574 c 0
 118 574 131 562 131 537 c 2
 131 117 l 1
 142 69 178 35 226 35 c 0
 278 35 321 75 326 126 c 1
 326 604 l 2xd480
 326 629 338 642 363 642 c 0
 388 642 401 629 401 604 c 2
 401 126 l 2
 398 79 380 40 346 8 c 0
 313 -24 273 -40 226 -40 c 0xd5
77 715 m 0xd3
 77 744 100 769 128 769 c 0
 157 769 180 744 180 715 c 0
 180 686 157 662 128 662 c 0
 100 662 77 686 77 715 c 0xd3
287 718 m 0
 287 747 310 771 339 771 c 0
 367 771 391 747 391 718 c 0
 391 689 367 665 339 665 c 0xed
 310 665 287 689 287 718 c 0
EndSplineSet
EndChar

StartChar: aacute
Encoding: 225 225 178
GlifName: aacute
Width: 498
Flags: MW
HStem: -25 75<181 245.5 181 254.5> 207 204<321.5 441.5> 317 77<199.5 221.5 199.5 223.5> 608 20G<270.5 278.5>
VStem: 370 22<232.5 260> 392 75<190 303>
LayerCount: 2
Back
Fore
SplineSet
296 235 m 0xd8
 281 290 249 317 198 317 c 0xb8
 171 317 148 308 127 289 c 0
 104 269 90 242 83 207 c 0
 82 197 81 187 81 178 c 0
 81 101 141 50 221 50 c 0
 270 50 310 61 340 82 c 0
 375 107 392 143 392 190 c 2
 392 303 l 1
 392 338 l 2
 391 347 391 359 391 374 c 0
 392 399 404 411 429 411 c 0xd8
 454 411 467 398 466 373 c 2
 466 338 l 2
 467 328 467 316 467 303 c 2
 467 190 l 2
 467 121 442 67 393 28 c 0
 348 -7 290 -25 219 -25 c 0
 140 -25 80 6 39 69 c 0
 1 128 -6 190 17 255 c 0
 42 326 96 371 179 391 c 0
 187 393 195 394 204 394 c 0xb4
 239 394 275 377 313 344 c 0
 351 311 370 277 370 243 c 0
 370 222 351 207 331 207 c 0
 312 207 301 216 296 235 c 0xd8
167 466 m 2
 263 623 l 2
 265 626 268 628 273 628 c 0
 284 628 297 620 312 603 c 0
 328 586 336 572 336 561 c 0
 336 556 335 553 332 550 c 2
 197 432 l 2
 192 428 186 426 181 426 c 0
 168 426 162 434 162 449 c 0
 162 455 164 461 167 466 c 2
EndSplineSet
EndChar

StartChar: agrave
Encoding: 224 224 179
GlifName: agrave
Width: 498
Flags: MW
HStem: -25 75<181 245.5 181 254.5> 207 204<321.5 441.5> 317 77<199.5 221.5 199.5 223.5> 626 20G<186.5 194>
VStem: 370 22<232.5 260> 392 75<166.5 303 190 303 303 309.5 190 338>
LayerCount: 2
Back
Fore
SplineSet
296 235 m 0xb8
 301 216 312 207 331 207 c 0
 351 207 370 222 370 243 c 0xd8
 370 277 351 311 313 344 c 0
 275 377 239 394 204 394 c 0
 195 394 187 393 179 391 c 0
 96 371 42 326 17 255 c 0
 -6 190 1 128 39 69 c 0
 80 6 140 -25 219 -25 c 0
 290 -25 348 -7 393 28 c 0
 442 67 467 121 467 190 c 2
 467 303 l 2xb4
 467 316 467 328 466 338 c 2
 466 373 l 2
 467 398 454 411 429 411 c 0
 404 411 392 399 391 374 c 0
 391 359 391 347 392 338 c 2
 392 303 l 1
 392 190 l 2
 392 143 375 107 340 82 c 0
 310 61 270 50 221 50 c 0
 141 50 81 101 81 178 c 0
 81 187 82 197 83 207 c 0xd8
 90 242 104 269 127 289 c 0
 148 308 171 317 198 317 c 0
 249 317 281 290 296 235 c 0xb8
297 484 m 2
 301 479 303 473 303 467 c 0
 303 452 296 444 283 444 c 0
 278 444 273 446 268 450 c 2
 132 568 l 2
 129 571 128 574 128 579 c 0
 128 590 136 604 152 621 c 0
 168 638 181 646 192 646 c 0
 196 646 199 644 201 641 c 2
 297 484 l 2
EndSplineSet
EndChar

StartChar: acircumflex
Encoding: 226 226 180
GlifName: acircumflex
Width: 498
Flags: MW
HStem: -25 75<181 245.5 181 254.5> 207 204<321.5 441.5> 317 77<199.5 221.5 199.5 223.5> 411 34 599 20G<228.5 239.5>
VStem: 370 22<232.5 260> 392 75<190 303>
LayerCount: 2
Back
Fore
SplineSet
296 235 m 0xcc
 281 290 249 317 198 317 c 0xbc
 171 317 148 308 127 289 c 0
 104 269 90 242 83 207 c 0
 82 197 81 187 81 178 c 0
 81 101 141 50 221 50 c 0
 270 50 310 61 340 82 c 0
 375 107 392 143 392 190 c 2
 392 303 l 1
 392 338 l 2
 391 347 391 359 391 374 c 0
 392 399 404 411 429 411 c 0xcc
 454 411 467 398 466 373 c 2
 466 338 l 2
 467 328 467 316 467 303 c 2
 467 190 l 2
 467 121 442 67 393 28 c 0
 348 -7 290 -25 219 -25 c 0
 140 -25 80 6 39 69 c 0
 1 128 -6 190 17 255 c 0
 42 326 96 371 179 391 c 0
 187 393 195 394 204 394 c 0xba
 239 394 275 377 313 344 c 0
 351 311 370 277 370 243 c 0
 370 222 351 207 331 207 c 0
 312 207 301 216 296 235 c 0xcc
89 484 m 2
 185 585 l 2
 206 608 223 619 234 619 c 0
 245 619 261 608 282 587 c 2
 375 490 l 2
 380 485 382 480 382 474 c 0
 382 459 374 451 359 451 c 0
 353 451 348 453 343 458 c 2
 235 566 l 1
 121 452 l 2
 116 447 111 445 105 445 c 0
 90 445 82 453 82 468 c 0
 82 474 84 479 89 484 c 2
EndSplineSet
EndChar

StartChar: adieresis
Encoding: 228 228 181
GlifName: adieresis
Width: 498
Flags: MW
HStem: -25 75<181 245.5 181 254.5> 207 204<321.5 441.5> 317 77<199.5 221.5 199.5 223.5> 476 107<130 158.5> 565 20G<340.5 369>
VStem: 196 107<517.5 543.5> 303 104<517.5 546.5> 370 22<232.5 260> 392 75<190 303>
LayerCount: 2
Back
Fore
SplineSet
296 235 m 0xd5
 281 290 249 317 198 317 c 0xb5
 171 317 148 308 127 289 c 0
 104 269 90 242 83 207 c 0
 82 197 81 187 81 178 c 0
 81 101 141 50 221 50 c 0
 270 50 310 61 340 82 c 0
 375 107 392 143 392 190 c 2
 392 303 l 1
 392 338 l 2
 391 347 391 359 391 374 c 0
 392 399 404 411 429 411 c 0xd5
 454 411 467 398 466 373 c 2
 466 338 l 2
 467 328 467 316 467 303 c 2
 467 190 l 2
 467 121 442 67 393 28 c 0
 348 -7 290 -25 219 -25 c 0
 140 -25 80 6 39 69 c 0
 1 128 -6 190 17 255 c 0
 42 326 96 371 179 391 c 0
 187 393 195 394 204 394 c 0xb480
 239 394 275 377 313 344 c 0
 351 311 370 277 370 243 c 0
 370 222 351 207 331 207 c 0
 312 207 301 216 296 235 c 0xd5
93 529 m 0
 93 558 116 583 144 583 c 0
 173 583 196 558 196 529 c 0
 196 500 173 476 144 476 c 0
 116 476 93 500 93 529 c 0
303 532 m 0
 303 561 326 585 355 585 c 0
 383 585 407 561 407 532 c 0xca
 407 503 383 479 355 479 c 0
 326 479 303 503 303 532 c 0
EndSplineSet
EndChar

StartChar: atilde
Encoding: 227 227 182
GlifName: atilde
Width: 498
Flags: MW
HStem: -25 75<181 245.5 181 254.5> 207 204<321.5 441.5> 317 77<199.5 221.5 199.5 223.5> 448 45<300.5 316.5 300.5 324.5> 448 118
VStem: 370 22<232.5 260> 392 75<190 303>
LayerCount: 2
Back
Fore
SplineSet
296 235 m 0xd4
 281 290 249 317 198 317 c 0xb4
 171 317 148 308 127 289 c 0
 104 269 90 242 83 207 c 0
 82 197 81 187 81 178 c 0
 81 101 141 50 221 50 c 0
 270 50 310 61 340 82 c 0
 375 107 392 143 392 190 c 2
 392 303 l 1
 392 338 l 2
 391 347 391 359 391 374 c 0
 392 399 404 411 429 411 c 0xd4
 454 411 467 398 466 373 c 2
 466 338 l 2
 467 328 467 316 467 303 c 2
 467 190 l 2
 467 121 442 67 393 28 c 0
 348 -7 290 -25 219 -25 c 0
 140 -25 80 6 39 69 c 0
 1 128 -6 190 17 255 c 0
 42 326 96 371 179 391 c 0
 187 393 195 394 204 394 c 0xb2
 239 394 275 377 313 344 c 0
 351 311 370 277 370 243 c 0
 370 222 351 207 331 207 c 0
 312 207 301 216 296 235 c 0xd4
70 497 m 0
 98 526 129 566 165 566 c 0xcc
 186 566 208 560 257 517 c 0
 277 501 294 493 307 493 c 0
 326 493 348 507 374 535 c 0
 379 540 384 543 390 543 c 0
 406 543 414 535 414 520 c 0
 414 515 412 510 407 505 c 0
 373 467 340 448 309 448 c 0
 285 448 257 460 226 484 c 0
 195 508 175 520 165 520 c 0
 156 520 147 514 136 503 c 2
 101 464 l 2
 96 459 91 457 85 457 c 0
 70 457 62 465 62 480 c 0
 62 486 65 492 70 497 c 0
EndSplineSet
EndChar

StartChar: aring
Encoding: 229 229 183
GlifName: aring
Width: 498
Flags: MW
HStem: -25 75<181 245.5 181 254.5> 207 204<321.5 441.5> 317 77<199.5 221.5 199.5 223.5> 445 45<215 239.5 215 252.5> 581 46<215 239.5>
VStem: 182 91<523.5 548> 318 74 370 22<232.5 260> 392 75<190 303>
LayerCount: 2
Back
Fore
SplineSet
296 235 m 0xdd
 281 290 249 317 198 317 c 0xbe
 171 317 148 308 127 289 c 0
 104 269 90 242 83 207 c 0
 82 197 81 187 81 178 c 0
 81 101 141 50 221 50 c 0
 270 50 310 61 340 82 c 0
 375 107 392 143 392 190 c 2
 392 303 l 1
 392 338 l 2
 391 347 391 359 391 374 c 0
 392 399 404 411 429 411 c 0xde
 454 411 467 398 466 373 c 2
 466 338 l 2
 467 328 467 316 467 303 c 2
 467 190 l 2
 467 121 442 67 393 28 c 0
 348 -7 290 -25 219 -25 c 0
 140 -25 80 6 39 69 c 0
 1 128 -6 190 17 255 c 0
 42 326 96 371 179 391 c 0
 187 393 195 394 204 394 c 0xbc80
 239 394 275 377 313 344 c 0
 351 311 370 277 370 243 c 0
 370 222 351 207 331 207 c 0
 312 207 301 216 296 235 c 0xdd
227 490 m 0
 252 490 273 511 273 536 c 0
 273 561 252 581 227 581 c 0
 203 581 182 560 182 536 c 0
 182 511 203 490 227 490 c 0
227 445 m 0
 178 445 137 485 137 536 c 0
 137 585 178 627 227 627 c 0
 278 627 318 585 318 536 c 0
 318 485 278 445 227 445 c 0
EndSplineSet
EndChar

StartChar: ccedilla
Encoding: 231 231 184
GlifName: ccedilla
Width: 368
Flags: MW
HStem: -187 35<78.5 106 78.5 115.5> -14 59<184.5 212.5> 259 140<198.5 320.5> 328 71<198.5 211>
VStem: 10 34 10 71<170.5 185.5 163 215> 141 35<-120 -102>
LayerCount: 2
Back
Fore
SplineSet
176 397 m 0xea
 185 398 194 399 203 399 c 0
 261 399 306 367 339 303 c 0
 342 298 344 292 344 287 c 0
 344 268 332 259 309 259 c 0xea
 290 259 276 267 267 284 c 0
 251 313 227 328 195 328 c 0
 170 328 147 318 127 299 c 0
 105 277 90 246 83 207 c 0
 82 198 81 190 81 181 c 0xd6
 81 145 92 113 114 86 c 0
 137 59 165 45 198 45 c 0
 228 45 259 57 290 81 c 0
 299 85 307 87 314 87 c 0
 338 87 350 77 350 56 c 0
 350 40 340 27 319 18 c 0
 274 -3 232 -14 193 -14 c 0
 176 -14 161 -12 147 -9 c 1
 125 -34 l 1
 159 -48 176 -73 176 -108 c 0
 176 -152 139 -187 92 -187 c 0
 47 -187 9 -152 9 -108 c 0
 9 -96 15 -90 26 -90 c 0
 38 -90 44 -96 44 -108 c 0
 44 -132 65 -152 92 -152 c 0
 120 -152 141 -132 141 -108 c 0
 141 -96 136 -85 127 -76 c 0
 118 -67 106 -63 93 -63 c 0
 80 -63 74 -59 74 -52 c 0
 74 -42 86 -23 111 6 c 1
 79 23 54 48 36 83 c 0
 19 116 10 151 10 190 c 0
 10 240 23 283 50 320 c 0
 80 361 122 387 176 397 c 0xea
EndSplineSet
EndChar

StartChar: eacute
Encoding: 233 233 185
GlifName: eacute
Width: 458
Flags: MW
HStem: -22 75<216.5 262.5 216.5 275> -22 152<206.5 397> 202 75<151.5 164 151.5 414> 347 75<216.5 266 207.5 266.5> 650 20G<264.5 272.5>
VStem: 14 75<179.5 220 179.5 230.5>
LayerCount: 2
Back
Fore
SplineSet
164 277 m 2x7c
 363 278 l 1
 338 324 296 347 237 347 c 0
 196 347 161 332 132 303 c 0
 103 274 89 240 89 200 c 0
 89 159 103 125 132 96 c 0
 161 67 196 53 237 53 c 0xbc
 288 53 328 73 358 114 c 0
 365 125 375 130 387 130 c 0
 407 130 426 112 426 92 c 0
 426 85 423 77 418 70 c 0
 373 9 313 -22 237 -22 c 0
 176 -22 123 0 79 43 c 0
 36 86 14 139 14 200 c 0
 14 261 36 314 80 357 c 0
 124 400 177 422 238 422 c 0
 294 422 341 406 380 373 c 0
 419 341 442 299 451 246 c 0
 455 222 439 202 414 202 c 2
 164 202 l 2
 139 202 126 215 126 240 c 0
 126 265 139 277 164 277 c 2x7c
161 508 m 2
 257 665 l 2
 259 668 262 670 267 670 c 0
 278 670 291 662 306 645 c 0
 322 628 330 614 330 603 c 0
 330 598 329 595 326 592 c 2
 191 474 l 2
 186 470 180 468 175 468 c 0
 162 468 156 476 156 491 c 0
 156 497 158 503 161 508 c 2
EndSplineSet
EndChar

StartChar: egrave
Encoding: 232 232 186
GlifName: egrave
Width: 458
Flags: MW
HStem: -22 75<216.5 262.5 216.5 275> -22 152<206.5 397> 202 75<151.5 414> 347 75<216.5 266 207.5 266.5> 629 20G<207.5 215>
VStem: 14 75<179.5 220 179.5 230.5>
LayerCount: 2
Back
Fore
SplineSet
164 277 m 2xbc
 139 277 126 265 126 240 c 0
 126 215 139 202 164 202 c 2
 414 202 l 2
 439 202 455 222 451 246 c 0
 442 299 419 341 380 373 c 0
 341 406 294 422 238 422 c 0
 177 422 124 400 80 357 c 0
 36 314 14 261 14 200 c 0
 14 139 36 86 79 43 c 0
 123 0 176 -22 237 -22 c 0
 313 -22 373 9 418 70 c 0
 423 77 426 85 426 92 c 0
 426 112 407 130 387 130 c 0x7c
 375 130 365 125 358 114 c 0
 328 73 288 53 237 53 c 0
 196 53 161 67 132 96 c 0
 103 125 89 159 89 200 c 0
 89 240 103 274 132 303 c 0
 161 332 196 347 237 347 c 0
 296 347 338 324 363 278 c 1
 164 277 l 2xbc
318 487 m 2
 322 482 324 476 324 470 c 0
 324 455 317 447 304 447 c 0
 299 447 294 449 289 453 c 2
 153 571 l 2
 150 574 149 577 149 582 c 0
 149 593 157 607 173 624 c 0
 189 641 202 649 213 649 c 0
 217 649 220 647 222 644 c 2
 318 487 l 2
EndSplineSet
EndChar

StartChar: ecircumflex
Encoding: 234 234 187
GlifName: ecircumflex
Width: 458
Flags: MW
HStem: -22 75<216.5 262.5 216.5 275> 130 72<381 397> 202 75<151.5 164 151.5 414> 347 75<216.5 266 207.5 266.5> 422 29 605 20G<240.5 251.5>
VStem: 14 75<179.5 220 179.5 230.5>
LayerCount: 2
Back
Fore
SplineSet
164 277 m 2xb6
 363 278 l 1
 338 324 296 347 237 347 c 0
 196 347 161 332 132 303 c 0
 103 274 89 240 89 200 c 0
 89 159 103 125 132 96 c 0
 161 67 196 53 237 53 c 0
 288 53 328 73 358 114 c 0
 365 125 375 130 387 130 c 0xd6
 407 130 426 112 426 92 c 0
 426 85 423 77 418 70 c 0
 373 9 313 -22 237 -22 c 0
 176 -22 123 0 79 43 c 0
 36 86 14 139 14 200 c 0
 14 261 36 314 80 357 c 0
 124 400 177 422 238 422 c 0
 294 422 341 406 380 373 c 0
 419 341 442 299 451 246 c 0
 455 222 439 202 414 202 c 2
 164 202 l 2
 139 202 126 215 126 240 c 0
 126 265 139 277 164 277 c 2xb6
101 490 m 2xae
 197 591 l 2
 218 614 235 625 246 625 c 0
 257 625 273 614 294 593 c 2
 387 496 l 2
 392 491 394 486 394 480 c 0
 394 465 386 457 371 457 c 0
 365 457 360 459 355 464 c 2
 247 572 l 1
 133 458 l 2
 128 453 123 451 117 451 c 0
 102 451 94 459 94 474 c 0
 94 480 96 485 101 490 c 2xae
EndSplineSet
EndChar

StartChar: edieresis
Encoding: 235 235 188
GlifName: edieresis
Width: 463
Flags: MW
HStem: -22 75<216.5 262.5 216.5 275> -22 152<206.5 397> 202 75<151.5 164 151.5 414> 347 75<216.5 266 207.5 266.5> 459 107<166 194.5> 548 20G<301.5 330>
VStem: 14 75<179.5 220 179.5 230.5> 126 106 264 104<500.5 529.5>
LayerCount: 2
Back
Fore
SplineSet
164 277 m 2x7b80
 363 278 l 1
 338 324 296 347 237 347 c 0
 196 347 161 332 132 303 c 0
 103 274 89 240 89 200 c 0
 89 159 103 125 132 96 c 0
 161 67 196 53 237 53 c 0xbb80
 288 53 328 73 358 114 c 0
 365 125 375 130 387 130 c 0
 407 130 426 112 426 92 c 0
 426 85 423 77 418 70 c 0
 373 9 313 -22 237 -22 c 0
 176 -22 123 0 79 43 c 0
 36 86 14 139 14 200 c 0
 14 261 36 314 80 357 c 0
 124 400 177 422 238 422 c 0
 294 422 341 406 380 373 c 0
 419 341 442 299 451 246 c 0
 455 222 439 202 414 202 c 2
 164 202 l 2
 139 202 126 215 126 240 c 0
 126 265 139 277 164 277 c 2x7b80
129 512 m 0
 129 541 152 566 180 566 c 0
 209 566 232 541 232 512 c 0
 232 483 209 459 180 459 c 0
 152 459 129 483 129 512 c 0
264 515 m 0
 264 544 287 568 316 568 c 0xb780
 344 568 368 544 368 515 c 0
 368 486 344 462 316 462 c 0
 287 462 264 486 264 515 c 0
EndSplineSet
EndChar

StartChar: iacute
Encoding: 237 237 189
GlifName: iacute
Width: 263
Flags: MW
HStem: -17 21G<99 124> 645 20G<161.5 169.5>
VStem: 75 75<19 385>
LayerCount: 2
Back
Fore
SplineSet
150 385 m 2
 150 19 l 2
 150 -5 137 -17 111 -17 c 0
 87 -17 75 -5 75 19 c 2
 75 385 l 2
 75 410 87 422 112 422 c 0
 137 422 150 410 150 385 c 2
58 503 m 2
 154 660 l 2
 156 663 159 665 164 665 c 0
 175 665 188 657 203 640 c 0
 219 623 227 609 227 598 c 0
 227 593 226 590 223 587 c 2
 88 469 l 2
 83 465 77 463 72 463 c 0
 59 463 53 471 53 486 c 0
 53 492 55 498 58 503 c 2
EndSplineSet
EndChar

StartChar: igrave
Encoding: 236 236 190
GlifName: igrave
Width: 200
Flags: MW
HStem: -26 21G<79 104> 627 20G<74.5 82>
VStem: 55 75<-2 376 10 376>
LayerCount: 2
Back
Fore
SplineSet
130 376 m 2
 130 401 117 413 92 413 c 0
 67 413 55 401 55 376 c 2
 55 10 l 2
 55 -14 67 -26 91 -26 c 0
 117 -26 130 -14 130 10 c 2
 130 376 l 2
185 485 m 2
 189 480 191 474 191 468 c 0
 191 453 184 445 171 445 c 0
 166 445 161 447 156 451 c 2
 20 569 l 2
 17 572 16 575 16 580 c 0
 16 591 24 605 40 622 c 0
 56 639 69 647 80 647 c 0
 84 647 87 645 89 642 c 2
 185 485 l 2
EndSplineSet
EndChar

StartChar: icircumflex
Encoding: 238 238 191
GlifName: icircumflex
Width: 341
Flags: MW
HStem: -29 21G<157 182> 607 20G<171.5 182.5>
VStem: 133 75<7 373>
LayerCount: 2
Back
Fore
SplineSet
208 373 m 2
 208 7 l 2
 208 -17 195 -29 169 -29 c 0
 145 -29 133 -17 133 7 c 2
 133 373 l 2
 133 398 145 410 170 410 c 0
 195 410 208 398 208 373 c 2
32 492 m 2
 128 593 l 2
 149 616 166 627 177 627 c 0
 188 627 204 616 225 595 c 2
 318 498 l 2
 323 493 325 488 325 482 c 0
 325 467 317 459 302 459 c 0
 296 459 291 461 286 466 c 2
 178 574 l 1
 64 460 l 2
 59 455 54 453 48 453 c 0
 33 453 25 461 25 476 c 0
 25 482 27 487 32 492 c 2
EndSplineSet
EndChar

StartChar: idieresis
Encoding: 239 239 192
GlifName: idieresis
Width: 356
Flags: MW
HStem: -32 21G<154 179> 445 107<46 74.5> 534 20G<256.5 285>
VStem: 9 103<483.5 512.5> 130 75<4 370> 219 104<486.5 515.5>
LayerCount: 2
Back
Fore
SplineSet
205 370 m 2xdc
 205 4 l 2
 205 -20 192 -32 166 -32 c 0
 142 -32 130 -20 130 4 c 2
 130 370 l 2
 130 395 142 407 167 407 c 0
 192 407 205 395 205 370 c 2xdc
9 498 m 0
 9 527 32 552 60 552 c 0
 89 552 112 527 112 498 c 0
 112 469 89 445 60 445 c 0
 32 445 9 469 9 498 c 0
219 501 m 0
 219 530 242 554 271 554 c 0xbc
 299 554 323 530 323 501 c 0
 323 472 299 448 271 448 c 0
 242 448 219 472 219 501 c 0
EndSplineSet
EndChar

StartChar: ntilde
Encoding: 241 241 193
GlifName: ntilde
Width: 390
Flags: MW
HStem: -200 21G<298.5 323.5> 334 75<161.5 206.5 161.5 210.5> 452 45<257.5 273.5 257.5 281.5> 452 118
VStem: 14 75<2 260> 273 75<-162 260>
LayerCount: 2
Back
Fore
SplineSet
14 2 m 2xec
 14 260 l 2
 14 303 32 339 67 368 c 0
 100 395 139 409 184 409 c 0
 229 409 267 395 299 367 c 0
 332 339 348 303 348 260 c 2
 348 -162 l 2
 348 -187 336 -200 311 -200 c 0
 286 -200 273 -187 273 -162 c 2
 273 260 l 2
 273 300 237 334 184 334 c 0
 128 334 89 299 89 260 c 2
 89 2 l 2
 89 -23 76 -35 51 -35 c 0
 26 -35 14 -23 14 2 c 2xec
27 501 m 0
 55 530 86 570 122 570 c 0xdc
 143 570 165 564 214 521 c 0
 234 505 251 497 264 497 c 0
 283 497 305 511 331 539 c 0
 336 544 341 547 347 547 c 0
 363 547 371 539 371 524 c 0
 371 519 369 514 364 509 c 0
 330 471 297 452 266 452 c 0
 242 452 214 464 183 488 c 0
 152 512 132 524 122 524 c 0
 113 524 104 518 93 507 c 2
 58 468 l 2
 53 463 48 461 42 461 c 0
 27 461 19 469 19 484 c 0
 19 490 22 496 27 501 c 0
EndSplineSet
EndChar

StartChar: oacute
Encoding: 243 243 194
GlifName: oacute
Width: 481
Flags: MW
HStem: -19 75<220.5 261.5 220.5 272> 355 75<220.5 261.5> 660 20G<265.5 273.5>
VStem: 16 75<184.5 225.5 184.5 236.5> 391 75<184.5 225.5>
LayerCount: 2
Back
Fore
SplineSet
241 430 m 0
 303 430 356 408 400 364 c 0
 444 321 466 268 466 205 c 0
 466 143 444 90 400 46 c 0
 356 3 303 -19 241 -19 c 0
 179 -19 126 3 82 46 c 0
 38 90 16 143 16 205 c 0
 16 268 38 321 82 364 c 0
 126 408 179 430 241 430 c 0
241 355 m 0
 200 355 164 340 135 311 c 0
 106 282 91 246 91 205 c 0
 91 164 106 128 135 99 c 0
 164 70 200 56 241 56 c 0
 282 56 318 70 347 99 c 0
 376 128 391 164 391 205 c 0
 391 246 376 282 347 311 c 0
 318 340 282 355 241 355 c 0
162 518 m 2
 258 675 l 2
 260 678 263 680 268 680 c 0
 279 680 292 672 307 655 c 0
 323 638 331 624 331 613 c 0
 331 608 330 605 327 602 c 2
 192 484 l 2
 187 480 181 478 176 478 c 0
 163 478 157 486 157 501 c 0
 157 507 159 513 162 518 c 2
EndSplineSet
EndChar

StartChar: ograve
Encoding: 242 242 195
GlifName: ograve
Width: 481
Flags: MW
HStem: -19 75<220.5 261.5 220.5 272> 355 75<220.5 261.5> 657 20G<204.5 212>
VStem: 16 75<184.5 225.5 184.5 236.5> 391 75<184.5 225.5>
LayerCount: 2
Back
Fore
SplineSet
241 430 m 0
 179 430 126 408 82 364 c 0
 38 321 16 268 16 205 c 0
 16 143 38 90 82 46 c 0
 126 3 179 -19 241 -19 c 0
 303 -19 356 3 400 46 c 0
 444 90 466 143 466 205 c 0
 466 268 444 321 400 364 c 0
 356 408 303 430 241 430 c 0
241 355 m 0
 282 355 318 340 347 311 c 0
 376 282 391 246 391 205 c 0
 391 164 376 128 347 99 c 0
 318 70 282 56 241 56 c 0
 200 56 164 70 135 99 c 0
 106 128 91 164 91 205 c 0
 91 246 106 282 135 311 c 0
 164 340 200 355 241 355 c 0
315 515 m 2
 319 510 321 504 321 498 c 0
 321 483 314 475 301 475 c 0
 296 475 291 477 286 481 c 2
 150 599 l 2
 147 602 146 605 146 610 c 0
 146 621 154 635 170 652 c 0
 186 669 199 677 210 677 c 0
 214 677 217 675 219 672 c 2
 315 515 l 2
EndSplineSet
EndChar

StartChar: ocircumflex
Encoding: 244 244 196
GlifName: ocircumflex
Width: 481
Flags: MW
HStem: -19 75<220.5 261.5 220.5 272> 355 75<220.5 261.5> 430 42 626 20G<237.5 248.5>
VStem: 16 75<184.5 225.5 184.5 236.5> 391 75<184.5 225.5>
LayerCount: 2
Back
Fore
SplineSet
241 430 m 0xdc
 303 430 356 408 400 364 c 0
 444 321 466 268 466 205 c 0
 466 143 444 90 400 46 c 0
 356 3 303 -19 241 -19 c 0
 179 -19 126 3 82 46 c 0
 38 90 16 143 16 205 c 0
 16 268 38 321 82 364 c 0
 126 408 179 430 241 430 c 0xdc
241 355 m 0
 200 355 164 340 135 311 c 0
 106 282 91 246 91 205 c 0
 91 164 106 128 135 99 c 0
 164 70 200 56 241 56 c 0
 282 56 318 70 347 99 c 0
 376 128 391 164 391 205 c 0
 391 246 376 282 347 311 c 0
 318 340 282 355 241 355 c 0
98 511 m 2
 194 612 l 2
 215 635 232 646 243 646 c 0
 254 646 270 635 291 614 c 2
 384 517 l 2
 389 512 391 507 391 501 c 0
 391 486 383 478 368 478 c 0
 362 478 357 480 352 485 c 2
 244 593 l 1
 130 479 l 2
 125 474 120 472 114 472 c 0xbc
 99 472 91 480 91 495 c 0
 91 501 93 506 98 511 c 2
EndSplineSet
EndChar

StartChar: odieresis
Encoding: 246 246 197
GlifName: odieresis
Width: 481
Flags: MW
HStem: -19 75<220.5 261.5 220.5 272> 355 75<220.5 261.5> 483 107<163 191.5> 572 20G<298.5 327>
VStem: 16 75<184.5 225.5 184.5 236.5> 126 103<521.5 550.5> 261 104<524.5 553.5> 391 75<184.5 225.5>
LayerCount: 2
Back
Fore
SplineSet
241 430 m 0xef
 303 430 356 408 400 364 c 0
 444 321 466 268 466 205 c 0
 466 143 444 90 400 46 c 0
 356 3 303 -19 241 -19 c 0
 179 -19 126 3 82 46 c 0
 38 90 16 143 16 205 c 0
 16 268 38 321 82 364 c 0
 126 408 179 430 241 430 c 0xef
241 355 m 0
 200 355 164 340 135 311 c 0
 106 282 91 246 91 205 c 0
 91 164 106 128 135 99 c 0
 164 70 200 56 241 56 c 0
 282 56 318 70 347 99 c 0
 376 128 391 164 391 205 c 0
 391 246 376 282 347 311 c 0
 318 340 282 355 241 355 c 0
126 536 m 0
 126 565 149 590 177 590 c 0
 206 590 229 565 229 536 c 0
 229 507 206 483 177 483 c 0
 149 483 126 507 126 536 c 0
261 539 m 0
 261 568 284 592 313 592 c 0xdf
 341 592 365 568 365 539 c 0
 365 510 341 486 313 486 c 0
 284 486 261 510 261 539 c 0
EndSplineSet
EndChar

StartChar: otilde
Encoding: 245 245 198
GlifName: otilde
Width: 481
Flags: MW
HStem: -19 75<220.5 261.5 220.5 272> 355 75<220.5 261.5> 470 45<324.5 340.5 324.5 348.5> 470 118
VStem: 16 75<184.5 225.5 184.5 236.5> 391 75<184.5 225.5>
LayerCount: 2
Back
Fore
SplineSet
241 430 m 0xec
 303 430 356 408 400 364 c 0
 444 321 466 268 466 205 c 0
 466 143 444 90 400 46 c 0
 356 3 303 -19 241 -19 c 0
 179 -19 126 3 82 46 c 0
 38 90 16 143 16 205 c 0
 16 268 38 321 82 364 c 0
 126 408 179 430 241 430 c 0xec
241 355 m 0
 200 355 164 340 135 311 c 0
 106 282 91 246 91 205 c 0
 91 164 106 128 135 99 c 0
 164 70 200 56 241 56 c 0
 282 56 318 70 347 99 c 0
 376 128 391 164 391 205 c 0
 391 246 376 282 347 311 c 0
 318 340 282 355 241 355 c 0
94 519 m 0
 122 548 153 588 189 588 c 0xdc
 210 588 232 582 281 539 c 0
 301 523 318 515 331 515 c 0
 350 515 372 529 398 557 c 0
 403 562 408 565 414 565 c 0
 430 565 438 557 438 542 c 0
 438 537 436 532 431 527 c 0
 397 489 364 470 333 470 c 0
 309 470 281 482 250 506 c 0
 219 530 199 542 189 542 c 0
 180 542 171 536 160 525 c 2
 125 486 l 2
 120 481 115 479 109 479 c 0
 94 479 86 487 86 502 c 0
 86 508 89 514 94 519 c 0
EndSplineSet
EndChar

StartChar: uacute
Encoding: 250 250 199
GlifName: uacute
Width: 377
Flags: MW
HStem: -32 75<164.5 209.5> 648 20G<174.5 182.5>
VStem: 16 75<116 374> 276 75<116 538>
LayerCount: 2
Back
Fore
SplineSet
16 374 m 2
 16 399 29 412 54 412 c 0
 79 412 91 399 91 374 c 2
 91 116 l 2
 91 79 131 43 187 43 c 0
 240 43 276 76 276 116 c 2
 276 538 l 2
 276 563 288 576 313 576 c 0
 338 576 351 563 351 538 c 2
 351 116 l 2
 351 73 335 37 302 9 c 0
 270 -18 232 -32 187 -32 c 0
 142 -32 103 -19 70 8 c 0
 34 37 16 73 16 116 c 2
 16 374 l 2
71 506 m 2
 167 663 l 2
 169 666 172 668 177 668 c 0
 188 668 201 660 216 643 c 0
 232 626 240 612 240 601 c 0
 240 596 239 593 236 590 c 2
 101 472 l 2
 96 468 90 466 85 466 c 0
 72 466 66 474 66 489 c 0
 66 495 68 501 71 506 c 2
EndSplineSet
EndChar

StartChar: ugrave
Encoding: 249 249 200
GlifName: ugrave
Width: 377
Flags: MW
HStem: -32 75<164.5 209.5> 645 20G<110.5 118>
VStem: 16 75<116 374> 276 75<116 538>
LayerCount: 2
Back
Fore
SplineSet
16 374 m 2
 16 399 29 412 54 412 c 0
 79 412 91 399 91 374 c 2
 91 116 l 2
 91 79 131 43 187 43 c 0
 240 43 276 76 276 116 c 2
 276 538 l 2
 276 563 288 576 313 576 c 0
 338 576 351 563 351 538 c 2
 351 116 l 2
 351 73 335 37 302 9 c 0
 270 -18 232 -32 187 -32 c 0
 142 -32 103 -19 70 8 c 0
 34 37 16 73 16 116 c 2
 16 374 l 2
221 503 m 2
 225 498 227 492 227 486 c 0
 227 471 220 463 207 463 c 0
 202 463 197 465 192 469 c 2
 56 587 l 2
 53 590 52 593 52 598 c 0
 52 609 60 623 76 640 c 0
 92 657 105 665 116 665 c 0
 120 665 123 663 125 660 c 2
 221 503 l 2
EndSplineSet
EndChar

StartChar: ucircumflex
Encoding: 251 251 201
GlifName: ucircumflex
Width: 377
Flags: MW
HStem: -32 75<164.5 209.5> 494 82 618 20G<139 147.5>
VStem: 16 75<116 374> 276 75<116 538>
LayerCount: 2
Back
Fore
SplineSet
16 374 m 2
 16 399 29 412 54 412 c 0
 79 412 91 399 91 374 c 2
 91 116 l 2
 91 79 131 43 187 43 c 0
 240 43 276 76 276 116 c 2
 276 538 l 2
 276 563 288 576 313 576 c 0
 338 576 351 563 351 538 c 2
 351 116 l 2
 351 73 335 37 302 9 c 0
 270 -18 232 -32 187 -32 c 0
 142 -32 103 -19 70 8 c 0
 34 37 16 73 16 116 c 2
 16 374 l 2
33 526 m 0
 58 554 82 582 106 610 c 0
 123 629 135 638 143 638 c 0
 152 638 164 629 180 611 c 2
 250 531 l 2
 253 527 255 523 255 518 c 0
 255 505 249 499 237 499 c 0
 233 499 229 501 226 505 c 2
 144 594 l 1
 58 500 l 2
 54 496 50 494 46 494 c 0
 34 494 28 500 28 513 c 0
 28 518 30 522 33 526 c 0
EndSplineSet
EndChar

StartChar: udieresis
Encoding: 252 252 202
GlifName: udieresis
Width: 377
Flags: MW
HStem: -32 75<164.5 209.5> 508 68 508 107<64 92.5> 597 20G<199.5 228>
VStem: 16 75<116 374> 16 114 162 104<549.5 578.5> 276 75<116 538>
LayerCount: 2
Back
Fore
SplineSet
16 374 m 2xdb
 16 399 29 412 54 412 c 0
 79 412 91 399 91 374 c 2
 91 116 l 2
 91 79 131 43 187 43 c 0
 240 43 276 76 276 116 c 2
 276 538 l 2
 276 563 288 576 313 576 c 0
 338 576 351 563 351 538 c 2
 351 116 l 2
 351 73 335 37 302 9 c 0
 270 -18 232 -32 187 -32 c 0
 142 -32 103 -19 70 8 c 0
 34 37 16 73 16 116 c 2
 16 374 l 2xdb
27 561 m 0
 27 590 50 615 78 615 c 0
 107 615 130 590 130 561 c 0xa7
 130 532 107 508 78 508 c 0
 50 508 27 532 27 561 c 0
162 564 m 0
 162 593 185 617 214 617 c 0xdb
 242 617 266 593 266 564 c 0
 266 535 242 511 214 511 c 0
 185 511 162 535 162 564 c 0
EndSplineSet
EndChar

StartChar: degree
Encoding: 176 176 203
GlifName: degree
Width: 341
Flags: MW
HStem: 484 46<152.5 189.5> 704 45<152.5 189.5 152.5 195>
VStem: 39 45<598.5 635.5> 258 46<598.5 635.5 598.5 641>
LayerCount: 2
Back
Fore
SplineSet
171 484 m 0
 134 484 103 497 77 523 c 0
 52 549 39 580 39 617 c 0
 39 654 52 685 77 710 c 0
 103 736 134 749 171 749 c 0
 208 749 239 736 265 710 c 0
 291 685 304 654 304 617 c 0
 304 580 291 549 265 523 c 0
 239 497 208 484 171 484 c 0
171 530 m 0
 219 530 258 569 258 617 c 0
 258 665 219 704 171 704 c 0
 123 704 84 665 84 617 c 0
 84 569 124 530 171 530 c 0
EndSplineSet
EndChar

StartChar: registered
Encoding: 174 174 204
GlifName: registered
Width: 821
Flags: MW
HStem: 28 75<368 454.5 368 464.5> 235 183<341.5 389> 369 49 592 43<258 368 266 326 266 374 266 406> 701 75<368 454.5>
VStem: 26 75<361 443 361 454> 242 132 274 100 326 48<250.5 256 418 592> 452 48<165 385 385 385> 502 48<486.5 522 486.5 525.5> 722 75<361 443>
LayerCount: 2
Back
Fore
SplineSet
374 592 m 1xde70
 374 418 l 1
 389 418 l 2
 453 418 502 458 502 505 c 0
 502 546 462 585 406 592 c 1
 374 592 l 1xde70
550 505 m 0
 550 468 533 436 500 411 c 1
 500 165 l 2
 500 151 492 144 476 144 c 0
 460 144 452 151 452 165 c 2
 452 385 l 1
 432 378 411 375 389 375 c 2
 374 375 l 1
 374 258 l 2
 374 243 366 235 349 235 c 0
 334 235 326 242 326 256 c 2xdcf0
 327 381 l 1
 321 373 313 369 303 369 c 0
 284 369 274 378 274 397 c 0xbd70
 274 415 284 424 303 424 c 0
 313 424 321 420 326 413 c 1
 326 592 l 1xdcf0
 266 592 l 2
 250 592 242 599 242 613 c 0
 242 628 250 635 266 635 c 2
 368 635 l 1
 405 634 l 2
 445 631 479 617 507 592 c 0
 536 568 550 539 550 505 c 0
411 776 m 0
 518 776 609 740 684 667 c 0
 759 594 797 506 797 402 c 0
 797 299 759 210 684 137 c 0
 609 64 518 28 411 28 c 0
 305 28 214 64 139 137 c 0
 64 210 26 299 26 402 c 0
 26 506 64 594 139 667 c 0
 214 740 305 776 411 776 c 0
411 701 m 0
 325 701 252 672 191 613 c 0
 131 554 101 484 101 402 c 0
 101 320 131 250 191 191 c 0
 252 132 325 103 411 103 c 0
 498 103 571 132 631 191 c 0
 692 250 722 320 722 402 c 0
 722 484 692 554 631 613 c 0
 571 672 498 701 411 701 c 0
EndSplineSet
EndChar

StartChar: copyright
Encoding: 169 169 205
GlifName: copyright
Width: 956
Flags: MW
HStem: 28 75<368 454.5 368 464.5> 178 48<361.5 418.5 352.5 429.5> 178 106<361.5 540> 522 104<370.5 524> 578 48<370.5 416> 701 75<368 454.5>
VStem: 26 75<361 443 361 454> 211 58<364.5 429> 722 75<361 443>
LayerCount: 2
Back
Fore
SplineSet
411 776 m 0xb780
 518 776 609 740 684 667 c 0
 759 594 797 506 797 402 c 0
 797 299 759 210 684 137 c 0
 609 64 518 28 411 28 c 0
 305 28 214 64 139 137 c 0
 64 210 26 299 26 402 c 0
 26 506 64 594 139 667 c 0
 214 740 305 776 411 776 c 0xb780
411 701 m 0
 325 701 252 672 191 613 c 0
 131 554 101 484 101 402 c 0
 101 320 131 250 191 191 c 0
 252 132 325 103 411 103 c 0
 498 103 571 132 631 191 c 0
 692 250 722 320 722 402 c 0
 722 484 692 554 631 613 c 0
 571 672 498 701 411 701 c 0
556 248 m 0
 523 201 468 178 391 178 c 0
 332 178 286 199 255 242 c 0
 226 281 211 332 211 397 c 0
 211 461 227 514 259 557 c 0
 294 603 341 626 400 626 c 0
 451 626 496 604 537 561 c 0
 542 556 544 551 544 546 c 0
 544 530 534 522 514 522 c 0xd780
 505 522 498 525 492 532 c 0
 463 563 432 578 400 578 c 0
 323 578 269 506 269 397 c 0
 269 286 314 226 391 226 c 0xcf80
 446 226 485 241 506 272 c 0
 512 280 520 284 530 284 c 0
 550 284 560 276 560 260 c 0
 560 256 559 252 556 248 c 0
EndSplineSet
EndChar

StartChar: trademark
Encoding: 8482 8482 206
GlifName: trademark
Width: 432
Flags: MW
HStem: 533 21G<372 382> 593 131<47 174> 741 28 751 20G<204 232.5>
VStem: 82 30<605 724 610 724 610 725 755 759.5> 154 30<608 712> 184 73<603 712 608 712> 287 75<603 608> 362 30<548 549 549 710>
LayerCount: 2
Back
Fore
SplineSet
112 610 m 2xeb
 112 724 l 1
 140 724 l 2
 150 724 155 729 155 739 c 0
 155 749 150 754 140 754 c 2
 112 755 l 1
 112 764 107 769 97 769 c 0
 87 769 82 764 82 755 c 1
 52 754 l 2
 42 754 37 749 37 739 c 0
 37 729 42 724 52 724 c 2
 82 725 l 1
 82 610 l 2
 82 600 87 595 97 595 c 0
 107 595 112 600 112 610 c 2xeb
222 771 m 0xdd
 243 771 261 763 274 748 c 1
 288 762 305 769 326 769 c 0
 362 769 392 745 392 710 c 2
 392 549 l 2xea80
 392 538 387 533 377 533 c 0
 367 533 362 538 362 548 c 2
 362 710 l 2
 362 729 350 739 326 739 c 0
 303 739 288 725 288 710 c 2
 287 608 l 2
 287 598 282 593 272 593 c 0
 262 593 257 598 257 608 c 2
 257 712 l 2
 257 731 245 741 222 741 c 0xeb
 199 741 184 727 184 712 c 2
 184 608 l 2
 184 598 179 593 169 593 c 0
 159 593 154 598 154 608 c 2
 154 712 l 2
 154 747 186 771 222 771 c 0xdd
EndSplineSet
EndChar

StartChar: notequal
Encoding: 8800 8800 207
GlifName: notequal
Width: 657
Flags: MW
HStem: 93 239<221 239> 257 75<131.5 273 513 525.5> 459 75<131.5 356 144 326 144 405 437 513> 459 220<144 449 405 449 431 449 431 513>
LayerCount: 2
Back
Fore
SplineSet
273 332 m 1x60
 326 459 l 1
 144 459 l 2
 119 459 106 472 106 497 c 0
 106 522 119 534 144 534 c 2
 356 534 l 1xa0
 406 655 l 2
 412 671 423 679 439 679 c 0x90
 459 679 478 663 478 642 c 0
 478 637 477 631 475 626 c 2
 437 534 l 1
 513 534 l 2
 538 534 550 522 550 497 c 0
 550 472 538 459 513 459 c 2
 405 459 l 1
 354 333 l 1
 513 332 l 2
 538 332 550 320 550 295 c 0
 550 270 538 257 513 257 c 2x60
 323 258 l 1
 265 116 l 2
 258 101 247 93 231 93 c 0xa0
 211 93 192 109 192 129 c 0
 192 134 193 140 195 145 c 2
 242 258 l 1
 144 257 l 2
 119 257 106 270 106 295 c 0
 106 320 119 332 144 332 c 2
 273 332 l 1x60
EndSplineSet
EndChar

StartChar: infinity
Encoding: 8734 8734 208
GlifName: infinity
Width: 636
Flags: MW
HStem: 196 56 380 56<145.5 176> 425 20G<454.5 495.5>
VStem: 37 55<294.5 328.5> 546 56
LayerCount: 2
Back
Fore
SplineSet
356 394 m 0xd8
 389 428 430 445 479 445 c 0xb8
 512 445 539 436 560 418 c 0
 585 398 599 370 602 333 c 0
 607 258 556 205 467 201 c 0
 420 198 373 218 327 261 c 1
 296 222 248 201 181 196 c 0
 135 192 99 202 72 227 c 0
 49 249 37 277 37 312 c 0
 37 345 48 374 70 397 c 0
 94 423 126 436 165 436 c 0
 212 436 264 407 319 348 c 1
 330 365 343 380 356 394 c 0xd8
165 380 m 0xd8
 121 380 92 347 92 311 c 0
 92 275 121 247 177 252 c 0
 226 255 262 272 286 301 c 1
 261 328 243 345 232 353 c 0
 209 371 187 380 165 380 c 0xd8
464 257 m 0
 522 260 549 284 546 328 c 0
 543 369 520 389 479 389 c 0
 446 389 419 378 397 355 c 0
 384 342 372 326 359 307 c 1
 395 272 430 255 464 257 c 0
EndSplineSet
EndChar

StartChar: plusminus
Encoding: 177 177 209
GlifName: plusminus
Width: 443
Flags: MW
HStem: 90 75<43.5 384 56 384> 214 205<91 233.5> 343 76<91 183> 343 203<183 233.5>
VStem: 54 204<239.5 393.5> 183 75<252 343 343 343 419 508> 183 208<252 393.5 343 393.5 368.5 508 368.5 520.5>
LayerCount: 2
Back
Fore
SplineSet
258 419 m 1xc4
 353 419 l 2
 378 419 391 406 391 381 c 0xc2
 391 356 378 344 353 344 c 2
 258 344 l 1
 258 252 l 2
 258 227 246 214 221 214 c 0xc8
 196 214 183 227 183 252 c 2
 183 343 l 1xa4
 91 344 l 2
 66 344 54 356 54 381 c 0xa8
 54 406 66 419 91 419 c 2
 183 419 l 1xc4
 183 508 l 2
 183 533 196 546 221 546 c 0x94
 246 546 258 533 258 508 c 2
 258 419 l 1xc4
56 165 m 2xc8
 384 165 l 2
 409 165 422 153 422 128 c 0
 422 103 409 90 384 90 c 2
 56 90 l 2
 31 90 18 103 18 128 c 0
 18 153 31 165 56 165 c 2xc8
EndSplineSet
EndChar

StartChar: lessequal
Encoding: 8804 8804 210
GlifName: lessequal
Width: 556
Flags: MW
HStem: 6 75<50.5 484 63 484> 624 20G<382.5 397.5>
LayerCount: 2
Back
Fore
SplineSet
414 579 m 2
 204 369 l 1
 400 174 l 2
 408 166 412 157 412 148 c 0
 412 127 393 109 373 109 c 0
 364 109 355 113 347 121 c 2
 174 286 l 2
 135 323 116 352 116 371 c 0
 116 391 136 420 177 459 c 2
 361 632 l 2
 369 640 378 644 387 644 c 0
 408 644 426 625 426 605 c 0
 426 596 422 587 414 579 c 2
63 81 m 2
 484 81 l 2
 509 81 521 69 521 44 c 0
 521 19 509 6 484 6 c 2
 63 6 l 2
 38 6 25 19 25 44 c 0
 25 69 38 81 63 81 c 2
EndSplineSet
EndChar

StartChar: greaterequal
Encoding: 8805 8805 211
GlifName: greaterequal
Width: 550
Flags: MW
HStem: 6 75<50.5 484 63 484> 624 20G<148.5 163.5>
LayerCount: 2
Back
Fore
SplineSet
132 579 m 2
 124 587 120 596 120 605 c 0
 120 625 138 644 159 644 c 0
 168 644 177 640 185 632 c 2
 369 459 l 2
 410 420 430 391 430 371 c 0
 430 352 411 323 372 286 c 2
 199 121 l 2
 192 113 183 109 173 109 c 0
 153 109 135 127 135 148 c 0
 135 157 139 166 146 174 c 2
 342 369 l 1
 132 579 l 2
484 81 m 2
 509 81 521 69 521 44 c 0
 521 19 509 6 484 6 c 2
 63 6 l 2
 38 6 25 19 25 44 c 0
 25 69 38 81 63 81 c 2
 484 81 l 2
EndSplineSet
EndChar

StartChar: mu
Encoding: 181 181 212
AltUni2: 0003bc.ffffffff.0
GlifName: mu
Width: 618
Flags: MW
HStem: -46 74<464 481.5 464 492.5> -18 75 450 20G<572 592.5>
VStem: 9 191<-14.5 113>
LayerCount: 2
Back
Fore
SplineSet
465 126 m 2x70
 458 111 450 98 440 85 c 1
 443 77 443 69 440 61 c 0
 439 58 438 55 438 52 c 0
 438 36 451 28 477 28 c 0
 486 28 496 29 507 31 c 0
 534 35 551 16 551 -7 c 0
 551 -28 540 -40 519 -43 c 0
 509 -45 498 -46 487 -46 c 0xb0
 420 -46 380 -24 366 20 c 1
 321 -7 277 -19 232 -18 c 0
 193 -17 162 -5 141 16 c 1
 117 -16 87 -35 52 -40 c 0
 27 -45 9 -26 9 -3 c 0
 9 18 20 31 41 34 c 0
 56 36 72 49 90 73 c 2
 129 131 l 1
 131 135 l 1
 251 393 l 2
 262 417 279 429 304 429 c 0
 321 429 330 422 330 408 c 0
 330 403 329 397 326 391 c 2
 206 133 l 2
 202 125 200 117 200 109 c 0
 200 76 222 58 267 57 c 0
 320 56 373 89 390 128 c 2
 531 434 l 2
 542 458 560 470 584 470 c 0
 601 470 610 463 610 449 c 0
 610 444 609 438 606 432 c 2
 465 126 l 2x70
EndSplineSet
EndChar

StartChar: partialdiff
Encoding: 8706 8706 213
GlifName: partialdiff
Width: 587
Flags: MW
HStem: -40 72<203 238.5 203 251.5> 350 74<226.5 279.5> 695 20G<134.5 148.5>
VStem: 27 76<146.5 162> 478 76
LayerCount: 2
Back
Fore
SplineSet
127 646 m 0
 112 651 105 661 105 675 c 0
 105 695 123 715 146 715 c 0
 151 715 157 714 162 712 c 0
 299 661 394 612 448 565 c 0
 523 500 559 413 554 305 c 0
 550 224 532 157 501 102 c 0
 464 37 409 -6 336 -26 c 0
 301 -35 268 -40 235 -40 c 0
 111 -40 27 31 27 146 c 0
 27 178 33 212 46 247 c 0
 86 365 154 424 250 424 c 0
 318 424 394 392 478 327 c 1
 477 406 437 473 360 530 c 0
 313 565 235 604 127 646 c 0
470 238 m 1
 459 248 l 2
 379 316 309 350 250 350 c 0
 203 350 165 329 138 288 c 0
 115 253 103 211 103 164 c 0
 103 129 110 101 123 80 c 0
 146 48 180 32 226 32 c 0
 251 32 281 37 316 46 c 0
 399 69 451 133 470 238 c 1
EndSplineSet
EndChar

StartChar: summation
Encoding: 8721 8721 214
GlifName: summation
Width: 576
Flags: MW
HStem: -28 75<147 508 147 508> 476 75<150 511 150 150>
LayerCount: 2
Back
Fore
SplineSet
511 476 m 2
 150 476 l 1
 280 336 l 2
 309 304 324 280 324 263 c 0
 324 246 309 221 280 189 c 0
 235 142 191 94 147 47 c 1
 508 47 l 2
 533 47 545 34 545 9 c 0
 545 -16 533 -28 508 -28 c 2
 64 -28 l 2
 36 -28 22 -17 22 4 c 0
 22 14 27 24 36 34 c 2
 238 263 l 1
 39 489 l 2
 30 499 25 509 25 520 c 0
 25 541 39 551 67 551 c 2
 511 551 l 2
 536 551 548 539 548 514 c 0
 548 489 536 476 511 476 c 2
EndSplineSet
EndChar

StartChar: product
Encoding: 8719 8719 215
GlifName: product
Width: 656
Flags: MW
HStem: -198 21G<477.5 502.5> 502 75<38.5 123 51 123 198 452 527 527 527 593> 502 121<38.5 174.5 51 174.5 149.5 452 149.5 198>
VStem: 14 184 123 75<-1 502 577 586> 452 75<-161 502 502 502> 452 179<-161 552.5 502 552.5>
LayerCount: 2
Back
Fore
SplineSet
452 502 m 1xd4
 198 502 l 1
 198 -2 l 2
 198 -27 186 -39 161 -39 c 0
 135 -39 122 -26 123 -1 c 2
 123 502 l 1xcc
 51 502 l 2
 26 502 14 515 14 540 c 0xd4
 14 565 26 577 51 577 c 2
 123 577 l 1xcc
 123 586 l 2
 124 611 137 623 162 623 c 0xac
 187 623 199 611 198 586 c 2
 198 577 l 1
 593 577 l 2
 618 577 631 565 631 540 c 0xd2
 631 515 618 502 593 502 c 2
 527 502 l 1
 528 -161 l 2
 528 -186 515 -198 490 -198 c 0
 465 -198 452 -186 452 -161 c 2
 452 502 l 1xd4
EndSplineSet
EndChar

StartChar: pi
Encoding: 960 960 216
GlifName: pi
Width: 570
Flags: MW
HStem: -134 21G<178.5 203.5> 319 77<137 153 137 137 228 416 228 228 491 505 491 491>
VStem: 14 214<277 292> 153 75<-97 319> 416 75<60 319 60 319 60 319> 416 126<36 369.5 319 369.5>
LayerCount: 2
Back
Fore
SplineSet
505 319 m 2xe4
 491 319 l 1
 491 60 l 1
 524 44 l 2
 539 37 546 26 546 11 c 0
 546 -9 530 -28 509 -28 c 0
 504 -28 498 -27 492 -24 c 2
 444 -2 l 2
 425 9 416 22 416 36 c 2
 416 319 l 1
 228 319 l 1
 228 -97 l 2
 228 -122 216 -134 191 -134 c 0
 166 -134 153 -122 153 -97 c 2
 153 319 l 1xd8
 137 319 l 1
 79 260 l 2
 71 253 62 249 53 249 c 0
 32 249 14 267 14 287 c 0
 14 297 18 306 26 313 c 0
 39 328 53 342 67 356 c 0
 94 383 110 396 117 396 c 2
 505 396 l 2
 530 395 542 382 542 357 c 0
 542 332 530 319 505 319 c 2xe4
EndSplineSet
EndChar

StartChar: integral
Encoding: 8747 8747 217
GlifName: integral
Width: 535
Flags: MW
HStem: -112 75<146.5 160 146.5 173> 517 152<378 495.5> 593 76<394.5 410.5>
LayerCount: 2
Back
Fore
SplineSet
451 541 m 1xc0
 445 555 437 570 428 586 c 0
 422 591 415 593 406 593 c 0xa0
 383 593 370 585 367 570 c 0
 348 457 330 343 312 229 c 0
 285 67 256 -36 225 -79 c 0
 209 -101 187 -112 159 -112 c 0
 132 -112 106 -103 81 -84 c 0
 57 -66 45 -47 45 -28 c 0
 45 -19 48 -11 54 -4 c 0
 65 11 76 18 86 18 c 0
 97 18 108 9 121 -9 c 0
 134 -28 144 -37 149 -37 c 0
 171 -37 199 53 232 232 c 0
 253 350 273 468 293 586 c 0
 304 635 352 669 404 669 c 0
 457 669 492 640 509 583 c 0
 511 577 512 570 512 562 c 0
 512 532 504 517 487 517 c 0
 477 517 465 525 451 541 c 1xc0
EndSplineSet
EndChar

StartChar: Omega
Encoding: 937 937 218
AltUni2: 002126.ffffffff.0
GlifName: O_mega
Width: 662
Flags: MW
HStem: 1 75<44.5 104 57 104 57 189 535 582> 505 75<281.5 355.5>
VStem: 16 75<275 338 275 345.5> 16 215 409 217 553 73<284.5 336.5>
LayerCount: 2
Back
Fore
SplineSet
535 76 m 1xe4
 582 76 l 2
 607 76 619 63 619 38 c 0
 619 13 607 1 582 1 c 2
 449 1 l 2
 422 1 409 9 409 24 c 0xe8
 409 40 424 65 453 100 c 2
 509 167 l 1
 538 214 553 261 553 308 c 0
 553 365 533 411 493 447 c 0
 450 486 392 505 319 505 c 0
 244 505 187 486 146 447 c 0
 109 412 91 366 91 310 c 0xe4
 91 240 117 175 168 116 c 2
 204 75 l 2
 222 53 231 36 231 24 c 0xd8
 231 9 217 1 189 1 c 2
 57 1 l 2
 32 1 19 13 19 38 c 0
 19 63 32 76 57 76 c 2
 104 76 l 1
 45 146 16 223 16 307 c 0
 16 384 41 448 91 498 c 0
 146 553 222 580 319 580 c 0
 417 580 494 553 550 499 c 0
 601 450 626 387 626 310 c 0
 626 225 596 147 535 76 c 1xe4
EndSplineSet
EndChar

StartChar: logicalnot
Encoding: 172 172 219
GlifName: logicalnot
Width: 530
Flags: MW
HStem: 130 75<61.5 449 74 411>
VStem: 411 75<61 130 130 130>
LayerCount: 2
Back
Fore
SplineSet
74 205 m 2
 449 205 l 2
 469 205 486 188 486 168 c 2
 486 61 l 2
 486 36 474 24 449 24 c 0xc0
 424 24 411 36 411 61 c 2
 411 130 l 1
 74 130 l 2
 49 130 37 143 37 168 c 0
 37 193 49 205 74 205 c 2
EndSplineSet
EndChar

StartChar: radical
Encoding: 8730 8730 220
GlifName: radical
Width: 614
Flags: MW
HStem: -81 21G<267.5 283.5> 650 20G<541 559>
LayerCount: 2
Back
Fore
SplineSet
29 221 m 0
 76 288 105 329 116 342 c 0
 137 369 154 383 165 383 c 0
 180 383 195 358 211 307 c 2
 281 74 l 1
 515 646 l 2
 522 662 533 670 549 670 c 0
 569 670 588 654 588 633 c 0
 588 628 587 623 585 618 c 2
 311 -51 l 2
 303 -71 291 -81 276 -81 c 0
 259 -81 248 -70 241 -48 c 2
 145 256 l 1
 91 178 l 2
 83 167 73 161 61 161 c 0
 41 161 22 179 22 199 c 0
 22 206 24 214 29 221 c 0
EndSplineSet
EndChar

StartChar: approxequal
Encoding: 8776 8776 221
AltUni2: 0022f2.ffffffff.0
GlifName: approxequal
Width: 553
Flags: MW
HStem: 199 74<345 345> 542 20G<182.5 199.5>
LayerCount: 2
Back
Fore
SplineSet
27 468 m 2
 83 524 l 2
 104 543 132 555 165 560 c 0
 172 561 179 562 186 562 c 0
 213 562 236 554 257 537 c 0
 262 533 277 518 301 492 c 0
 316 476 329 468 342 468 c 0
 365 468 388 494 452 546 c 0
 461 553 472 556 483 556 c 0
 508 556 530 537 530 517 c 0
 530 506 525 497 514 489 c 2
 440 428 l 2
 413 407 380 395 341 393 c 0
 310 392 283 399 260 415 c 0
 250 422 236 437 217 460 c 0
 204 477 192 485 182 485 c 0
 167 485 148 472 125 446 c 0
 100 419 76 405 55 405 c 0
 32 405 16 424 16 444 c 0
 16 454 20 462 27 468 c 2
30 273 m 2
 86 330 l 2
 108 349 135 360 168 365 c 0
 175 366 183 367 190 367 c 0
 217 367 240 359 261 343 c 0
 266 338 281 323 304 298 c 0
 319 281 333 273 345 273 c 0
 369 273 391 299 455 351 c 0
 465 358 475 361 486 361 c 0
 511 361 534 342 534 322 c 0
 534 311 528 302 517 295 c 2
 444 233 l 2
 416 212 383 200 345 199 c 0
 313 198 286 205 264 220 c 0
 253 227 239 242 221 265 c 0
 207 282 195 290 185 290 c 0
 171 290 152 277 128 252 c 0
 103 225 80 211 59 211 c 0
 35 211 20 229 20 250 c 0
 20 259 23 267 30 273 c 2
EndSplineSet
EndChar

StartChar: increment
Encoding: 916 916 222
AltUni2: 002206.ffffffff.0
GlifName: increment
Width: 700
Flags: MW
HStem: 53 75<51.5 566 129 566 129 631> 602 20G<341.5 354.5>
LayerCount: 2
Back
Fore
SplineSet
631 53 m 2
 65 53 l 2
 38 53 25 64 25 85 c 0
 25 92 27 100 32 109 c 2
 315 599 l 2
 324 614 335 622 348 622 c 0
 361 622 371 614 380 599 c 2
 663 109 l 2
 668 100 670 92 670 85 c 0
 670 64 657 53 631 53 c 2
348 505 m 1
 129 128 l 1
 566 128 l 1
 348 505 l 1
EndSplineSet
EndChar

StartChar: Agrave
Encoding: 192 192 224
GlifName: A_grave
Width: 459
Flags: MW
HStem: -201 21G<372.5 397.5> 241 75<82 82 157 348> 503 75<40.5 82 53 82 157 273> 503 124<40.5 132.5 53 132.5 107.5 273 107.5 157> 810 20G<160.5 168>
VStem: 16 141 39 118 82 75<-2 241 316 503 578 589> 347 75<-175.5 -163>
LayerCount: 2
Back
Fore
SplineSet
82 -2 m 2xec80
 82 241 l 1xe980
 76 240 l 1
 51 240 39 253 39 278 c 0xea80
 39 303 51 315 76 315 c 1
 82 316 l 1
 82 503 l 1xe980
 53 503 l 2
 28 503 16 515 16 540 c 0xec80
 16 565 28 578 53 578 c 2
 82 578 l 1xe980
 82 589 l 2
 83 614 95 627 120 627 c 0xd980
 145 627 158 614 157 589 c 2
 157 578 l 1
 277 578 l 2
 341 578 383 556 404 513 c 0
 417 487 423 440 423 371 c 2
 422 -163 l 2
 422 -188 410 -201 385 -201 c 0
 360 -201 347 -188 347 -163 c 2
 348 241 l 1
 157 241 l 1
 157 -2 l 2
 157 -27 145 -39 120 -39 c 0
 95 -39 82 -27 82 -2 c 2xec80
157 503 m 1
 157 316 l 1
 348 316 l 1
 348 369 l 2
 349 418 346 450 340 467 c 0
 333 487 311 499 273 503 c 1
 157 503 l 1
271 668 m 2
 275 663 277 657 277 651 c 0
 277 636 270 628 257 628 c 0
 252 628 247 630 242 634 c 2
 106 752 l 2
 103 755 102 758 102 763 c 0
 102 774 110 788 126 805 c 0
 142 822 155 830 166 830 c 0
 170 830 173 828 175 825 c 2
 271 668 l 2
EndSplineSet
EndChar

StartChar: Atilde
Encoding: 195 195 225
GlifName: A_tilde
Width: 474
Flags: MW
HStem: -201 21G<372.5 397.5> 241 75<82 82 157 348> 503 75<40.5 82 53 82 157 273> 503 124<40.5 132.5 53 132.5 107.5 273 107.5 157> 643 20G<73.5 84> 654 45<296.5 312.5 296.5 320.5> 654 118
VStem: 16 141 39 118 82 75<-2 241 316 503 578 589> 347 75<-175.5 -163>
LayerCount: 2
Back
Fore
SplineSet
82 -2 m 2xe520
 82 241 l 1xe860
 76 240 l 1
 51 240 39 253 39 278 c 0xe4a0
 39 303 51 315 76 315 c 1
 82 316 l 1
 82 503 l 1xe460
 53 503 l 2
 28 503 16 515 16 540 c 0xe520
 16 565 28 578 53 578 c 2
 82 578 l 1xe460
 82 589 l 2
 83 614 95 627 120 627 c 0xd460
 145 627 158 614 157 589 c 2
 157 578 l 1
 277 578 l 2
 341 578 383 556 404 513 c 0
 417 487 423 440 423 371 c 2
 422 -163 l 2
 422 -188 410 -201 385 -201 c 0
 360 -201 347 -188 347 -163 c 2
 348 241 l 1
 157 241 l 1
 157 -2 l 2
 157 -27 145 -39 120 -39 c 0
 95 -39 82 -27 82 -2 c 2xe520
157 503 m 1
 157 316 l 1
 348 316 l 1
 348 369 l 2
 349 418 346 450 340 467 c 0
 333 487 311 499 273 503 c 1
 157 503 l 1
66 703 m 0
 94 732 125 772 161 772 c 0xe320
 182 772 204 766 253 723 c 0
 273 707 290 699 303 699 c 0
 322 699 344 713 370 741 c 0
 375 746 380 749 386 749 c 0
 402 749 410 741 410 726 c 0
 410 721 408 716 403 711 c 0
 369 673 336 654 305 654 c 0xe520
 281 654 253 666 222 690 c 0
 191 714 171 726 161 726 c 0
 152 726 143 720 132 709 c 2
 97 670 l 2
 92 665 87 663 81 663 c 0
 66 663 58 671 58 686 c 0
 58 692 61 698 66 703 c 0
EndSplineSet
EndChar

StartChar: Otilde
Encoding: 213 213 226
GlifName: O_tilde
Width: 409
Flags: MW
HStem: -20 75<173.5 241.5 167.5 266.5> 560 75<186.5 219.5> 665 40<265 280 265 287.5> 730 42<131.5 144.5>
VStem: 16 75<238.5 328 208.5 334> 312 75<218.5 343.5>
LayerCount: 2
Back
Fore
SplineSet
203 635 m 0
 267 635 315 601 347 534 c 0
 374 477 387 399 387 300 c 0
 387 87 327 -20 206 -20 c 0
 141 -20 92 9 59 67 c 0
 30 119 16 192 16 285 c 0
 16 383 30 463 58 526 c 0
 91 599 140 635 203 635 c 0
203 560 m 0
 170 560 144 536 123 489 c 0
 102 439 91 371 91 285 c 0
 91 132 129 55 206 55 c 0
 277 55 312 137 312 300 c 0
 312 387 302 452 281 497 c 0
 262 539 236 560 203 560 c 0
52 709 m 0
 79 736 107 772 140 772 c 0
 160 772 178 767 225 728 c 0
 244 713 259 705 271 705 c 0
 289 705 310 718 333 744 c 0
 338 749 343 751 348 751 c 0
 363 751 370 744 370 730 c 0
 370 725 368 721 364 716 c 0
 332 682 302 665 273 665 c 0
 251 665 226 676 197 697 c 0
 168 719 149 730 140 730 c 0
 123 730 103 702 80 679 c 0
 76 675 71 673 66 673 c 0
 52 673 45 680 45 694 c 0
 45 699 47 704 52 709 c 0
EndSplineSet
EndChar

StartChar: divide
Encoding: 247 247 227
GlifName: divide
Width: 504
Flags: MW
HStem: 128 147<216 260.5> 306 75<75.5 416 88 416> 410 147<228 272>
VStem: 169 150 169 162<463.5 504>
LayerCount: 2
Back
Fore
SplineSet
88 381 m 2xe8
 416 381 l 2
 441 381 454 369 454 344 c 0
 454 319 441 306 416 306 c 2
 88 306 l 2
 63 306 50 319 50 344 c 0
 50 369 63 381 88 381 c 2xe8
169 484 m 0
 169 524 206 557 250 557 c 0
 294 557 331 524 331 484 c 0
 331 443 294 410 250 410 c 0
 206 410 169 443 169 484 c 0
158 201 m 0
 158 242 194 275 238 275 c 0
 283 275 319 242 319 201 c 0xf0
 319 161 283 128 238 128 c 0
 194 128 158 161 158 201 c 0
EndSplineSet
EndChar

StartChar: lozenge
Encoding: 9674 9674 228
GlifName: lozenge
Width: 570
Flags: MW
HStem: 51 21G<275.5 288.5> 766 20G<263.5 282>
LayerCount: 2
Back
Fore
SplineSet
249 75 m 2
 53 422 l 2
 51 425 50 432 51 441 c 0
 51 450 52 457 54 460 c 0
 101 542 149 624 197 705 c 0
 229 759 254 786 273 786 c 0
 291 786 318 760 355 708 c 2
 514 476 l 2
 517 473 519 466 519 457 c 0
 520 447 519 440 517 436 c 2
 315 75 l 2
 306 59 295 51 282 51 c 0
 269 51 258 59 249 75 c 2
276 680 m 1
 129 440 l 1
 282 170 l 1
 440 452 l 1
 276 680 l 1
EndSplineSet
EndChar

StartChar: ydieresis
Encoding: 255 255 229
GlifName: ydieresis
Width: 492
Flags: MW
HStem: -230 75<251.5 281 251.5 288> -82 74<170.5 197.5> 50 74<359 392> 424 107<234.5 263> 514 20G<370 398.5>
VStem: 149 75<291.5 332 332 345.5> 197 99 332 104<466.5 495.5> 391 75<-91 -86>
LayerCount: 2
Back
Fore
SplineSet
391 -86 m 2xf280
 392 50 l 1
 311 51 254 59 219 74 c 0
 172 95 149 134 149 191 c 2
 149 332 l 2
 149 359 162 372 188 372 c 0
 212 372 224 359 224 332 c 0xf480
 224 251 226 201 230 181 c 0
 236 152 251 135 274 129 c 0
 287 126 326 124 392 124 c 1
 391 329 l 2
 391 354 404 367 429 367 c 0
 454 367 466 354 466 329 c 2
 466 -86 l 2
 466 -123 445 -156 403 -185 c 0
 361 -215 314 -230 262 -230 c 0
 213 -230 168 -221 126 -204 c 0
 70 -181 42 -149 42 -106 c 0
 42 -71 58 -46 90 -29 c 0
 117 -15 150 -8 191 -8 c 0
 221 -8 247 -11 270 -18 c 0
 287 -23 296 -35 296 -53 c 0
 296 -73 281 -92 260 -92 c 0
 256 -92 252 -91 248 -90 c 0
 231 -85 210 -82 185 -82 c 0
 148 -82 125 -90 117 -106 c 1
 117 -121 139 -133 182 -143 c 0
 215 -151 241 -155 262 -155 c 0
 300 -155 332 -145 359 -125 c 0
 380 -109 391 -96 391 -86 c 2xf280
197 478 m 0xf3
 197 507 220 531 249 531 c 0
 277 531 301 507 301 478 c 0
 301 449 277 424 249 424 c 0
 220 424 197 449 197 478 c 0xf3
332 481 m 0
 332 510 356 534 384 534 c 0xed
 413 534 436 510 436 481 c 0
 436 452 413 427 384 427 c 0
 356 427 332 452 332 481 c 0
EndSplineSet
EndChar

StartChar: Ydieresis
Encoding: 376 376 230
GlifName: Y_dieresis
Width: 485
Flags: MW
HStem: -34 21G<239 264> 635 20G<41.5 57.5 421.5 438> 682 107<124 152.5> 771 20G<334.5 363>
VStem: 87 103<720.5 749.5> 215 75<2 5 5 324 324 324> 297 104<723.5 752.5>
LayerCount: 2
Back
Fore
SplineSet
215 2 m 2xee
 215 324 l 1
 201 337 177 369 143 419 c 0
 92 494 51 553 20 595 c 0
 15 602 12 610 12 617 c 0
 12 638 31 655 52 655 c 0
 63 655 73 650 81 639 c 2
 250 410 l 1
 398 638 l 2
 405 649 415 655 428 655 c 0
 448 655 467 638 467 618 c 0
 467 611 465 604 460 597 c 0
 434 556 398 497 353 422 c 0
 323 371 302 339 290 326 c 1
 290 5 l 2
 290 -21 277 -34 251 -34 c 0
 227 -34 215 -22 215 2 c 2xee
87 735 m 0
 87 764 110 789 138 789 c 0
 167 789 190 764 190 735 c 0
 190 706 167 682 138 682 c 0
 110 682 87 706 87 735 c 0
297 738 m 0
 297 767 320 791 349 791 c 0xde
 377 791 401 767 401 738 c 0
 401 709 377 685 349 685 c 0
 320 685 297 709 297 738 c 0
EndSplineSet
EndChar

StartChar: Acircumflex
Encoding: 194 194 231
GlifName: A_circumflex
Width: 509
Flags: MW
HStem: -201 21G<372.5 397.5> 241 75<82 82 157 348> 503 75<40.5 82 53 82 157 273> 624 20G<118.5 129> 630 20G<377 387.5> 798 20G<249.5 260.5>
VStem: 16 141 39 118 82 75<-2 241 316 503 578 589> 347 75<-175.5 -163>
LayerCount: 2
Back
Fore
SplineSet
82 -2 m 2xf640
 82 241 l 1xf4c0
 76 240 l 1
 51 240 39 253 39 278 c 0xf540
 39 303 51 315 76 315 c 1
 82 316 l 1
 82 503 l 1xf4c0
 53 503 l 2
 28 503 16 515 16 540 c 0xf640
 16 565 28 578 53 578 c 2
 82 578 l 1
 82 589 l 2xf4c0
 83 614 95 627 120 627 c 0
 145 627 158 614 157 589 c 2
 157 578 l 1
 277 578 l 2
 341 578 383 556 404 513 c 0
 417 487 423 440 423 371 c 2
 422 -163 l 2
 422 -188 410 -201 385 -201 c 0
 360 -201 347 -188 347 -163 c 2
 348 241 l 1
 157 241 l 1
 157 -2 l 2
 157 -27 145 -39 120 -39 c 0
 95 -39 82 -27 82 -2 c 2xf640
157 503 m 1
 157 316 l 1
 348 316 l 1
 348 369 l 2
 349 418 346 450 340 467 c 0
 333 487 311 499 273 503 c 1
 157 503 l 1
110 683 m 2
 206 784 l 2
 227 807 244 818 255 818 c 0
 266 818 282 807 303 786 c 2
 396 689 l 2
 401 684 403 679 403 673 c 0
 403 658 395 650 380 650 c 0xee40
 374 650 369 652 364 657 c 2
 256 765 l 1
 142 651 l 2
 137 646 132 644 126 644 c 0
 111 644 103 652 103 667 c 0
 103 673 105 678 110 683 c 2
EndSplineSet
EndChar

StartChar: Ecircumflex
Encoding: 202 202 232
GlifName: E_circumflex
Width: 509
Flags: MW
HStem: -42 117<65 160> 0 75<52.5 111 65 111 186 442> 265 75<186 403.5> 513 75<396 408.5> 588 39 613 20G<347 357.5> 781 20G<219.5 230.5>
VStem: 29 157 111 75<-6 -4 -4 0 -16.5 0 75 265 341 514>
LayerCount: 2
Back
Fore
SplineSet
186 0 m 1x77
 186 -4 l 2
 186 -29 173 -42 147 -42 c 0xb7
 122 -42 110 -30 111 -6 c 2
 111 0 l 1
 65 0 l 2x7680
 40 0 27 13 27 38 c 0
 27 63 40 75 65 75 c 2
 111 75 l 1
 111 514 l 1xb680
 66 514 l 2
 41 514 29 526 29 551 c 0xb7
 29 576 41 589 66 589 c 2
 111 589 l 1xb680
 113 610 125 620 148 620 c 0
 171 620 183 610 186 589 c 1
 396 588 l 2
 421 588 434 576 434 551 c 0
 434 526 421 513 396 513 c 2
 186 514 l 1
 186 341 l 1
 391 340 l 2
 416 340 428 328 428 303 c 0
 428 278 416 265 391 265 c 2
 186 265 l 1
 186 75 l 1
 442 75 l 2
 467 75 480 63 480 38 c 0
 480 13 467 0 442 0 c 2
 186 0 l 1x77
80 666 m 2x6b
 176 767 l 2
 197 790 214 801 225 801 c 0
 236 801 252 790 273 769 c 2
 366 672 l 2
 371 667 373 662 373 656 c 0
 373 641 365 633 350 633 c 0xb7
 344 633 339 635 334 640 c 2
 226 748 l 1
 112 634 l 2
 107 629 102 627 96 627 c 0
 81 627 73 635 73 650 c 0
 73 656 75 661 80 666 c 2x6b
EndSplineSet
EndChar

StartChar: Aacute
Encoding: 193 193 233
GlifName: A_acute
Width: 509
Flags: MW
HStem: -201 21G<372.5 397.5> 241 75<82 82 157 348> 503 75<40.5 82 53 82 157 273> 503 124<40.5 132.5 53 132.5 107.5 273 107.5 157> 633 20G<196.5 205.5> 835 20G<292.5 300.5>
VStem: 16 141 39 118 82 75<-2 241 316 503 578 589> 347 75<-175.5 -163>
LayerCount: 2
Back
Fore
SplineSet
82 -2 m 2xee40
 82 241 l 1xecc0
 76 240 l 1
 51 240 39 253 39 278 c 0xed40
 39 303 51 315 76 315 c 1
 82 316 l 1
 82 503 l 1xecc0
 53 503 l 2
 28 503 16 515 16 540 c 0xee40
 16 565 28 578 53 578 c 2
 82 578 l 1xecc0
 82 589 l 2
 83 614 95 627 120 627 c 0xdcc0
 145 627 158 614 157 589 c 2
 157 578 l 1
 277 578 l 2
 341 578 383 556 404 513 c 0
 417 487 423 440 423 371 c 2
 422 -163 l 2
 422 -188 410 -201 385 -201 c 0
 360 -201 347 -188 347 -163 c 2
 348 241 l 1
 157 241 l 1
 157 -2 l 2
 157 -27 145 -39 120 -39 c 0
 95 -39 82 -27 82 -2 c 2xee40
157 503 m 1
 157 316 l 1
 348 316 l 1
 348 369 l 2
 349 418 346 450 340 467 c 0
 333 487 311 499 273 503 c 1
 157 503 l 1
189 693 m 2
 285 850 l 2
 287 853 290 855 295 855 c 0
 306 855 319 847 334 830 c 0
 350 813 358 799 358 788 c 0
 358 783 357 780 354 777 c 2
 219 659 l 2
 214 655 208 653 203 653 c 0
 190 653 184 661 184 676 c 0
 184 682 186 688 189 693 c 2
EndSplineSet
EndChar

StartChar: Edieresis
Encoding: 203 203 234
GlifName: E_dieresis
Width: 509
Flags: MW
HStem: -42 117<65 160> 0 75<52.5 111 65 111 186 442> 265 75<186 403.5> 513 75<396 408.5> 513 107 641 20G<337.5 366> 658 107<127 155.5> 747 20G<337.5 366>
VStem: 29 157 90 96 111 75<-6 -4 -4 0 -16.5 0 75 265 341 514> 300 104<699.5 728.5>
LayerCount: 2
Back
Fore
SplineSet
186 0 m 1x7290
 186 -4 l 2
 186 -29 173 -42 147 -42 c 0xb250
 122 -42 110 -30 111 -6 c 2
 111 0 l 1
 65 0 l 2x7230
 40 0 27 13 27 38 c 0
 27 63 40 75 65 75 c 2
 111 75 l 1
 111 514 l 1xb230
 66 514 l 2
 41 514 29 526 29 551 c 0xb290
 29 576 41 589 66 589 c 2
 111 589 l 1
 113 610 125 620 148 620 c 0xaa30
 171 620 183 610 186 589 c 1
 396 588 l 2
 421 588 434 576 434 551 c 0
 434 526 421 513 396 513 c 2
 186 514 l 1
 186 341 l 1
 391 340 l 2
 416 340 428 328 428 303 c 0
 428 278 416 265 391 265 c 2
 186 265 l 1
 186 75 l 1
 442 75 l 2
 467 75 480 63 480 38 c 0
 480 13 467 0 442 0 c 2
 186 0 l 1x7290
90 711 m 0xb250
 90 740 113 765 141 765 c 0
 170 765 193 740 193 711 c 0
 193 682 170 658 141 658 c 0
 113 658 90 682 90 711 c 0xb250
300 714 m 0
 300 743 323 767 352 767 c 0
 380 767 404 743 404 714 c 0
 404 685 380 661 352 661 c 0xb590
 323 661 300 685 300 714 c 0
EndSplineSet
EndChar

StartChar: Egrave
Encoding: 200 200 235
GlifName: E_grave
Width: 509
Flags: MW
HStem: -42 117<52.5 160> 0 75<65 111 52.5 111 186 442> 265 75<186 403.5 391 403.5> 513 75<396 408.5> 513 107 813 20G<206.5 214>
VStem: 27 159<-4 50.5> 111 75<-4 0 -4 0 -6 0 75 265 341 514>
LayerCount: 2
Back
Fore
SplineSet
186 -4 m 2xb5
 186 0 l 1
 442 0 l 2x75
 467 0 480 13 480 38 c 0
 480 63 467 75 442 75 c 2
 186 75 l 1
 186 265 l 1
 391 265 l 2
 416 265 428 278 428 303 c 0
 428 328 416 340 391 340 c 2
 186 341 l 1
 186 514 l 1
 396 513 l 2
 421 513 434 526 434 551 c 0
 434 576 421 588 396 588 c 2xb6
 186 589 l 1
 183 610 171 620 148 620 c 0
 125 620 113 610 111 589 c 1
 66 589 l 2
 41 589 29 576 29 551 c 0
 29 526 41 514 66 514 c 2
 111 514 l 1
 111 75 l 1xad
 65 75 l 2
 40 75 27 63 27 38 c 0xb6
 27 13 40 0 65 0 c 2
 111 0 l 1x75
 111 -6 l 2
 110 -30 122 -42 147 -42 c 0
 173 -42 186 -29 186 -4 c 2xb5
317 671 m 2
 321 666 323 660 323 654 c 0
 323 639 316 631 303 631 c 0
 298 631 293 633 288 637 c 2
 152 755 l 2
 149 758 148 761 148 766 c 0
 148 777 156 791 172 808 c 0
 188 825 201 833 212 833 c 0
 216 833 219 831 221 828 c 2
 317 671 l 2
EndSplineSet
EndChar

StartChar: Iacute
Encoding: 205 205 236
GlifName: I_acute
Width: 379
Flags: MW
HStem: 1 75<41.5 142 54 142 217 325> 554 75<38.5 322 51 142 217 322 217 217> 623 20G<129.5 138.5> 825 20G<225.5 233.5>
VStem: 13 204<76 604.5> 142 217<76 604.5 554 604.5>
LayerCount: 2
Back
Fore
SplineSet
217 554 m 1xd8
 217 76 l 1
 325 76 l 2
 350 76 362 63 362 38 c 0
 362 13 350 1 325 1 c 2
 54 1 l 2
 29 1 16 13 16 38 c 0
 16 63 29 76 54 76 c 2
 142 76 l 1
 142 554 l 1
 51 554 l 2
 26 554 13 567 13 592 c 0xd8
 13 617 26 629 51 629 c 2
 322 629 l 2
 347 629 359 617 359 592 c 0xd4
 359 567 347 554 322 554 c 2
 217 554 l 1xd8
122 683 m 2
 218 840 l 2
 220 843 223 845 228 845 c 0
 239 845 252 837 267 820 c 0
 283 803 291 789 291 778 c 0
 291 773 290 770 287 767 c 2
 152 649 l 2
 147 645 141 643 136 643 c 0xb8
 123 643 117 651 117 666 c 0
 117 672 119 678 122 683 c 2
EndSplineSet
EndChar

StartChar: Icircumflex
Encoding: 206 206 237
GlifName: I_circumflex
Width: 379
Flags: MW
HStem: 1 75<41.5 142 54 142 217 325> 554 75<38.5 322 51 142 217 322 217 217> 624 20G<54.5 65> 628 20G<307.5 317.5> 759 20G<183.5 194.5>
VStem: 13 204<76 604.5> 142 217<76 604.5 554 604.5>
LayerCount: 2
Back
Fore
SplineSet
217 554 m 1xcc
 217 76 l 1
 325 76 l 2
 350 76 362 63 362 38 c 0
 362 13 350 1 325 1 c 2
 54 1 l 2
 29 1 16 13 16 38 c 0
 16 63 29 76 54 76 c 2
 142 76 l 1
 142 554 l 1
 51 554 l 2
 26 554 13 567 13 592 c 0xcc
 13 617 26 629 51 629 c 2
 322 629 l 2
 347 629 359 617 359 592 c 0xca
 359 567 347 554 322 554 c 2
 217 554 l 1xcc
47 674 m 0
 78 700 109 726 140 753 c 0
 161 770 178 779 189 779 c 0
 200 779 215 771 236 754 c 2
 326 679 l 2
 331 675 333 671 333 666 c 0
 333 654 325 648 310 648 c 0x9c
 305 648 300 650 295 654 c 2
 189 738 l 1
 78 649 l 2
 73 646 68 644 62 644 c 0xac
 47 644 40 650 40 662 c 0
 40 667 42 671 47 674 c 0
EndSplineSet
EndChar

StartChar: Idieresis
Encoding: 207 207 238
GlifName: I_dieresis
Width: 379
Flags: MW
HStem: 1 75<41.5 142 54 142 217 325> 554 75<38.5 322 51 142 217 322 217 217> 634 20G<275.5 304> 651 107<65 93.5> 740 20G<275.5 304>
VStem: 13 118<579.5 718.5> 28 103<689.5 718.5> 142 75<76 554 76 554> 142 217<76 604.5 554 604.5> 238 104<692.5 721.5>
LayerCount: 2
Back
Fore
SplineSet
217 554 m 1xd540
 217 76 l 1xd340
 325 76 l 2
 350 76 362 63 362 38 c 0
 362 13 350 1 325 1 c 2
 54 1 l 2
 29 1 16 13 16 38 c 0
 16 63 29 76 54 76 c 2
 142 76 l 1
 142 554 l 1
 51 554 l 2
 26 554 13 567 13 592 c 0
 13 617 26 629 51 629 c 2
 322 629 l 2
 347 629 359 617 359 592 c 0xd480
 359 567 347 554 322 554 c 2
 217 554 l 1xd540
28 704 m 0
 28 733 51 758 79 758 c 0
 108 758 131 733 131 704 c 0
 131 675 108 651 79 651 c 0
 51 651 28 675 28 704 c 0
238 707 m 0
 238 736 261 760 290 760 c 0
 318 760 342 736 342 707 c 0
 342 678 318 654 290 654 c 0xed40
 261 654 238 678 238 707 c 0
EndSplineSet
EndChar

StartChar: Igrave
Encoding: 204 204 239
GlifName: I_grave
Width: 379
Flags: MW
HStem: 1 75<41.5 142 54 142 217 325> 554 75<38.5 322 51 142 217 322 217 217> 623 20G<247.5 256.5> 825 20G<153.5 161>
VStem: 13 204<76 604.5> 142 217<76 604.5 554 604.5>
LayerCount: 2
Back
Fore
SplineSet
217 554 m 1xd8
 217 76 l 1
 325 76 l 2
 350 76 362 63 362 38 c 0
 362 13 350 1 325 1 c 2
 54 1 l 2
 29 1 16 13 16 38 c 0
 16 63 29 76 54 76 c 2
 142 76 l 1
 142 554 l 1
 51 554 l 2
 26 554 13 567 13 592 c 0xd8
 13 617 26 629 51 629 c 2
 322 629 l 2
 347 629 359 617 359 592 c 0xd4
 359 567 347 554 322 554 c 2
 217 554 l 1xd8
264 683 m 2
 268 678 270 672 270 666 c 0
 270 651 263 643 250 643 c 0xb8
 245 643 240 645 235 649 c 2
 99 767 l 2
 96 770 95 773 95 778 c 0
 95 789 103 803 119 820 c 0
 135 837 148 845 159 845 c 0
 163 845 166 843 168 840 c 2
 264 683 l 2
EndSplineSet
EndChar

StartChar: Oacute
Encoding: 211 211 240
GlifName: O_acute
Width: 403
Flags: MW
HStem: -20 75<173.5 241.5 167.5 266.5> 560 75<186.5 219.5> 623 20G<129.5 138.5> 825 20G<225.5 233.5>
VStem: 16 75<238.5 328 208.5 334> 312 75<218.5 343.5>
LayerCount: 2
Back
Fore
SplineSet
203 635 m 0xdc
 267 635 315 601 347 534 c 0
 374 477 387 399 387 300 c 0
 387 87 327 -20 206 -20 c 0
 141 -20 92 9 59 67 c 0
 30 119 16 192 16 285 c 0
 16 383 30 463 58 526 c 0
 91 599 140 635 203 635 c 0xdc
203 560 m 0
 170 560 144 536 123 489 c 0
 102 439 91 371 91 285 c 0
 91 132 129 55 206 55 c 0
 277 55 312 137 312 300 c 0
 312 387 302 452 281 497 c 0
 262 539 236 560 203 560 c 0
122 683 m 2
 218 840 l 2
 220 843 223 845 228 845 c 0
 239 845 252 837 267 820 c 0
 283 803 291 789 291 778 c 0
 291 773 290 770 287 767 c 2
 152 649 l 2
 147 645 141 643 136 643 c 0xbc
 123 643 117 651 117 666 c 0
 117 672 119 678 122 683 c 2
EndSplineSet
EndChar

StartChar: Ocircumflex
Encoding: 212 212 241
GlifName: O_circumflex
Width: 403
Flags: MW
HStem: -20 75<173.5 241.5 167.5 266.5> 560 75<186.5 219.5> 621 20G<72.5 82.5> 625 20G<323.5 333.5> 753 20G<199.5 210.5>
VStem: 16 75<238.5 328 208.5 334> 312 75<218.5 343.5>
LayerCount: 2
Back
Fore
SplineSet
203 635 m 0xce
 267 635 315 601 347 534 c 0
 374 477 387 399 387 300 c 0
 387 87 327 -20 206 -20 c 0
 141 -20 92 9 59 67 c 0
 30 119 16 192 16 285 c 0
 16 383 30 463 58 526 c 0
 91 599 140 635 203 635 c 0xce
203 560 m 0
 170 560 144 536 123 489 c 0
 102 439 91 371 91 285 c 0
 91 132 129 55 206 55 c 0
 277 55 312 137 312 300 c 0
 312 387 302 452 281 497 c 0
 262 539 236 560 203 560 c 0
64 670 m 0
 95 696 126 722 157 747 c 0
 178 764 194 773 205 773 c 0
 216 773 231 765 252 749 c 2
 342 675 l 2
 347 672 349 668 349 663 c 0
 349 651 341 645 326 645 c 0x9e
 321 645 316 647 311 651 c 2
 206 733 l 1
 95 646 l 2
 90 643 85 641 80 641 c 0xae
 65 641 57 647 57 659 c 0
 57 663 59 667 64 670 c 0
EndSplineSet
EndChar

StartChar: Ograve
Encoding: 210 210 243
GlifName: O_grave
Width: 403
Flags: MW
HStem: -20 75<173.5 241.5 167.5 266.5> 560 75<186.5 219.5> 626 20G<272.5 281.5> 828 20G<178.5 186>
VStem: 16 75<238.5 328 208.5 334> 312 75<218.5 343.5>
LayerCount: 2
Back
Fore
SplineSet
203 635 m 0xdc
 140 635 91 599 58 526 c 0
 30 463 16 383 16 285 c 0
 16 192 30 119 59 67 c 0
 92 9 141 -20 206 -20 c 0
 327 -20 387 87 387 300 c 0
 387 399 374 477 347 534 c 0
 315 601 267 635 203 635 c 0xdc
203 560 m 0
 236 560 262 539 281 497 c 0
 302 452 312 387 312 300 c 0
 312 137 277 55 206 55 c 0
 129 55 91 132 91 285 c 0
 91 371 102 439 123 489 c 0
 144 536 170 560 203 560 c 0
289 686 m 2
 293 681 295 675 295 669 c 0
 295 654 288 646 275 646 c 0xbc
 270 646 265 648 260 652 c 2
 124 770 l 2
 121 773 120 776 120 781 c 0
 120 792 128 806 144 823 c 0
 160 840 173 848 184 848 c 0
 188 848 191 846 193 843 c 2
 289 686 l 2
EndSplineSet
EndChar

StartChar: Uacute
Encoding: 218 218 244
GlifName: U_acute
Width: 509
Flags: MW
HStem: -40 75<204 249.5> 622 20G<350.5 375.5> 813 20G<269.5 277.5>
VStem: 56 75<118 536 536 537 117 548.5> 326 75<126 604 126 616.5>
LayerCount: 2
Back
Fore
SplineSet
226 -40 m 0
 182 -40 144 -25 112 6 c 0
 80 37 61 74 56 118 c 1
 56 536 l 2
 56 561 68 574 93 574 c 0
 118 574 131 562 131 537 c 2
 131 117 l 1
 142 69 178 35 226 35 c 0
 278 35 321 75 326 126 c 1
 326 604 l 2
 326 629 338 642 363 642 c 0
 388 642 401 629 401 604 c 2
 401 126 l 2
 398 79 380 40 346 8 c 0
 313 -24 273 -40 226 -40 c 0
166 671 m 2
 262 828 l 2
 264 831 267 833 272 833 c 0
 283 833 296 825 311 808 c 0
 327 791 335 777 335 766 c 0
 335 761 334 758 331 755 c 2
 196 637 l 2
 191 633 185 631 180 631 c 0
 167 631 161 639 161 654 c 0
 161 660 163 666 166 671 c 2
EndSplineSet
EndChar

StartChar: Ucircumflex
Encoding: 219 219 245
GlifName: U_circumflex
Width: 509
Flags: MW
HStem: -40 75<204 249.5> 574 82<80.5 125.5> 622 20G<350.5 375.5> 641 20G<369 379.5> 771 20G<244.5 255.5>
VStem: 56 75<118 536 536 537 117 548.5> 326 75<126 604 126 616.5>
LayerCount: 2
Back
Fore
SplineSet
226 -40 m 0xae
 182 -40 144 -25 112 6 c 0
 80 37 61 74 56 118 c 1
 56 536 l 2
 56 561 68 574 93 574 c 0xce
 118 574 131 562 131 537 c 2
 131 117 l 1
 142 69 178 35 226 35 c 0
 278 35 321 75 326 126 c 1
 326 604 l 2
 326 629 338 642 363 642 c 0
 388 642 401 629 401 604 c 2
 401 126 l 2
 398 79 380 40 346 8 c 0
 313 -24 273 -40 226 -40 c 0xae
107 686 m 0
 138 712 170 738 201 765 c 0
 222 782 239 791 250 791 c 0
 261 791 276 783 297 766 c 2
 388 691 l 2
 393 687 395 683 395 679 c 0
 395 667 387 661 372 661 c 0x9e
 366 661 361 663 356 666 c 2
 250 750 l 1
 138 662 l 2
 133 658 128 656 123 656 c 0
 108 656 100 662 100 674 c 0
 100 679 102 683 107 686 c 0
EndSplineSet
EndChar

